<svg width="24" height="24" viewBox="0 0 24 24" fill="none" xmlns="http://www.w3.org/2000/svg">
<path d="M12 1.75C14.3458 1.75 16.25 3.65421 16.25 6V8.75H18C18.6858 8.75 19.25 9.31421 19.25 10V20C19.25 20.6858 18.6858 21.25 18 21.25H6C5.31421 21.25 4.75 20.6858 4.75 20V10C4.75 9.31421 5.31421 8.75 6 8.75H7.75V6C7.75 3.65421 9.65421 1.75 12 1.75ZM12 12.25C10.4858 12.25 9.25 13.4858 9.25 15C9.25 16.5142 10.4858 17.75 12 17.75C13.5142 17.75 14.75 16.5142 14.75 15C14.75 13.4858 13.5142 12.25 12 12.25ZM12 2.15039C9.87579 2.15039 8.15039 3.87579 8.15039 6V8.75H15.8496V6C15.8496 3.87579 14.1242 2.15039 12 2.15039Z" stroke="white" stroke-width="1.5"/>
</svg>
