<svg width="72" height="72" viewBox="0 0 72 72" fill="none" xmlns="http://www.w3.org/2000/svg">
<circle cx="36" cy="36" r="36" fill="#00A0DC"/>
<path d="M52.7311 35.3336C55.1186 33.1366 56.4451 30.5002 56.4451 27.5709C56.4451 21.1263 49.9456 16 41.9872 16C34.0287 16 27.5293 21.1263 27.5293 27.5709C27.5293 28.0103 27.9272 28.3032 28.3251 28.3032H28.5904C35.8857 28.3032 42.2525 32.1114 44.9053 37.6771C45.1706 38.4094 45.9664 38.7024 46.6296 38.5559C47.1602 38.4094 47.6907 38.263 48.0887 38.1165C48.4866 37.97 49.0172 37.97 49.4151 38.263C50.3436 38.8488 51.4047 39.4347 52.5985 39.5812C53.2617 39.7276 53.6596 38.8488 53.2617 38.263C53.129 38.1165 52.9964 37.8236 52.7311 37.6771C52.4658 37.3842 52.3332 36.7983 52.3332 36.3589C52.2005 36.066 52.4658 35.6266 52.7311 35.3336Z" fill="white"/>
<path d="M28.4579 31.8184C20.4994 31.8184 14 37.0912 14 43.3892C14 46.1721 15.3264 48.955 17.714 51.152C17.9792 51.4449 18.2445 51.8843 18.2445 52.3237C18.2445 52.7631 18.1119 53.2025 17.8466 53.6419C17.7139 53.7884 17.5813 54.0813 17.316 54.2278C16.9181 54.8137 17.316 55.546 17.9792 55.546C19.0404 55.3995 20.2341 54.8137 21.1626 54.2278C21.5605 53.9349 21.9585 53.9349 22.489 54.0813C24.346 54.8137 26.3356 55.1066 28.4579 55.1066C36.4163 55.1066 42.9158 49.8338 42.9158 43.5357C42.9158 37.2376 36.4163 31.8184 28.4579 31.8184ZM28.06 49.2479H22.2237C21.4279 49.2479 20.6321 48.5156 20.6321 47.4903C20.6321 46.6115 21.2953 45.7327 22.2237 45.7327H28.06C28.8558 45.7327 29.6516 46.465 29.6516 47.4903C29.6516 48.3691 28.9884 49.2479 28.06 49.2479ZM33.8962 43.2428H22.2237C21.4279 43.2428 20.6321 42.5104 20.6321 41.4852C20.6321 40.6064 21.2953 39.7276 22.2237 39.7276H33.8962C34.8247 39.7276 35.4879 40.4599 35.4879 41.4852C35.4879 42.5104 34.8247 43.2428 33.8962 43.2428Z" fill="white"/>
</svg>
