<svg width="24" height="23" viewBox="0 0 24 23" fill="none" xmlns="http://www.w3.org/2000/svg">
<path d="M12.336 19.9253C13.1799 19.8676 14.0167 19.7329 14.836 19.5227C15.8479 19.8269 16.916 19.8957 17.9587 19.724C18.0003 19.7189 18.0421 19.7158 18.084 19.7147C18.456 19.7147 18.944 19.928 19.656 20.3773V19.6387C19.6563 19.51 19.6911 19.3837 19.7568 19.273C19.8224 19.1624 19.9165 19.0713 20.0293 19.0093C20.3396 18.8342 20.6262 18.6373 20.8893 18.4187C21.9267 17.552 22.512 16.3947 22.512 15.1707C22.512 14.7667 22.448 14.364 22.3213 13.98C22.635 13.4041 22.887 12.7967 23.0733 12.168C23.6733 13.0547 23.996 14.1013 24 15.1707C24 16.8347 23.216 18.3867 21.8573 19.5213C21.6298 19.7107 21.392 19.8849 21.144 20.044V21.7747C21.144 22.3693 20.448 22.712 19.9573 22.3573C19.4924 22.0152 19.0119 21.6949 18.5173 21.3973C18.3745 21.3149 18.2266 21.2415 18.0747 21.1773C17.6619 21.2384 17.2452 21.2692 16.828 21.2693C15.1347 21.2693 13.5693 20.7667 12.336 19.9253ZM3.37467 16.4653C1.236 14.6747 0 12.2333 0 9.61733C0 4.27333 5.10933 0 11.348 0C17.588 0 22.6987 4.272 22.6987 9.61733C22.6987 14.9627 17.588 19.2333 11.348 19.2333C10.6538 19.2341 9.96056 19.1806 9.27467 19.0733C8.98133 19.1413 7.80533 19.8307 6.112 21.0507C5.49867 21.4933 4.62933 21.0667 4.62933 20.3213V17.3707C4.19016 17.0992 3.77128 16.7962 3.376 16.464M9.316 17.2533C9.36756 17.2533 9.41956 17.2573 9.472 17.2653C10.0853 17.3667 10.7107 17.4178 11.348 17.4187C16.6187 17.4187 20.836 13.892 20.836 9.616C20.836 5.34133 16.6187 1.816 11.3493 1.816C6.08 1.816 1.86 5.34133 1.86 9.616C1.86 11.6827 2.84667 13.6293 4.588 15.0867C5.02711 15.4529 5.50533 15.7818 6.02267 16.0733C6.163 16.1512 6.28015 16.265 6.36214 16.4029C6.44412 16.5409 6.48802 16.6982 6.48933 16.8587V18.56C7.82933 17.6733 8.71067 17.2533 9.316 17.2533Z" fill="white"/>
<path d="M6.74854 11.25C7.14636 11.25 7.52789 11.092 7.8092 10.8107C8.0905 10.5294 8.24854 10.1478 8.24854 9.75C8.24854 9.35218 8.0905 8.97064 7.8092 8.68934C7.52789 8.40804 7.14636 8.25 6.74854 8.25C6.35071 8.25 5.96918 8.40804 5.68788 8.68934C5.40657 8.97064 5.24854 9.35218 5.24854 9.75C5.24854 10.1478 5.40657 10.5294 5.68788 10.8107C5.96918 11.092 6.35071 11.25 6.74854 11.25Z" fill="white"/>
<path d="M11.625 11.25C12.0228 11.25 12.4044 11.092 12.6857 10.8107C12.967 10.5294 13.125 10.1478 13.125 9.75C13.125 9.35218 12.967 8.97064 12.6857 8.68934C12.4044 8.40804 12.0228 8.25 11.625 8.25C11.2272 8.25 10.8456 8.40804 10.5643 8.68934C10.283 8.97064 10.125 9.35218 10.125 9.75C10.125 10.1478 10.283 10.5294 10.5643 10.8107C10.8456 11.092 11.2272 11.25 11.625 11.25Z" fill="white"/>
<path d="M16.5 11.25C16.8978 11.25 17.2794 11.092 17.5607 10.8107C17.842 10.5294 18 10.1478 18 9.75C18 9.35218 17.842 8.97064 17.5607 8.68934C17.2794 8.40804 16.8978 8.25 16.5 8.25C16.1022 8.25 15.7206 8.40804 15.4393 8.68934C15.158 8.97064 15 9.35218 15 9.75C15 10.1478 15.158 10.5294 15.4393 10.8107C15.7206 11.092 16.1022 11.25 16.5 11.25Z" fill="white"/>
</svg>
