<svg width="13" height="10" viewBox="0 0 13 10" fill="none" xmlns="http://www.w3.org/2000/svg">
<path d="M13 1.36599V9.09083C13 9.5929 12.6035 9.99944 12.1138 9.99944H10.0452V4.84992L6.5 7.57686L2.95479 4.84992V10H0.886167C0.769748 10 0.65447 9.97648 0.54692 9.93078C0.43937 9.88509 0.341656 9.81811 0.259361 9.73368C0.177066 9.64925 0.111802 9.54902 0.0673001 9.43871C0.0227979 9.32841 -7.0995e-05 9.2102 1.65561e-07 9.09083V1.36599C1.65561e-07 0.242443 1.25071 -0.399027 2.12713 0.27521L2.95479 0.912237L6.5 3.63807L10.0452 0.911126L10.8729 0.27521C11.7488 -0.398472 13 0.242443 13 1.36599Z" fill="white"/>
</svg>
