<svg width="10" height="10" viewBox="0 0 10 10" fill="none" xmlns="http://www.w3.org/2000/svg">
<path d="M0 5.10314V10.0007H2.32831V4.70832V3.33398H0V5.10314Z" fill="white"/>
<path d="M1.1634 0C0.933304 0 0.708373 0.0684074 0.517052 0.196571C0.325731 0.324734 0.176616 0.506897 0.0885604 0.720025C0.000505165 0.933153 -0.0225356 1.16767 0.0223546 1.39393C0.0672448 1.62018 0.178048 1.82801 0.340753 1.99113C0.503458 2.15426 0.710758 2.26534 0.936436 2.31035C1.16211 2.35535 1.39604 2.33226 1.60862 2.24397C1.8212 2.15569 2.0029 2.0062 2.13074 1.81439C2.25858 1.62258 2.32681 1.39707 2.32681 1.16638C2.32641 0.857159 2.20371 0.560719 1.98562 0.342067C1.76752 0.123415 1.47184 0.000398738 1.1634 0Z" fill="white"/>
<path d="M9.9227 5.38042C9.77239 4.12363 9.18918 3.33398 7.49518 3.33398C6.48961 3.33398 5.81471 3.70771 5.54115 4.23815H5.51259V3.33398H3.65625V10.0007H5.59526V6.69599C5.59526 5.82497 5.7591 4.98108 6.83382 4.98108C7.90854 4.98108 7.97768 5.97717 7.97768 6.75175V10.0007H9.9738V6.33733C9.97683 6.0176 9.95976 5.698 9.9227 5.38042Z" fill="white"/>
</svg>
