<svg width="27" height="37" viewBox="0 0 27 37" fill="none" xmlns="http://www.w3.org/2000/svg">
<path fill-rule="evenodd" clip-rule="evenodd" d="M14.3216 35.4301L14.3033 35.4334L14.185 35.4917L14.1516 35.4984L14.1283 35.4917L14.01 35.4334C13.9922 35.4278 13.9788 35.4306 13.97 35.4417L13.9633 35.4584L13.935 36.1717L13.9433 36.2051L13.96 36.2267L14.1333 36.3501L14.1583 36.3567L14.1783 36.3501L14.3516 36.2267L14.3716 36.2001L14.3783 36.1717L14.35 35.4601C14.3455 35.4423 14.3361 35.4323 14.3216 35.4301ZM14.7633 35.2417L14.7416 35.2451L14.4333 35.4001L14.4166 35.4167L14.4116 35.4351L14.4416 36.1517L14.45 36.1717L14.4633 36.1834L14.7983 36.3384C14.8194 36.3439 14.8355 36.3395 14.8466 36.3251L14.8533 36.3017L14.7966 35.2784C14.7911 35.2584 14.78 35.2462 14.7633 35.2417ZM13.5716 35.2451C13.5643 35.2406 13.5555 35.2392 13.5471 35.241C13.5387 35.2429 13.5314 35.2479 13.5266 35.2551L13.5166 35.2784L13.46 36.3017C13.4611 36.3217 13.4705 36.3351 13.4883 36.3417L13.5133 36.3384L13.8483 36.1834L13.865 36.1701L13.8716 36.1517L13.9 35.4351L13.895 35.4151L13.8783 35.3984L13.5716 35.2451Z" fill="white"/>
<path d="M4.53333 24.4C4.95768 24.2762 5.41381 24.3261 5.80139 24.5386C6.18896 24.7512 6.47623 25.109 6.6 25.5333C6.72377 25.9577 6.6739 26.4138 6.46135 26.8014C6.24881 27.189 5.89101 27.4762 5.46667 27.6C4.63333 27.8433 4.03333 28.1 3.64833 28.3333C4.045 28.5717 4.67167 28.8383 5.54167 29.0867C7.46667 29.6367 10.2217 30 13.3333 30C16.445 30 19.2 29.6367 21.125 29.0867C21.9967 28.8383 22.6217 28.5717 23.0183 28.3333C22.635 28.1 22.035 27.8433 21.2017 27.6C20.784 27.4708 20.4338 27.1826 20.2266 26.7976C20.0194 26.4126 19.9718 25.9617 20.094 25.5419C20.2163 25.1221 20.4985 24.7672 20.88 24.5536C21.2615 24.34 21.7116 24.2848 22.1333 24.4C23.2467 24.725 24.2667 25.1417 25.05 25.6767C25.775 26.175 26.6667 27.0433 26.6667 28.3333C26.6667 29.6383 25.7533 30.5133 25.0167 31.0117C24.22 31.5483 23.1783 31.9667 22.04 32.2917C19.7433 32.95 16.6667 33.3333 13.3333 33.3333C10 33.3333 6.92333 32.95 4.62667 32.2917C3.48833 31.9667 2.44667 31.5483 1.65 31.0117C0.913333 30.5117 0 29.6383 0 28.3333C0 27.0433 0.891666 26.175 1.61667 25.6767C2.4 25.1417 3.42 24.725 4.53333 24.4ZM13.3333 0C16.6485 0 19.828 1.31696 22.1722 3.66117C24.5164 6.00537 25.8333 9.18479 25.8333 12.5C25.8333 16.78 23.5 20.26 21.0833 22.7333C20.1227 23.7065 19.0903 24.6063 17.995 25.425C17.005 26.1683 14.7417 27.5617 14.7417 27.5617C14.3124 27.8057 13.8271 27.9339 13.3333 27.9339C12.8396 27.9339 12.3543 27.8057 11.925 27.5617C10.8018 26.9103 9.71564 26.197 8.67167 25.425C7.57472 24.6083 6.54223 23.7084 5.58333 22.7333C3.16667 20.26 0.833333 16.78 0.833333 12.5C0.833333 9.18479 2.15029 6.00537 4.4945 3.66117C6.8387 1.31696 10.0181 0 13.3333 0ZM13.3333 9.16667C12.4493 9.16667 11.6014 9.51786 10.9763 10.143C10.3512 10.7681 10 11.6159 10 12.5C10 13.3841 10.3512 14.2319 10.9763 14.857C11.6014 15.4821 12.4493 15.8333 13.3333 15.8333C14.2174 15.8333 15.0652 15.4821 15.6904 14.857C16.3155 14.2319 16.6667 13.3841 16.6667 12.5C16.6667 11.6159 16.3155 10.7681 15.6904 10.143C15.0652 9.51786 14.2174 9.16667 13.3333 9.16667Z" fill="white"/>
</svg>
