<svg width="43" height="40" viewBox="0 0 43 40" fill="none" xmlns="http://www.w3.org/2000/svg">
<path d="M38.7311 19.3336C41.1186 17.1366 42.4451 14.5002 42.4451 11.5709C42.4451 5.12634 35.9456 0 27.9872 0C20.0287 0 13.5293 5.12634 13.5293 11.5709C13.5293 12.0103 13.9272 12.3032 14.3251 12.3032H14.5904C21.8857 12.3032 28.2525 16.1114 30.9053 21.6771C31.1706 22.4094 31.9664 22.7024 32.6296 22.5559C33.1602 22.4094 33.6907 22.263 34.0887 22.1165C34.4866 21.97 35.0172 21.97 35.4151 22.263C36.3436 22.8488 37.4047 23.4347 38.5985 23.5812C39.2617 23.7276 39.6596 22.8488 39.2617 22.263C39.129 22.1165 38.9964 21.8236 38.7311 21.6771C38.4658 21.3842 38.3332 20.7983 38.3332 20.3589C38.2005 20.066 38.4658 19.6266 38.7311 19.3336Z" fill="white"/>
<path d="M14.4579 15.8184C6.49941 15.8184 0 21.0912 0 27.3892C0 30.1721 1.32641 32.955 3.71395 35.152C3.97923 35.4449 4.24451 35.8843 4.24451 36.3237C4.24451 36.7631 4.11187 37.2025 3.84659 37.6419C3.71395 37.7884 3.58131 38.0813 3.31603 38.2278C2.9181 38.8137 3.31603 39.546 3.97923 39.546C5.04036 39.3995 6.23413 38.8137 7.16262 38.2278C7.56054 37.9349 7.95846 37.9349 8.48903 38.0813C10.346 38.8137 12.3356 39.1066 14.4579 39.1066C22.4163 39.1066 28.9158 33.8338 28.9158 27.5357C28.9158 21.2376 22.4163 15.8184 14.4579 15.8184ZM14.06 33.2479H8.22375C7.4279 33.2479 6.63205 32.5156 6.63205 31.4903C6.63205 30.6115 7.29526 29.7327 8.22375 29.7327H14.06C14.8558 29.7327 15.6516 30.465 15.6516 31.4903C15.6516 32.3691 14.9884 33.2479 14.06 33.2479ZM19.8962 27.2428H8.22375C7.4279 27.2428 6.63205 26.5104 6.63205 25.4852C6.63205 24.6064 7.29526 23.7276 8.22375 23.7276H19.8962C20.8247 23.7276 21.4879 24.4599 21.4879 25.4852C21.4879 26.5104 20.8247 27.2428 19.8962 27.2428Z" fill="white"/>
</svg>
