<svg width="12" height="10" viewBox="0 0 12 10" fill="none" xmlns="http://www.w3.org/2000/svg">
<path fill-rule="evenodd" clip-rule="evenodd" d="M10.757 0.0684131C10.9045 0.00783696 11.066 -0.0130553 11.2247 0.00791049C11.3833 0.0288763 11.5333 0.090934 11.659 0.187624C11.7847 0.284314 11.8815 0.412102 11.9394 0.557687C11.9973 0.703272 12.0141 0.861332 11.9881 1.01542L10.634 9.02766C10.5027 9.80052 9.63335 10.2437 8.90674 9.85876C8.29894 9.53669 7.3962 9.04047 6.58421 8.52271C6.17822 8.26353 4.93456 7.4336 5.08741 6.84303C5.21876 6.33808 7.30844 4.44058 8.50254 3.31245C8.97122 2.86923 8.75748 2.61355 8.20401 3.02124C6.8296 4.03347 4.6229 5.57279 3.8933 6.0061C3.24968 6.38817 2.91414 6.4534 2.51292 6.38817C1.78094 6.26935 1.10209 6.08531 0.548026 5.86108C-0.200676 5.55823 -0.164256 4.55415 0.547429 4.26178L10.757 0.0684131Z" fill="white"/>
</svg>
