<svg width="30" height="30" viewBox="0 0 30 30" fill="none" xmlns="http://www.w3.org/2000/svg">
<path d="M16.4 6C17.5797 5.99971 18.7271 6.37065 19.6667 7.05611C20.6064 7.74158 21.2865 8.70386 21.6032 9.79583L21.6656 10.0322L23.9096 9.49373C24.0736 9.4545 24.2444 9.44901 24.4108 9.47761C24.5772 9.50622 24.7354 9.56827 24.8751 9.65971C25.0148 9.75115 25.1328 9.86992 25.2214 10.0082C25.31 10.1465 25.3672 10.3013 25.3892 10.4623L25.4 10.6122V12.6992C26.0769 13.3222 26.6313 14.0573 27.0368 14.8692L27.2024 15.2244H27.8C28.0939 15.2244 28.3776 15.3281 28.5972 15.5158C28.8169 15.7034 28.9572 15.962 28.9916 16.2425L29 16.3774V19.8366C29 20.0263 28.9513 20.2132 28.8582 20.3805C28.765 20.5479 28.6303 20.6906 28.466 20.7959L28.3364 20.8674L26.9348 21.5419C26.362 22.6092 25.5306 23.5286 24.5108 24.2227L24.2 24.4234V25.6018C24.2 25.8842 24.0921 26.1568 23.8967 26.3678C23.7014 26.5789 23.4323 26.7137 23.1404 26.7468L23 26.7548H19.4C19.1061 26.7548 18.8224 26.6511 18.6028 26.4634C18.3831 26.2758 18.2428 26.0172 18.2084 25.7367L18.2 25.6018H17C17 25.8842 16.8921 26.1568 16.6967 26.3678C16.5014 26.5789 16.2323 26.7137 15.9404 26.7468L15.8 26.7548H12.2C11.9061 26.7548 11.6224 26.6511 11.4028 26.4634C11.1831 26.2758 11.0428 26.0172 11.0084 25.7367L11 25.6018V24.4234C10.1327 23.8912 9.38365 23.1994 8.79587 22.3879C8.20808 21.5763 7.79323 20.661 7.5752 19.6947C6.86742 19.4927 6.24141 19.0864 5.78205 18.5309C5.32269 17.9755 5.05218 17.2977 5.0072 16.5896L5 16.3774V15.8009C5.00034 15.507 5.11745 15.2243 5.32742 15.0106C5.53738 14.7969 5.82434 14.6683 6.12967 14.6511C6.435 14.6339 6.73566 14.7293 6.9702 14.918C7.20474 15.1066 7.35548 15.3742 7.3916 15.666L7.4 15.8009V16.3774C7.4016 16.5496 7.4376 16.7091 7.508 16.8559C7.69087 15.8178 8.09935 14.8283 8.70681 13.9519C9.31428 13.0756 10.1071 12.3321 11.0336 11.7698C10.9485 11.044 11.0238 10.309 11.2546 9.61307C11.4855 8.9171 11.8667 8.27582 12.3732 7.73117C12.8798 7.18651 13.5003 6.75077 14.1942 6.45245C14.8882 6.15413 15.6398 5.99995 16.4 6ZM23 12.0881L19.6904 12.8837L19.5464 12.9102L19.4 12.9183H15.2C13.9866 12.9175 12.8084 13.3094 11.8552 14.0308C10.902 14.7522 10.2294 15.761 9.94591 16.8946C9.66241 18.0282 9.78449 19.2205 10.2925 20.2793C10.8005 21.3381 11.6648 22.2016 12.746 22.7307C12.9202 22.8163 13.07 22.9415 13.1823 23.0955C13.2946 23.2494 13.3661 23.4274 13.3904 23.6139L13.4 23.7569V24.4487H14.6C14.6 24.1663 14.7079 23.8937 14.9033 23.6827C15.0986 23.4716 15.3677 23.3368 15.6596 23.3038L15.8 23.2957H19.4C19.6939 23.2957 19.9776 23.3994 20.1972 23.5871C20.4169 23.7748 20.5572 24.0334 20.5916 24.3138L20.6 24.4487H21.8V23.7569C21.8001 23.5446 21.8612 23.3364 21.9766 23.1553C22.092 22.9743 22.2572 22.8273 22.454 22.7307C23.5553 22.1893 24.4309 21.3024 24.9356 20.2171C25.0256 20.023 25.1697 19.8566 25.352 19.7362L25.4948 19.6555L26.6 19.124V17.5305H26.3516C26.0903 17.5304 25.8362 17.4484 25.6278 17.2969C25.4195 17.1454 25.2683 16.9326 25.1972 16.691C24.8973 15.6766 24.2828 14.774 23.4356 14.1036C23.2006 13.9171 23.0483 13.6516 23.0096 13.361L23 13.2146V12.0881ZM21.8 15.2244C22.1183 15.2244 22.4235 15.3459 22.6485 15.5621C22.8736 15.7783 23 16.0716 23 16.3774C23 16.6832 22.8736 16.9765 22.6485 17.1927C22.4235 17.409 22.1183 17.5305 21.8 17.5305C21.4817 17.5305 21.1765 17.409 20.9515 17.1927C20.7264 16.9765 20.6 16.6832 20.6 16.3774C20.6 16.0716 20.7264 15.7783 20.9515 15.5621C21.1765 15.3459 21.4817 15.2244 21.8 15.2244ZM16.4 8.30609C15.6732 8.30609 14.971 8.55965 14.4241 9.01964C13.8772 9.47964 13.5226 10.1148 13.4264 10.8071C14.0079 10.6771 14.603 10.6117 15.2 10.6122H19.2524L19.3364 10.5926C19.1941 9.94568 18.8247 9.36544 18.29 8.94915C17.7554 8.53286 17.0881 8.30582 16.4 8.30609Z" fill="white"/>
</svg>
