<svg width="10" height="10" viewBox="0 0 10 10" fill="none" xmlns="http://www.w3.org/2000/svg">
<path d="M8.49998 1.45502C8.04151 0.992077 7.49549 0.625008 6.89374 0.375207C6.29198 0.125406 5.64653 -0.00213158 4.99499 2.69475e-05C2.26499 2.69475e-05 0.04 2.22502 0.04 4.95501C0.04 5.83001 0.269999 6.68001 0.699998 7.43001L0 10L2.62499 9.31C3.34999 9.705 4.16499 9.915 4.99499 9.915C7.72498 9.915 9.94997 7.69001 9.94997 4.96001C9.94997 3.63502 9.43497 2.39002 8.49998 1.45502ZM4.99499 9.075C4.25499 9.075 3.52999 8.875 2.89499 8.5L2.74499 8.41L1.185 8.82L1.6 7.30001L1.5 7.14501C1.08877 6.48854 0.87046 5.72965 0.869998 4.95501C0.869998 2.68502 2.71999 0.835025 4.98999 0.835025C6.08998 0.835025 7.12498 1.26502 7.89998 2.04502C8.28379 2.42695 8.58794 2.88129 8.79479 3.38168C9.00164 3.88207 9.10707 4.41856 9.10497 4.96001C9.11497 7.23001 7.26498 9.075 4.99499 9.075ZM7.25498 5.99501C7.12998 5.93501 6.51998 5.63501 6.40998 5.59001C6.29498 5.55001 6.21498 5.53001 6.12998 5.65001C6.04498 5.77501 5.80998 6.05501 5.73998 6.13501C5.66998 6.22001 5.59498 6.23001 5.46998 6.16501C5.34498 6.10501 4.94499 5.97001 4.47499 5.55001C4.10499 5.22001 3.85999 4.81501 3.78499 4.69001C3.71499 4.56501 3.77499 4.50002 3.83999 4.43502C3.89499 4.38002 3.96499 4.29002 4.02499 4.22002C4.08499 4.15002 4.10999 4.09502 4.14999 4.01502C4.18999 3.93002 4.16999 3.86002 4.13999 3.80002C4.10999 3.74002 3.85999 3.13002 3.75999 2.88002C3.65999 2.64002 3.55499 2.67002 3.47999 2.66502H3.23999C3.15499 2.66502 3.02499 2.69502 2.90999 2.82002C2.79999 2.94502 2.47999 3.24502 2.47999 3.85502C2.47999 4.46501 2.92499 5.05501 2.98499 5.13501C3.04499 5.22001 3.85999 6.47001 5.09999 7.00501C5.39498 7.13501 5.62498 7.21001 5.80498 7.26501C6.09998 7.36001 6.36998 7.34501 6.58498 7.31501C6.82498 7.28001 7.31998 7.01501 7.41998 6.72501C7.52498 6.43501 7.52498 6.19001 7.48998 6.13501C7.45498 6.08001 7.37998 6.05501 7.25498 5.99501Z" fill="white"/>
</svg>
