<svg width="69" height="44" viewBox="0 0 69 44" fill="none" xmlns="http://www.w3.org/2000/svg">
<g clip-path="url(#clip0_2805_58755)">
<path d="M0.995333 37.1621C0.995333 37.1621 -2.61256 39.8 3.90975 41.0487C10.4321 42.2974 16.4014 40.9105 16.4014 40.9105C16.4014 40.9105 29.1492 43.4102 44.7161 43.2696C60.1222 43.1314 66.0916 43.1314 68.589 39.9382C71.0864 36.7451 60.7885 33.5587 54.3863 31.4715C47.9841 29.382 14.1827 27.4466 0.997599 37.1643L0.995333 37.1621Z" fill="#EAC357"/>
<path d="M35.5604 39.0159C49.4597 39.0159 60.7273 37.2118 60.7273 34.9865C60.7273 32.7611 49.4597 30.957 35.5604 30.957C21.6612 30.957 10.3936 32.7611 10.3936 34.9865C10.3936 37.2118 21.6612 39.0159 35.5604 39.0159Z" fill="#DDA852"/>
<path d="M32.8113 9.12175C32.8113 9.12175 23.9253 17.1466 23.6397 24.3125C23.3519 31.4785 28.3694 33.7697 35.6781 33.6269C42.9868 33.4841 46.5698 29.3278 48.0021 25.3142C49.4343 21.3007 48.7182 17.0016 46.5698 13.2758C44.4191 9.55008 36.8248 5.82434 32.8113 9.11949V9.12175Z" fill="#352A24"/>
<path d="M35.6756 33.6266C41.7107 33.5088 45.2053 30.6533 47.0455 27.4035C44.0382 26.3474 39.9861 25.6992 35.5306 25.6992C31.0751 25.6992 26.9256 26.361 23.9092 27.4397C25.0514 32.1581 29.5612 33.7445 35.6756 33.6243V33.6266Z" fill="#44352B"/>
<path d="M40.6029 25.5676V24.8628C40.6754 24.8061 40.723 24.7132 40.723 24.6044C40.723 24.5092 40.6868 24.4254 40.6278 24.3687C40.7888 24.3098 40.8998 24.1738 40.8998 24.0152C40.8998 23.8475 40.7752 23.707 40.6006 23.6548V23.6254C40.6732 23.5687 40.7208 23.4735 40.7208 23.367C40.7208 23.3421 40.7185 23.3194 40.714 23.2968C41.5117 22.9999 41.7021 22.0254 41.7021 22.0254L40.4465 22.1047L39.191 22.0254C39.191 22.0254 39.3814 23.0135 40.195 23.3013C40.1905 23.3217 40.1882 23.3444 40.1882 23.367C40.1882 23.4667 40.229 23.5551 40.2924 23.6118V23.6616C40.127 23.7183 40.0114 23.8565 40.0114 24.0174C40.0114 24.1783 40.1247 24.3121 40.2834 24.371C40.2267 24.4276 40.1882 24.5115 40.1882 24.6067C40.1882 24.7064 40.229 24.7948 40.2924 24.8514V25.5698C40.2924 25.5698 39.3293 25.622 39.123 26.1545C39.123 26.1545 40.3967 26.4129 41.7723 26.1545C41.5661 25.622 40.6029 25.5698 40.6029 25.5698V25.5676Z" fill="#B55C30"/>
<path d="M40.4281 23.328C40.4281 23.328 40.3057 23.294 40.2513 23.3688C40.1992 23.4436 40.2604 23.5546 40.3669 23.5728C40.4734 23.5909 40.623 23.3643 40.4281 23.328Z" fill="#D86B3A"/>
<path d="M40.3645 23.6824C40.3645 23.6824 40.1696 23.7299 40.0993 23.8523C40.0291 23.9747 40.0993 24.1991 40.326 24.2059C40.5526 24.2127 40.718 24.0427 40.6976 23.8795C40.6795 23.7164 40.5209 23.6484 40.3622 23.6824H40.3645Z" fill="#D86B3A"/>
<path d="M40.36 24.4141C40.36 24.4141 40.2648 24.4141 40.258 24.584C40.2512 24.754 40.4348 24.8424 40.5164 24.6928C40.5979 24.5432 40.5299 24.3597 40.36 24.4141Z" fill="#D86B3A"/>
<path d="M40.7869 25.6709C40.7506 25.6527 40.7008 25.6369 40.6441 25.6256C40.6328 25.6505 40.6192 25.6731 40.5965 25.689C40.4401 25.7502 40.2815 25.7185 40.1795 25.6074C40.0549 25.6256 39.4793 25.7207 39.264 26.004C39.23 26.106 39.8894 26.1967 40.4991 26.0697C41.1087 25.9428 40.9047 25.7275 40.7892 25.6663L40.7869 25.6709Z" fill="#D86B3A"/>
<path d="M40.333 24.8838L40.3398 25.5161C40.3398 25.5161 40.435 25.5773 40.4622 25.4889C40.4894 25.4005 40.4894 24.9518 40.4418 24.8974C40.3942 24.843 40.333 24.8838 40.333 24.8838Z" fill="#D86B3A"/>
<path d="M40.6865 22.4057C40.6865 22.4057 40.2514 22.3785 40.2446 22.5621C40.2378 22.7457 40.2786 22.8952 40.0474 22.9564C39.8661 23.004 40.0814 23.1536 40.299 23.1808C40.5165 23.208 40.8474 23.1128 40.9109 22.7661C40.9721 22.4193 40.7817 22.4329 40.6865 22.4057Z" fill="#D86B3A"/>
<path d="M40.6531 22.461C40.6531 22.461 40.3539 22.461 40.3335 22.5153C40.3131 22.5697 40.3471 22.7057 40.3607 22.8485C40.3743 22.9913 40.5443 22.9845 40.6599 22.7193C40.7754 22.4542 40.687 22.461 40.6531 22.461Z" fill="#EF7E52"/>
<path d="M40.394 23.3281C40.394 23.3281 40.292 23.3349 40.292 23.3825C40.292 23.4301 40.3872 23.4777 40.4348 23.4301C40.4824 23.3825 40.4416 23.3349 40.394 23.3281Z" fill="#EF7E52"/>
<path d="M40.4282 23.7222C40.4282 23.7222 40.2582 23.7018 40.1698 23.8106C40.0814 23.9194 40.333 24.0078 40.4554 23.899C40.5777 23.7902 40.5029 23.7358 40.4282 23.7222Z" fill="#EF7E52"/>
<path d="M40.3609 24.4146C40.3609 24.4146 40.2793 24.4282 40.2793 24.5506C40.2793 24.6729 40.3609 24.6729 40.4153 24.5709C40.4697 24.469 40.3949 24.4078 40.3609 24.4146Z" fill="#EF7E52"/>
<path d="M40.1791 25.6133C40.084 25.6337 39.7123 25.7153 39.565 25.8104C39.4426 25.9056 39.6466 25.9804 40.0001 25.8626C40.1474 25.8127 40.2721 25.7606 40.3514 25.713C40.2857 25.6971 40.2267 25.6654 40.1791 25.6133Z" fill="#EF7E52"/>
<path d="M41.7108 22.0091C41.7108 22.1066 41.1442 22.1859 40.4462 22.1859C39.7482 22.1859 39.1816 22.1066 39.1816 22.0091C39.1816 21.9117 39.7482 21.8301 40.4462 21.8301C41.1442 21.8301 41.7108 21.9094 41.7108 22.0091Z" fill="#96421E"/>
<path d="M41.1873 21.8543C41.1691 21.3512 41.1873 20.6396 41.1873 20.6396C41.1873 20.6396 41.3686 20.8096 41.5567 20.592C41.5567 20.592 41.6428 20.4787 41.5385 20.2317C41.4343 19.9846 41.3686 19.7376 41.3572 19.4521C41.3482 19.1665 41.3572 18.958 41.1487 18.8538C40.9402 18.7495 40.6162 18.8198 40.2966 18.6158C40.1176 18.5002 40.0655 18.3779 39.9997 18.3688C39.9997 18.3688 39.7912 18.2917 39.7142 18.5388C39.6643 18.6997 39.7233 18.9036 39.7097 19.1212C39.7006 19.2504 39.7187 19.3795 39.7346 19.5065C39.7459 19.6062 39.7436 19.7127 39.7618 19.8124C39.8003 20.0209 39.8388 20.5149 39.6757 20.9138C39.5148 21.3127 39.6666 21.4464 39.8003 21.4464C39.789 21.5642 39.7867 21.6594 39.789 21.7365C39.755 21.7183 39.7074 21.707 39.6394 21.707C39.4309 21.707 39.2428 21.7591 39.1612 21.852C39.0796 21.945 39.0796 22.0673 39.3425 22.0605C39.5216 22.056 39.6326 22.0809 39.721 22.0832C39.7029 22.0945 39.6825 22.1059 39.6575 22.1195C39.4286 22.2237 39.4014 22.3846 39.4286 22.575C39.4581 22.7654 39.4196 22.8968 39.3244 23.06C39.2292 23.2209 39.3629 23.3931 39.5148 23.4022C39.6666 23.4112 39.8388 23.3455 39.8184 23.0124C39.8003 22.6792 39.7232 22.4435 39.8366 22.3756C39.9499 22.3098 39.9317 22.3846 39.8751 22.5093C39.8184 22.6339 39.9045 22.7744 40.0269 22.7653C40.1516 22.7563 40.1697 22.6792 40.1402 22.5478C40.1108 22.4141 40.1584 22.3393 40.3397 22.2713C40.521 22.2056 40.9561 22.2441 40.9765 22.3665C40.9946 22.4911 41.0332 22.5478 40.9674 22.8039C40.9017 23.06 41.006 23.137 41.1193 23.1461C41.2326 23.1551 41.3482 23.137 41.3482 22.89C41.3482 22.6883 41.2711 22.5546 41.2756 22.4775C41.2643 22.4435 41.219 22.3053 41.2348 22.2894C41.4162 22.2668 41.5725 22.2849 41.5771 22.1149C41.5997 22.0016 41.4547 21.8543 41.185 21.8543H41.1873Z" fill="#F9CF58"/>
<path d="M40.0746 18.5006C40.0746 18.5006 39.9387 18.487 39.9885 18.5867C40.0361 18.6797 40.3013 18.9856 40.6163 19.0604C40.929 19.1352 41.1217 19.0264 40.9336 18.87C40.7591 18.725 40.5868 18.9969 40.0746 18.5006Z" fill="#E5AD23"/>
<path d="M40.5508 19.0374C40.5508 19.0374 40.5418 18.5502 40.5214 18.4709C40.5032 18.3983 40.578 18.4165 40.5871 18.5026C40.5962 18.5887 40.6166 19.0624 40.6166 19.0624C40.6166 19.0624 40.569 19.0556 40.5508 19.0374Z" fill="#726546"/>
<path d="M41.4548 20.1753C41.4095 19.9713 41.346 19.7877 41.3188 19.6155C41.3098 19.3753 41.2826 19.1441 41.235 19.0807C41.1489 18.9628 40.988 19.4999 40.2673 19.0716C40.0271 18.9288 40.0248 18.7724 39.8662 18.743C39.7075 18.7135 39.8503 19.5135 39.8662 19.5792C39.8662 19.5792 39.9024 20.2455 39.8299 20.4993C39.7574 20.7532 39.6486 21.05 39.6418 21.1747C39.635 21.2971 39.8662 21.4353 39.9546 21.1747C40.0407 20.9141 40.0565 20.9866 40.0996 21.0228C40.1427 21.0591 40.231 21.3854 40.0928 21.5078C39.9546 21.6302 39.8458 21.6891 39.8458 21.841C39.8458 21.9928 39.8163 22.0948 39.7007 22.131C39.5852 22.1673 39.4537 22.2693 39.4537 22.3713C39.4537 22.4733 39.4968 22.6908 39.4673 22.7837C39.4378 22.8789 39.3223 23.1033 39.3223 23.169C39.3223 23.2347 39.4446 23.3503 39.5897 23.271C39.7347 23.1917 39.7279 23.024 39.6985 22.8223C39.669 22.6183 39.6758 22.292 39.9228 22.2126C40.0316 22.1764 40.052 22.2784 39.9727 22.3871C39.8934 22.4959 39.8866 22.6047 39.907 22.6614C39.9296 22.7203 40.0588 22.7475 40.0588 22.5956C40.0588 22.4438 40.0293 22.3056 40.2401 22.2036C40.4509 22.1016 40.5868 22.0291 41.0741 22.1378C41.2645 22.1809 41.4526 22.131 41.4254 22.0223C41.3959 21.9135 41.1874 21.8976 41.1874 21.8976C41.1874 21.8976 41.0514 21.8931 41.0786 21.8319C41.1783 21.6143 41.1171 21.3515 41.1217 21.1384C41.1262 20.905 41.1307 20.6716 41.1398 20.5447C41.1443 20.4903 41.1534 20.4404 41.1647 20.3996C41.1919 20.4495 41.2395 20.5039 41.3234 20.5265C41.4956 20.5719 41.5069 20.4178 41.4503 20.1707L41.4548 20.1753Z" fill="#FFE07D"/>
<path d="M41.0198 22.3786C41.0198 22.3786 41.0923 22.5599 41.0266 22.7117C41.0266 22.7117 40.9404 22.9429 41.0266 23.0245C41.1127 23.1038 41.2509 23.0381 41.2305 22.8137C41.2079 22.5893 41.158 22.4284 41.1217 22.3559C41.0855 22.2834 40.9926 22.2041 41.0198 22.3786Z" fill="#FFE07D"/>
<path d="M39.6189 22.1886C39.6189 22.1886 39.4739 22.2113 39.4603 22.4062C39.4467 22.6011 39.5464 22.6237 39.569 22.5376C39.5894 22.4515 39.6053 22.3201 39.6846 22.2475C39.7639 22.175 39.6778 22.175 39.6189 22.1886Z" fill="#FFF3C2"/>
<path d="M39.4372 22.9492C39.4372 22.9492 39.3511 23.0512 39.342 23.1237C39.3352 23.1962 39.4803 23.2619 39.5233 23.1305C39.5664 22.999 39.5233 22.8336 39.4372 22.9492Z" fill="#FFF3C2"/>
<path d="M41.0265 22.7125C41.0265 22.7125 40.9902 22.8349 40.9902 22.912C40.9902 22.989 41.0945 22.9958 41.0945 22.844C41.0945 22.6921 41.065 22.6717 41.0288 22.7103L41.0265 22.7125Z" fill="#FFF3C2"/>
<path d="M39.4873 21.7532C39.4873 21.7532 39.2381 21.7646 39.1678 21.8937C39.1451 21.964 39.3423 21.9799 39.5168 21.9504C39.6913 21.9209 39.7094 21.8212 39.68 21.7759C39.6505 21.7283 39.5168 21.7464 39.4873 21.7532Z" fill="#FFE07D"/>
<path d="M39.4874 21.7534C39.4874 21.7534 39.2948 21.776 39.2903 21.8236C39.2835 21.8712 39.4421 21.9052 39.5169 21.8531C39.5917 21.801 39.569 21.742 39.4874 21.7534Z" fill="#FFF3C2"/>
<path d="M39.8569 19.2338C39.8569 19.2338 40.0948 19.4899 40.0676 19.9001C40.0404 20.3102 40.0676 20.4757 40.2127 20.5301C40.3577 20.5845 40.4302 20.4304 40.4393 20.1833C40.4483 19.9363 40.5843 19.9091 40.6954 19.8547C40.8042 19.8003 40.8404 19.7188 40.8223 19.6077C40.8042 19.4989 40.6954 19.5171 40.6772 19.644C40.6591 19.7709 40.5322 19.7074 40.4212 19.9091C40.3124 20.1086 40.2852 20.274 40.2195 20.2831C40.156 20.2921 40.1107 20.1289 40.156 19.9635C40.2013 19.8003 40.0019 19.3426 39.9271 19.2428C39.8546 19.1431 39.7458 18.8508 39.8002 18.742C39.8546 18.6332 39.5713 18.7239 39.8546 19.2338H39.8569Z" fill="#F9CF58"/>
<path d="M40.6075 20.9056C40.6075 20.9056 40.671 21.0959 40.5622 21.2886C40.4534 21.4812 40.535 21.6806 40.7277 21.6897C40.9203 21.6988 41.0109 21.4427 40.9271 21.1503C40.8455 20.858 41.0087 21.0415 41.0177 21.25C41.0268 21.4608 40.9905 21.7985 40.7707 21.8257C40.5509 21.8529 40.2789 21.6444 40.3786 21.3883C40.4784 21.1322 40.5509 21.0959 40.5328 20.8512C40.5146 20.6042 40.6053 20.9056 40.6053 20.9056H40.6075Z" fill="#F9CF58"/>
<path d="M39.9497 18.8968C39.9497 18.8968 40.1604 19.1053 40.4596 19.2164C40.761 19.3252 40.4958 19.5359 40.3508 19.554C40.2057 19.5722 40.0494 19.2164 39.9768 19.0985C39.9043 18.9807 39.9225 18.8787 39.9497 18.8991V18.8968Z" fill="#FFEFAE"/>
<path d="M41.3341 19.8372C41.3341 19.8372 41.4996 20.2111 41.452 20.329C41.4066 20.4468 41.2412 20.3834 41.2321 20.1386C41.2231 19.8916 41.2503 19.6015 41.3319 19.8372H41.3341Z" fill="#FFEFAE"/>
<path d="M40.0765 21.5985C40.0765 21.5985 39.9134 21.6892 39.9043 21.8274C39.8952 21.9634 39.9496 22.0291 40.0765 22.0019C40.2034 21.9747 40.2216 21.866 40.2306 21.6552C40.2397 21.4444 40.1581 21.5283 40.0765 21.6008V21.5985Z" fill="#FFEFAE"/>
<path d="M39.6935 20.9689C39.6935 20.9689 39.621 21.1139 39.7116 21.1615C39.8023 21.2068 39.8929 21.1434 39.9314 20.9326C39.9677 20.7241 40.1059 20.749 40.1875 20.9689C40.2691 21.1864 40.4164 21.1932 40.3802 20.9598C40.3167 20.5677 40.0334 20.5859 40.0062 20.3479C39.9065 19.4822 39.8884 19.8561 39.8793 20.1009C39.8725 20.289 39.8521 20.6017 39.6957 20.9666L39.6935 20.9689Z" fill="#FFEFAE"/>
<path d="M40.9513 19.7824C40.9513 19.7824 40.8969 19.8639 40.6771 20.0475C40.523 20.1767 40.5773 20.3852 40.6317 20.5665C40.6861 20.7478 40.7586 20.886 40.6499 21.1398C40.5411 21.3959 40.5592 21.6044 40.7405 21.5863C40.9241 21.5682 40.8402 21.4503 40.7949 21.0107C40.7496 20.5733 40.8516 20.7772 40.9581 20.8928C41.0759 21.0197 41.0941 20.8112 41.0941 20.5552C41.0941 20.2991 41.1847 20.0158 41.2028 19.5875C41.221 19.1591 41.0011 19.1954 40.9467 19.7778L40.9513 19.7824Z" fill="#FFEFAE"/>
<path d="M40.9516 20.0095C40.9516 20.0095 40.8156 20.1092 40.8247 20.2565C40.8337 20.4015 40.9334 20.6757 41.0264 20.4106C41.117 20.1454 41.1261 19.8826 40.9538 20.0095H40.9516Z" fill="#FFF7D7"/>
<path d="M39.8212 20.5306C39.8212 20.5306 39.7124 20.9045 39.6852 21.0133C39.658 21.1221 39.794 21.1311 39.8393 20.8501C39.8846 20.5668 39.8665 20.4309 39.8212 20.5306Z" fill="#FFF7D7"/>
<path d="M40.0765 19.0071C40.0765 19.0071 40.2669 19.1431 40.4595 19.2179C40.6521 19.2904 40.3961 19.4196 40.2216 19.2632C40.0493 19.1091 39.9745 18.9527 40.0765 19.0071Z" fill="#FFF7D7"/>
<path d="M40.7384 19.6317C40.7339 19.643 40.7293 19.6589 40.7248 19.6725C40.6976 19.7473 40.6319 19.7677 40.5684 19.8017C40.4936 19.8425 40.437 19.9059 40.4007 19.983C40.3622 20.0691 40.3735 20.1643 40.3373 20.2504C40.301 20.3342 40.2172 20.3909 40.1492 20.3048C40.0902 20.3093 40.1378 20.434 40.224 20.4521C40.3101 20.4679 40.3667 20.4226 40.3962 20.2685C40.4121 20.1869 40.4075 20.0782 40.437 19.9988C40.4687 19.915 40.5934 19.8742 40.6613 19.8311C40.6999 19.8062 40.7475 19.779 40.7724 19.7405C40.8019 19.6929 40.7656 19.5682 40.7384 19.634V19.6317Z" fill="#E5AD23"/>
<path d="M41.1741 20.5488C41.1741 20.5488 41.1651 20.6032 41.1855 20.6372C41.2059 20.6712 41.403 20.8049 41.5549 20.5896C41.4257 20.6621 41.2308 20.6871 41.1719 20.5488H41.1741Z" fill="#E5AD23"/>
<path d="M40.5212 21.303C40.5212 21.303 40.3263 21.6815 40.7523 21.7245C40.7523 21.7245 40.8815 21.72 40.9246 21.6044C40.9676 21.4911 41.0062 21.7563 40.7523 21.7676C40.4985 21.7789 40.4056 21.6158 40.4169 21.5024C40.4283 21.3891 40.5778 21.1195 40.5733 20.9744C40.5688 20.8294 40.6753 20.9857 40.5189 21.303H40.5212Z" fill="#E5AD23"/>
<path d="M40.05 21.1276C40.05 21.1276 40.0182 21.5332 39.6602 21.3814C39.7145 21.5015 39.9185 21.5219 40.0046 21.3927C40.0907 21.2635 40.1179 21.1162 40.0477 21.1276H40.05Z" fill="#E5AD23"/>
<path d="M39.818 21.779C39.818 21.779 39.8429 22.0147 39.7205 22.0827C39.5982 22.0759 39.3443 22.0532 39.231 22.06C39.1177 22.0646 39.1064 21.9512 39.1177 21.9354C39.1925 22.0215 39.1993 22.0102 39.4305 22.0215C39.6616 22.0328 39.7228 22.017 39.75 21.9037C39.7772 21.7903 39.7931 21.6974 39.8203 21.779H39.818Z" fill="#E5AD23"/>
<path d="M41.2669 23.1238C41.2669 23.1238 41.4187 23.0151 41.3054 22.6049C41.251 22.3624 41.2215 22.2876 41.2351 22.2876C41.3213 22.2966 41.5479 22.2763 41.5683 22.1584C41.4935 22.206 41.3575 22.2672 41.0878 22.2015C40.7502 22.1199 40.7524 22.1425 40.9473 22.2015C41.1422 22.2604 41.2011 22.3102 41.2487 22.5029C41.3235 22.7998 41.319 23.0105 41.2646 23.1238H41.2669Z" fill="#E5AD23"/>
<path d="M38.3795 30.2506C38.3274 30.2506 38.282 30.2121 38.2775 30.1577C38.2775 30.1531 38.2775 30.1463 38.2775 30.1418C38.2458 30.1645 38.205 30.1667 38.171 30.1486C38.1211 30.1214 38.1007 30.0602 38.1257 30.0081C38.1302 30.0013 38.1891 29.8767 38.1211 29.7294C38.0373 29.548 37.7925 29.3985 37.4118 29.301C36.3172 29.02 35.1659 28.6461 34.9302 28.0025C34.8418 27.7622 34.8917 27.5107 35.0753 27.2523C35.4265 26.756 36.2084 26.4478 37.2758 26.3821C38.1461 26.3277 39.15 26.4478 39.8344 26.6858C40.7228 26.994 40.8406 27.3838 40.8316 27.59C40.8202 27.8733 40.5619 28.1135 40.1585 28.2178C39.5013 28.3877 38.3795 29.1741 38.486 30.1327C38.4928 30.1894 38.452 30.2415 38.3931 30.2483C38.3885 30.2483 38.3863 30.2483 38.3817 30.2483L38.3795 30.2506ZM37.7223 26.577C36.6707 26.577 35.6418 26.8081 35.243 27.3724C35.0979 27.5741 35.0594 27.7577 35.1229 27.9322C35.354 28.56 36.8837 28.9543 37.4616 29.1016C37.9149 29.2172 38.2004 29.403 38.3115 29.65C38.3115 29.65 38.3115 29.6546 38.3138 29.6568C38.5245 28.841 39.4197 28.1974 40.1041 28.0183C40.4101 27.939 40.614 27.769 40.6208 27.5832C40.6299 27.3362 40.3103 27.0733 39.7619 26.8829C39.2067 26.6903 38.4588 26.577 37.7223 26.577Z" fill="#ECB13E"/>
<path d="M39.538 29.8455C39.4315 29.6823 39.2638 29.56 39.0689 29.5214C38.9397 29.4965 38.806 29.501 38.6791 29.5373H38.6745C38.5046 29.5894 38.3527 29.6823 38.244 29.7639C38.0468 29.56 37.8111 29.4512 37.5641 29.4512C37.1607 29.4512 36.7799 29.7752 36.755 30.1854C36.7301 30.573 36.9318 30.9038 37.2015 31.1554C37.41 31.3503 37.6298 31.5339 37.8859 31.6585C37.9403 31.6857 37.9969 31.7174 38.0536 31.7424L38.1397 31.7809L38.2258 31.7401C38.2757 31.7152 39.4609 31.1486 39.6468 30.437C39.7012 30.233 39.6536 30.0177 39.5403 29.8455H39.538Z" fill="#ECB13E"/>
<path d="M38.1356 31.5524C38.1356 31.5524 37.2337 31.1581 36.9957 30.4964C36.7555 29.8346 37.6348 29.2386 38.2172 30.059C38.2172 30.059 38.9243 29.3428 39.3685 29.9683C39.8127 30.5938 38.5662 31.3507 38.1356 31.5547V31.5524Z" fill="#D30B23"/>
<path d="M39.3685 29.9652C39.1169 29.6117 38.7815 29.6864 38.5368 29.8201C38.7929 29.8451 38.845 30.049 38.8473 30.0694C39.1532 30.9782 38.0065 32.0116 37.0886 30.5816C36.9844 30.4184 37.007 30.1102 37.1113 29.8632C36.9708 30.0218 36.9096 30.253 36.9957 30.4932C37.2337 31.155 38.1356 31.5493 38.1356 31.5493C38.564 31.3453 39.8127 30.5907 39.3685 29.9629V29.9652Z" fill="#A5112A"/>
<path d="M38.0834 31.1534C38.0834 31.1534 37.4443 30.9222 37.2879 30.4395C37.1338 29.9568 37.7797 29.7891 38.1854 30.2333C38.1854 30.2333 38.8267 29.7347 39.0987 29.9953C39.3729 30.256 38.9015 30.9426 38.0834 31.1534Z" fill="#FF5555"/>
<path d="M37.7499 30.215C37.8134 30.3193 37.7862 30.4485 37.691 30.5074C37.5958 30.564 37.4666 30.5278 37.4054 30.4235C37.342 30.3193 37.3692 30.1878 37.4644 30.1312C37.5596 30.0723 37.6865 30.1108 37.7499 30.215Z" fill="white"/>
<path d="M39.7623 26.8821C39.207 26.6895 38.4592 26.5762 37.7226 26.5762C36.6711 26.5762 35.6422 26.8073 35.2433 27.3716C35.0983 27.5733 35.0598 27.7569 35.1232 27.9314C35.3544 28.5592 36.8841 28.9535 37.462 29.1008C37.9153 29.2164 38.2008 29.4022 38.3119 29.6492C38.3119 29.6492 38.3119 29.6538 38.3141 29.656C38.5249 28.8402 39.4201 28.1966 40.1045 28.0175C40.4104 27.9382 40.6144 27.7682 40.6212 27.5824C40.6303 27.3354 40.3107 27.0725 39.7623 26.8821Z" fill="url(#paint0_linear_2805_58755)"/>
<path d="M40.1584 27.127L40.2218 27.1429L40.6569 27.2517L40.8292 26.9775C40.8292 26.9775 40.7363 26.6715 40.7385 26.6693C40.7045 26.5786 40.6819 26.4993 40.6479 26.4086C40.6479 26.4018 40.6388 26.3724 40.6343 26.3701L40.3329 26.25L40.0496 26.5831L40.0088 26.633C40.0586 26.7101 40.1652 26.9004 40.1584 27.127Z" fill="white"/>
<path d="M40.643 27.1559L40.5115 26.7547L40.5251 26.7502L40.7789 26.9745C40.7789 26.9745 40.7948 26.9791 40.7993 26.9745C40.8039 26.9678 40.8039 26.9587 40.7993 26.9542L40.5568 26.7411L40.7132 26.6913C40.7132 26.6913 40.7245 26.6799 40.7223 26.6731C40.72 26.6641 40.7109 26.6618 40.7042 26.6641L40.5546 26.7117L40.6226 26.408C40.6226 26.408 40.618 26.3921 40.6112 26.3899C40.6044 26.3899 40.5954 26.3921 40.5931 26.4012L40.5206 26.7207L40.5002 26.7275L40.3665 26.3219C40.3665 26.3219 40.3551 26.3105 40.3483 26.3128C40.3415 26.3151 40.337 26.3241 40.3393 26.3309L40.3869 26.4737L40.0968 26.6867C40.0968 26.6867 40.09 26.6981 40.0923 26.7026C40.0923 26.7026 40.0923 26.7049 40.0923 26.7071C40.0968 26.7139 40.1059 26.7162 40.1127 26.7094L40.3959 26.5009L40.473 26.7343L40.1648 26.834C40.1648 26.834 40.1534 26.8454 40.1557 26.8522C40.158 26.859 40.167 26.8635 40.1738 26.8612L40.4821 26.7615L40.5523 26.9745L40.2101 26.9927C40.2101 26.9927 40.1965 26.9995 40.1965 27.0085C40.1965 27.0085 40.1965 27.0108 40.1965 27.0131C40.1965 27.0199 40.2056 27.0244 40.2124 27.0244L40.5636 27.0063L40.6158 27.1672C40.6158 27.1672 40.6271 27.1785 40.6339 27.1762C40.643 27.174 40.6475 27.1649 40.643 27.1581V27.1559Z" fill="#DBD7D1"/>
<path d="M40.1742 27.1512C40.1696 26.9178 40.0949 26.741 40.011 26.6141C39.7866 26.2923 39.3719 26.1382 38.9799 26.2651C38.4994 26.4215 38.2343 26.9382 38.3906 27.4186C38.547 27.8991 39.0637 28.1642 39.5442 28.0079C39.9249 27.8855 40.1696 27.5319 40.1764 27.1535L40.1742 27.1512ZM38.6037 27.3461C38.4881 26.9858 38.6852 26.596 39.0456 26.4804C39.4059 26.3625 39.7957 26.562 39.9113 26.9223C40.0291 27.2826 39.8297 27.6724 39.4694 27.788C39.109 27.9036 38.7192 27.7064 38.6037 27.3461Z" fill="#DBD7D1"/>
<path d="M39.0481 26.4773C38.6878 26.5951 38.4883 26.9826 38.6062 27.343C38.7218 27.7033 39.1115 27.9027 39.4719 27.7849C39.8322 27.6671 40.0317 27.2795 39.9138 26.9192C39.7982 26.5589 39.4084 26.3594 39.0481 26.4773Z" fill="url(#paint1_linear_2805_58755)"/>
<path d="M40.7386 26.6673C40.7046 26.5767 40.6819 26.4973 40.6479 26.4067C40.6479 26.3999 40.6388 26.3704 40.6343 26.3682L40.3329 26.248L40.0496 26.5812L40.0156 26.622C40.0949 26.7444 40.1629 26.9121 40.172 27.1274L40.2219 27.1387L40.657 27.2475L40.8292 26.9733C40.8292 26.9733 40.7363 26.6673 40.7386 26.665V26.6673ZM40.7816 26.9733L40.5278 26.7489L40.5142 26.7534L40.6456 27.1546C40.6456 27.1546 40.6456 27.1704 40.6366 27.1727C40.6298 27.175 40.6207 27.1727 40.6184 27.1636L40.5663 27.0027L40.2151 27.0208C40.2151 27.0208 40.2015 27.0163 40.1992 27.0095C40.1992 27.0095 40.1992 27.0072 40.1992 27.005C40.1992 26.9959 40.206 26.9891 40.2128 26.9891L40.555 26.971L40.4847 26.758L40.1765 26.8577C40.1765 26.8577 40.1607 26.8577 40.1584 26.8486C40.1561 26.8395 40.1584 26.8327 40.1675 26.8305L40.4757 26.7308L40.3986 26.4973L40.1153 26.7058C40.1153 26.7058 40.0995 26.7081 40.0949 26.7036C40.0949 26.7036 40.0949 26.7013 40.0949 26.699C40.0949 26.6922 40.0949 26.6854 40.0995 26.6832L40.3896 26.4701L40.342 26.3274C40.342 26.3274 40.342 26.3115 40.351 26.3092C40.3578 26.307 40.3669 26.3092 40.3692 26.3183L40.5029 26.724L40.5233 26.7172L40.5958 26.3976C40.5958 26.3976 40.6071 26.384 40.6139 26.3863C40.623 26.3863 40.6275 26.3954 40.6252 26.4044L40.5573 26.7081L40.7068 26.6605C40.7068 26.6605 40.7227 26.6605 40.725 26.6696C40.725 26.6764 40.725 26.6854 40.7159 26.6877L40.5595 26.7376L40.802 26.9506C40.802 26.9506 40.8088 26.9665 40.802 26.971C40.7952 26.9778 40.7862 26.9778 40.7816 26.971V26.9733Z" fill="url(#paint2_linear_2805_58755)"/>
<path d="M40.8003 26.9502L40.5578 26.7372L40.7142 26.6874C40.7142 26.6874 40.7255 26.676 40.7233 26.6692C40.721 26.6602 40.7119 26.6579 40.7051 26.6602L40.5556 26.7078L40.6235 26.4041C40.6235 26.4041 40.619 26.3882 40.6122 26.3859C40.6054 26.3859 40.5963 26.3882 40.5941 26.3973L40.5216 26.7168L40.5012 26.7236L40.3675 26.318C40.3675 26.318 40.3561 26.3066 40.3493 26.3089C40.3425 26.3112 40.338 26.3202 40.3403 26.327L40.3879 26.4698L40.0978 26.6828C40.0978 26.6828 40.091 26.6942 40.0932 26.6987C40.0932 26.6987 40.0932 26.701 40.0932 26.7032C40.0978 26.71 40.1068 26.7123 40.1136 26.7055L40.3969 26.497L40.474 26.7304L40.1658 26.8301C40.1658 26.8301 40.1544 26.8415 40.1567 26.8483C40.159 26.8551 40.168 26.8596 40.1748 26.8573L40.483 26.7576L40.5533 26.9706L40.2111 26.9888C40.2111 26.9888 40.1975 26.9956 40.1975 27.0046C40.1975 27.0046 40.1975 27.0069 40.1975 27.0092C40.1975 27.016 40.2065 27.0205 40.2133 27.0205L40.5646 27.0024L40.6167 27.1633C40.6167 27.1633 40.6281 27.1746 40.6349 27.1723C40.6439 27.1701 40.6485 27.161 40.6439 27.1542L40.5125 26.7531L40.5261 26.7485L40.7799 26.9729C40.7799 26.9729 40.7958 26.9774 40.8003 26.9729C40.8048 26.9661 40.8048 26.957 40.8003 26.9525V26.9502Z" fill="url(#paint3_linear_2805_58755)"/>
<path d="M40.0091 26.6102C39.7847 26.2884 39.37 26.1343 38.9779 26.2612C38.4975 26.4176 38.2323 26.9343 38.3887 27.4147C38.545 27.8952 39.0618 28.1603 39.5422 28.0039C39.9229 27.8816 40.1677 27.528 40.1745 27.1496C40.1745 27.1428 40.1745 27.136 40.1745 27.1269C40.1654 26.9116 40.0974 26.7439 40.0181 26.6215C40.0181 26.617 40.0136 26.6147 40.0113 26.6102H40.0091ZM39.4719 27.7864C39.1116 27.902 38.7218 27.7048 38.6062 27.3445C38.4907 26.9841 38.6878 26.5943 39.0482 26.4787C39.4085 26.3609 39.7983 26.5603 39.9139 26.9207C40.0317 27.281 39.8323 27.6708 39.4719 27.7864Z" fill="url(#paint4_linear_2805_58755)"/>
<path d="M34.5023 23.4681C34.5023 23.4681 34.7901 22.2533 36.3447 22.0131C37.8994 21.7706 39.4133 22.9899 39.0212 24.787C38.6291 26.5842 36.4241 27.6063 35.7782 27.5496C35.8756 26.8584 35.9074 26.6 35.9074 26.6C35.9074 26.6 37.0382 26.489 37.6342 25.4329C37.9583 24.8595 38.1351 24.0528 37.6909 23.5134C37.317 23.0601 36.5804 22.931 36.0501 23.1984C35.7283 23.3593 35.3453 23.7038 35.1617 24.0188L34.5 23.4681H34.5023Z" fill="#BA7516"/>
<path d="M38.1827 23.7627C37.5685 22.5865 36.3425 22.7406 35.5244 23.2006C35.3884 23.1462 35.1527 22.8131 35.0303 22.625C34.6065 23.0284 34.5 23.4703 34.5 23.4703L35.1617 24.021C35.3431 23.7083 35.7261 23.3638 36.0501 23.2006C36.5804 22.9332 37.3147 23.0624 37.6909 23.5156C38.1351 24.055 37.9583 24.8595 37.6342 25.4352C37.0382 26.4913 35.9074 26.6023 35.9074 26.6023C35.9074 26.6023 35.8756 26.8607 35.7782 27.5519C35.8824 27.5609 36.0275 27.5428 36.1974 27.4952C36.2632 27.2527 36.3878 26.8493 36.5192 26.7269C38.4478 25.859 38.4365 24.3496 38.1804 23.7627H38.1827Z" fill="#A56213"/>
<path d="M31.7735 22.8845C31.7735 22.8845 31.5718 22.0664 30.2415 22.0415C28.9112 22.0143 28.2268 23.1724 28.3378 24.1967C28.4489 25.2211 29.1174 26.2409 29.8087 26.361L30.1645 26.1729C30.1645 26.1729 29.5412 25.6652 29.3214 25.0534C29.1016 24.4415 28.9951 23.5689 29.471 23.1837C29.9469 22.7984 31.1095 22.701 31.3316 23.748L31.7758 22.8823L31.7735 22.8845Z" fill="#BA7516"/>
<path d="M30.2393 22.0413C30.0059 22.0368 29.7906 22.0685 29.5979 22.1297C29.6478 22.3201 29.5685 22.7189 29.5073 22.8413C28.9453 23.2878 28.7413 23.9677 29.0722 24.8356C28.9317 25.0011 28.8048 25.1416 28.5781 25.1099C28.8569 25.7625 29.326 26.2792 29.8064 26.3608L30.1622 26.1727C30.1622 26.1727 29.539 25.6651 29.3192 25.0532C29.0994 24.4413 28.9929 23.5688 29.4688 23.1835C29.9447 22.7983 31.1073 22.7008 31.3294 23.7478L31.7736 22.8821C31.7736 22.8821 31.5719 22.064 30.2416 22.0391L30.2393 22.0413Z" fill="#A56213"/>
<path d="M30.6897 29.001C30.6897 29.001 29.7084 29.2934 29.3458 29.9823C29.1623 30.4582 30.6059 30.9931 32.5163 30.8911C34.4268 30.7914 34.8732 29.9801 34.8642 29.7761C34.7667 29.5767 34.5016 29.2073 34.1276 29.0192C33.058 28.9648 30.692 28.9988 30.692 28.9988L30.6897 29.001Z" fill="#BA7516"/>
<path d="M29.3756 29.9364C29.3756 29.9364 29.4686 30.4146 30.7377 30.6639C32.0068 30.9132 34.4204 30.7863 34.8419 29.7438L34.6606 29.4628C34.6606 29.4628 34.8328 29.3676 35.073 29.5466C35.3155 29.7257 35.5331 30.3602 34.3569 30.8656C33.1807 31.371 31.3586 31.4843 30.1145 31.1443C28.8703 30.8067 28.7706 30.197 28.9768 29.8798C29.183 29.5625 29.5751 29.6713 29.5751 29.6713L29.3779 29.9342L29.3756 29.9364Z" fill="#93560C"/>
<path d="M35.8503 24.8672C35.1885 23.0315 34.4271 22.3358 34.3795 21.7171C34.3364 21.1755 34.8667 20.6406 35.2271 20.1035C34.7489 20.4321 34.0849 20.7313 33.3257 20.9375C32.7025 21.1052 32.1042 21.1868 31.5897 21.1868C31.5444 21.1868 31.4991 21.1868 31.456 21.1868C31.9025 21.6468 32.043 22.5556 31.1455 23.2831C30.1937 24.0559 28.4215 25.6581 29.0764 27.3646C29.7314 29.0734 30.8532 29.2162 31.4809 29.3363C32.1087 29.4587 34.3387 29.4655 35.2021 28.6315C36.0656 27.7998 36.5098 26.7074 35.848 24.8695L35.8503 24.8672Z" fill="#ECB13E"/>
<path d="M35.8504 24.8672C35.1887 23.0315 34.4272 22.3358 34.3796 21.7171C34.3366 21.1755 34.8669 20.6406 35.2272 20.1035C34.749 20.4321 34.085 20.7313 33.3258 20.9375C32.7026 21.1052 32.1043 21.1868 31.5899 21.1868C31.5445 21.1868 31.4992 21.1868 31.4561 21.1868C31.5015 21.2344 31.5445 21.2865 31.5831 21.3432C31.8391 21.4044 32.4941 21.4927 33.838 21.3137C34.119 21.2888 33.8516 21.5313 34.2595 22.3743C34.6697 23.2174 35.6261 24.3936 35.7167 25.8122C35.8051 27.2309 35.3723 28.6995 33.3394 28.9805C31.8029 29.1935 29.9785 29.0439 29.208 27.6683C29.8743 29.0915 30.8964 29.223 31.4856 29.3386C32.1134 29.4609 34.3434 29.4677 35.2068 28.6337C36.0703 27.802 36.5144 26.7097 35.8527 24.8717L35.8504 24.8672Z" fill="#D19028"/>
<path d="M30.4088 29.2245C30.4088 29.2245 29.8174 29.4035 29.5137 29.9406C29.6315 30.0856 30.5516 30.7837 32.5029 30.2783C33.2734 30.0788 32.5799 29.68 31.7323 29.5689C30.9482 29.467 30.5403 29.1973 30.5403 29.1973L30.4088 29.2245Z" fill="#D19028"/>
<path d="M35.705 26.6411C35.705 27.4864 35.0319 28.1708 34.2047 28.1708C33.3775 28.1708 32.7021 27.4864 32.7021 26.6411C32.7021 25.7957 33.3752 25.1113 34.2047 25.1113C35.0341 25.1113 35.705 25.7957 35.705 26.6411Z" fill="#D19028"/>
<path d="M33.5731 18.7148C33.326 18.7148 33.0677 18.7284 32.8025 18.7556C31.0938 18.9301 29.7635 19.6236 29.8337 20.308C29.8926 20.8859 30.9329 21.2689 32.2835 21.2689C32.5306 21.2689 32.7889 21.2553 33.0541 21.2281C34.7628 21.0536 36.0931 20.3602 36.0229 19.6757C35.964 19.0978 34.9237 18.7148 33.5731 18.7148Z" fill="#D18933"/>
<path d="M36.0244 19.6745C36.0176 19.6156 36.0018 19.5567 35.9746 19.5C35.9361 20.155 34.6466 20.8031 33.0035 20.9708C32.7384 20.998 32.48 21.0116 32.233 21.0116C31.0205 21.0116 30.0619 20.7034 29.833 20.2252C29.833 20.2524 29.833 20.2796 29.833 20.3068C29.8919 20.8847 30.9321 21.2677 32.2828 21.2677C32.5299 21.2677 32.7882 21.2541 33.0534 21.2269C34.7621 21.0524 36.0924 20.3589 36.0222 19.6745H36.0244Z" fill="#BA7516"/>
<path d="M33.5723 19.3438C34.0278 19.3438 34.4448 19.3936 34.7802 19.4843C34.9049 19.5183 35.0023 19.5545 35.0748 19.5885C34.7802 19.7993 34.0913 20.1188 32.9718 20.2344C32.7383 20.2571 32.5072 20.2707 32.2828 20.2707C31.8273 20.2707 31.4103 20.2231 31.0749 20.1301C30.9502 20.0962 30.8528 20.0599 30.7803 20.0259C31.0749 19.8151 31.7638 19.4933 32.8834 19.38C33.1168 19.3573 33.348 19.3438 33.5723 19.3438Z" fill="#93560C"/>
<path d="M33.7876 24.0283C33.3797 24.0283 33.0466 23.9445 32.8449 23.847C31.3831 23.2669 30.8483 21.7598 30.9299 21.3383C30.8687 20.3932 31.3741 19.9695 31.3945 19.9513C31.4307 19.9219 31.4829 19.9264 31.51 19.9627C31.5395 19.9989 31.5327 20.0488 31.4987 20.0782C31.4806 20.0941 31.0341 20.4748 31.0931 21.3383V21.3496V21.3609C31.0092 21.719 31.5372 23.1513 32.9083 23.6929H32.9151C33.5316 23.9921 34.8936 23.9762 35.8613 22.9972C36.8222 22.025 36.8108 21.2884 36.4822 20.4159C36.2171 19.8516 35.5825 19.7088 35.3128 19.6454C35.2675 19.6363 35.2403 19.591 35.2517 19.5457C35.2607 19.5003 35.306 19.4731 35.3514 19.4822C35.6211 19.5434 36.3349 19.7066 36.6341 20.3457V20.3525C36.9899 21.2862 37.0035 22.0725 35.9791 23.1105C35.3831 23.7133 34.7078 23.9218 34.2432 23.9921C34.0845 24.0147 33.9327 24.0261 33.7876 24.0261V24.0283Z" fill="#D1D3D4"/>
<path d="M33.5996 25.0766H34.3316L34.148 24.2676H33.7356L33.5996 25.0766Z" fill="#D1D3D4"/>
<path d="M31.6483 20.3476C31.6483 20.5493 31.4852 20.7147 31.2812 20.7147C31.0772 20.7147 30.9141 20.5516 30.9141 20.3476C30.9141 20.1436 31.0795 19.9805 31.2812 19.9805C31.4829 19.9805 31.6483 20.1459 31.6483 20.3476Z" fill="#E6E7E8"/>
<path d="M31.3134 21.2949C31.3134 21.4966 31.1479 21.662 30.9462 21.662C30.7445 21.662 30.5791 21.4988 30.5791 21.2949C30.5791 21.0909 30.7423 20.9277 30.9462 20.9277C31.1502 20.9277 31.3134 21.0909 31.3134 21.2949Z" fill="#E6E7E8"/>
<path d="M31.5878 22.3164C31.5878 22.5181 31.4223 22.6835 31.2206 22.6835C31.019 22.6835 30.8535 22.5181 30.8535 22.3164C30.8535 22.1147 31.0167 21.9492 31.2206 21.9492C31.4246 21.9492 31.5878 22.1124 31.5878 22.3164Z" fill="#E6E7E8"/>
<path d="M32.3192 23.1269C32.3192 23.3286 32.1561 23.494 31.9521 23.494C31.7481 23.494 31.585 23.3309 31.585 23.1269C31.585 22.9229 31.7481 22.7598 31.9521 22.7598C32.1561 22.7598 32.3192 22.9229 32.3192 23.1269Z" fill="#E6E7E8"/>
<path d="M33.206 23.7675C33.206 23.9692 33.0428 24.1347 32.8388 24.1347C32.6348 24.1347 32.4717 23.9715 32.4717 23.7675C32.4717 23.5636 32.6371 23.4004 32.8388 23.4004C33.0405 23.4004 33.206 23.5636 33.206 23.7675Z" fill="#E6E7E8"/>
<path d="M36.1133 20.2988C36.1133 20.5005 36.2765 20.6659 36.4804 20.6659C36.6844 20.6659 36.8475 20.5027 36.8475 20.2988C36.8475 20.0948 36.6844 19.9316 36.4804 19.9316C36.2765 19.9316 36.1133 20.0948 36.1133 20.2988Z" fill="#E6E7E8"/>
<path d="M35.1064 19.5976C35.1064 19.7993 35.2696 19.9647 35.4736 19.9647C35.6775 19.9647 35.8407 19.8016 35.8407 19.5976C35.8407 19.3936 35.6753 19.2305 35.4736 19.2305C35.2719 19.2305 35.1064 19.3936 35.1064 19.5976Z" fill="#E6E7E8"/>
<path d="M36.5029 21.2949C36.5029 21.4966 36.6661 21.662 36.8701 21.662C37.074 21.662 37.2372 21.4988 37.2372 21.2949C37.2372 21.0909 37.0718 20.9277 36.8701 20.9277C36.6684 20.9277 36.5029 21.0909 36.5029 21.2949Z" fill="#E6E7E8"/>
<path d="M36.2285 22.3164C36.2285 22.5181 36.3917 22.6835 36.5956 22.6835C36.7996 22.6835 36.9628 22.5181 36.9628 22.3164C36.9628 22.1147 36.7996 21.9492 36.5956 21.9492C36.3917 21.9492 36.2285 22.1124 36.2285 22.3164Z" fill="#E6E7E8"/>
<path d="M35.4961 23.1269C35.4961 23.3286 35.6615 23.494 35.8632 23.494C36.0649 23.494 36.2304 23.3309 36.2304 23.1269C36.2304 22.9229 36.0672 22.7598 35.8632 22.7598C35.6593 22.7598 35.4961 22.9229 35.4961 23.1269Z" fill="#E6E7E8"/>
<path d="M34.6104 23.7675C34.6104 23.9692 34.7735 24.1347 34.9775 24.1347C35.1814 24.1347 35.3446 23.9715 35.3446 23.7675C35.3446 23.5636 35.1792 23.4004 34.9775 23.4004C34.7758 23.4004 34.6104 23.5636 34.6104 23.7675Z" fill="#E6E7E8"/>
<path d="M34.3212 23.9511C34.3212 24.1528 34.158 24.3183 33.9541 24.3183C33.7501 24.3183 33.5869 24.1551 33.5869 23.9511C33.5869 23.7472 33.7501 23.584 33.9541 23.584C34.158 23.584 34.3212 23.7472 34.3212 23.9511Z" fill="#E6E7E8"/>
<path d="M33.997 24.9414C33.163 24.9414 32.4854 25.619 32.4854 26.453C32.4854 27.287 33.163 27.9646 33.997 27.9646C34.8309 27.9646 35.5085 27.287 35.5085 26.453C35.5085 25.619 34.8309 24.9414 33.997 24.9414ZM33.997 27.1895C33.589 27.1895 33.2581 26.8587 33.2581 26.4507C33.2581 26.0428 33.589 25.7119 33.997 25.7119C34.4049 25.7119 34.7358 26.0428 34.7358 26.4507C34.7358 26.8587 34.4049 27.1895 33.997 27.1895Z" fill="#E6E7E8"/>
<path d="M34.7892 25.416C34.907 25.416 35.0022 25.5112 35.0022 25.629C35.0022 25.7469 34.907 25.8443 34.7892 25.8443C34.6714 25.8443 34.5762 25.7492 34.5762 25.629C34.5762 25.5089 34.6714 25.416 34.7892 25.416Z" fill="#D30B23"/>
<path d="M34.0099 25.0938C34.1278 25.0938 34.2229 25.1889 34.2229 25.3068C34.2229 25.4246 34.1278 25.5198 34.0099 25.5198C33.8921 25.5198 33.7969 25.4246 33.7969 25.3068C33.7969 25.1889 33.8921 25.0938 34.0099 25.0938Z" fill="#63A70A"/>
<path d="M33.172 25.416C33.2899 25.416 33.385 25.5112 33.385 25.629C33.385 25.7469 33.2899 25.8443 33.172 25.8443C33.0542 25.8443 32.959 25.7492 32.959 25.629C32.959 25.5089 33.0542 25.416 33.172 25.416Z" fill="#D30B23"/>
<path d="M32.8497 26.6373C32.7319 26.6373 32.6367 26.5421 32.6367 26.422C32.6367 26.3019 32.7319 26.209 32.8497 26.209C32.9676 26.209 33.0628 26.3042 33.0628 26.422C33.0628 26.5399 32.9676 26.6373 32.8497 26.6373Z" fill="#668AC4"/>
<path d="M33.2013 27.4456C33.0835 27.4456 32.9883 27.3504 32.9883 27.2326C32.9883 27.1147 33.0835 27.0195 33.2013 27.0195C33.3192 27.0195 33.4143 27.1147 33.4143 27.2326C33.4143 27.3504 33.3192 27.4456 33.2013 27.4456Z" fill="#D30B23"/>
<path d="M34.0255 27.7952C33.9077 27.7952 33.8125 27.7 33.8125 27.5822C33.8125 27.4643 33.9077 27.3691 34.0255 27.3691C34.1434 27.3691 34.2386 27.4643 34.2386 27.5822C34.2386 27.7 34.1434 27.7952 34.0255 27.7952Z" fill="#63A70A"/>
<path d="M34.7599 27.4456C34.6421 27.4456 34.5469 27.3504 34.5469 27.2326C34.5469 27.1147 34.6421 27.0195 34.7599 27.0195C34.8778 27.0195 34.9729 27.1147 34.9729 27.2326C34.9729 27.3504 34.8778 27.4456 34.7599 27.4456Z" fill="#D30B23"/>
<path d="M35.1115 26.7112C34.9936 26.7112 34.8984 26.616 34.8984 26.4982C34.8984 26.3803 34.9936 26.2852 35.1115 26.2852C35.2293 26.2852 35.3245 26.3803 35.3245 26.4982C35.3245 26.616 35.2293 26.7112 35.1115 26.7112Z" fill="#668AC4"/>
<path d="M31.1226 19.7459C31.1226 19.9635 30.9459 20.1402 30.7283 20.1402C30.5108 20.1402 30.334 19.9635 30.334 19.7459C30.334 19.5283 30.5108 19.3516 30.7283 19.3516C30.9459 19.3516 31.1226 19.5283 31.1226 19.7459Z" fill="#FDEB8D"/>
<path d="M30.6402 20.285C30.6402 20.5025 30.4635 20.6793 30.2459 20.6793C30.0283 20.6793 29.8516 20.5025 29.8516 20.285C29.8516 20.0674 30.0283 19.8906 30.2459 19.8906C30.4635 19.8906 30.6402 20.0674 30.6402 20.285Z" fill="#FDEB8D"/>
<path d="M30.4361 21.0174C30.4361 21.2349 30.2594 21.4117 30.0418 21.4117C29.8242 21.4117 29.6475 21.2349 29.6475 21.0174C29.6475 20.7998 29.8242 20.623 30.0418 20.623C30.2594 20.623 30.4361 20.7998 30.4361 21.0174Z" fill="#FDEB8D"/>
<path d="M30.4361 21.8064C30.4361 22.024 30.2594 22.2008 30.0418 22.2008C29.8242 22.2008 29.6475 22.024 29.6475 21.8064C29.6475 21.5889 29.8242 21.4121 30.0418 21.4121C30.2594 21.4121 30.4361 21.5889 30.4361 21.8064Z" fill="#FDEB8D"/>
<path d="M30.4654 22.5643C30.4654 22.7818 30.2887 22.9586 30.0711 22.9586C29.8535 22.9586 29.6768 22.7818 29.6768 22.5643C29.6768 22.3467 29.8535 22.1699 30.0711 22.1699C30.2887 22.1699 30.4654 22.3467 30.4654 22.5643Z" fill="#FDEB8D"/>
<path d="M30.5514 23.3553C30.5514 23.5728 30.3746 23.7496 30.157 23.7496C29.9395 23.7496 29.7627 23.5728 29.7627 23.3553C29.7627 23.1377 29.9395 22.9609 30.157 22.9609C30.3746 22.9609 30.5514 23.1377 30.5514 23.3553Z" fill="#FDEB8D"/>
<path d="M30.3775 24.115C30.3775 24.3326 30.2008 24.5094 29.9832 24.5094C29.7656 24.5094 29.5889 24.3326 29.5889 24.115C29.5889 23.8975 29.7656 23.7207 29.9832 23.7207C30.2008 23.7207 30.3775 23.8975 30.3775 24.115Z" fill="#FDEB8D"/>
<path d="M30.1412 24.8377C30.1412 25.0553 29.9644 25.232 29.7469 25.232C29.5293 25.232 29.3525 25.0553 29.3525 24.8377C29.3525 24.6201 29.5293 24.4434 29.7469 24.4434C29.9644 24.4434 30.1412 24.6201 30.1412 24.8377Z" fill="#FDEB8D"/>
<path d="M29.65 25.4607C29.65 25.6783 29.4732 25.8551 29.2557 25.8551C29.0381 25.8551 28.8613 25.6783 28.8613 25.4607C28.8613 25.2432 29.0381 25.0664 29.2557 25.0664C29.4732 25.0664 29.65 25.2432 29.65 25.4607Z" fill="#FDEB8D"/>
<path d="M29.1969 26.0818C29.1969 26.2994 29.0201 26.4762 28.8025 26.4762C28.585 26.4762 28.4082 26.2994 28.4082 26.0818C28.4082 25.8643 28.585 25.6875 28.8025 25.6875C29.0201 25.6875 29.1969 25.8643 29.1969 26.0818Z" fill="#FDEB8D"/>
<path d="M28.9517 26.8182C28.9517 27.0357 28.775 27.2125 28.5574 27.2125C28.3399 27.2125 28.1631 27.0357 28.1631 26.8182C28.1631 26.6006 28.3399 26.4238 28.5574 26.4238C28.775 26.4238 28.9517 26.6006 28.9517 26.8182Z" fill="#FDEB8D"/>
<path d="M28.9703 27.5935C28.9703 27.8111 28.7935 27.9879 28.576 27.9879C28.3584 27.9879 28.1816 27.8111 28.1816 27.5935C28.1816 27.376 28.3584 27.1992 28.576 27.1992C28.7935 27.1992 28.9703 27.376 28.9703 27.5935Z" fill="#FDEB8D"/>
<path d="M32.8222 19.2357C32.94 19.7252 32.6386 20.217 32.1491 20.3349C31.6596 20.4527 31.1678 20.1513 31.0499 19.6618C30.9321 19.1723 31.2335 18.6805 31.723 18.5626C32.2125 18.4448 32.7043 18.7462 32.8222 19.2357Z" fill="#ECB13E"/>
<path d="M31.7547 18.6921C32.1717 18.5924 32.591 18.8485 32.693 19.2655C32.7927 19.6825 32.5343 20.1017 32.1196 20.2037C31.7026 20.3034 31.2834 20.0451 31.1814 19.6304C31.0817 19.2134 31.3378 18.7941 31.7547 18.6921ZM31.723 18.5607C31.2335 18.6785 30.9321 19.1703 31.0499 19.6598C31.1678 20.1493 31.6596 20.4507 32.1491 20.3329C32.6386 20.2151 32.94 19.7233 32.8222 19.2338C32.7043 18.7442 32.2125 18.4428 31.723 18.5607Z" fill="#E6E7E8"/>
<path d="M32.0289 19.9492L31.9972 19.82C31.9224 19.8359 31.8408 19.8314 31.7864 19.811L31.7955 19.7181C31.8499 19.7384 31.9224 19.7452 31.9949 19.7294C32.0856 19.7067 32.1354 19.641 32.1173 19.5662C32.1014 19.496 32.0402 19.4642 31.936 19.4484C31.7932 19.428 31.698 19.3894 31.6708 19.2761C31.6459 19.1696 31.7026 19.0699 31.8159 19.0223L31.7842 18.8931L31.8635 18.875L31.8929 18.9996C31.97 18.9838 32.0289 18.9906 32.072 19.0042L32.0606 19.0971C32.0312 19.088 31.97 19.0722 31.8884 19.0926C31.7887 19.1175 31.766 19.1855 31.7796 19.2353C31.7955 19.3033 31.8521 19.3237 31.9745 19.3441C32.1196 19.3668 32.2034 19.4166 32.2306 19.5322C32.2555 19.6342 32.2079 19.7452 32.0788 19.7996L32.1105 19.9333L32.0289 19.9515V19.9492Z" fill="#BA7516"/>
<path d="M35.1864 18.8802C35.0686 18.3907 34.5768 18.0893 34.0873 18.2072C33.5978 18.325 33.2964 18.8168 33.4142 19.3063C33.5094 19.7006 33.8471 19.9726 34.2301 20.002C34.5224 19.8978 34.8034 19.7709 35.0595 19.5964C35.1955 19.3924 35.2476 19.1341 35.1864 18.878V18.8802Z" fill="#ECB13E"/>
<path d="M35.1864 18.8802C35.0686 18.3907 34.5768 18.0893 34.0873 18.2072C33.5978 18.325 33.2964 18.8168 33.4142 19.3063C33.5094 19.7006 33.8471 19.9726 34.2301 20.002C34.5224 19.8978 34.8034 19.7709 35.0595 19.5964C35.1955 19.3924 35.2476 19.1341 35.1864 18.878V18.8802ZM34.4816 19.8479C34.0646 19.9477 33.6454 19.6916 33.5434 19.2746C33.4437 18.8576 33.6997 18.4361 34.1167 18.3363C34.5337 18.2366 34.953 18.4927 35.055 18.9097C35.1547 19.3267 34.8986 19.746 34.4816 19.8479Z" fill="#E6E7E8"/>
<path d="M34.3006 19.0935C34.4048 19.1094 34.466 19.1411 34.4819 19.2114C34.5 19.2839 34.4501 19.3519 34.3595 19.3745C34.287 19.3927 34.2144 19.3836 34.1601 19.3632L34.1487 19.4561C34.2009 19.4765 34.2847 19.4811 34.3595 19.4652L34.3912 19.5944L34.4728 19.574L34.4411 19.4403C34.568 19.3859 34.6156 19.2748 34.5929 19.1728C34.5657 19.0595 34.4819 19.0074 34.3368 18.9847C34.2144 18.9643 34.1578 18.9439 34.1419 18.876C34.1306 18.8238 34.1533 18.7558 34.2507 18.7332C34.3323 18.7128 34.3935 18.7287 34.4229 18.7377L34.4343 18.6448C34.3912 18.6312 34.3346 18.6244 34.2552 18.6403L34.2258 18.5156L34.1465 18.5338L34.1782 18.6629C34.0649 18.7105 34.0082 18.8102 34.0331 18.9168C34.0603 19.0301 34.1555 19.0686 34.2983 19.089L34.3006 19.0935Z" fill="#BA7516"/>
<path d="M34.7956 18.2856L34.8727 18.263L35.4053 18.1066L35.4189 17.7055C35.4189 17.7055 35.1288 17.4358 35.131 17.4335C35.0381 17.3587 34.9633 17.2885 34.8727 17.2114C34.8659 17.2069 34.841 17.1797 34.8342 17.1797L34.4376 17.2386L34.3447 17.7712L34.3311 17.8505C34.4308 17.9004 34.6665 18.0386 34.8002 18.2834L34.7956 18.2856Z" fill="white"/>
<path d="M35.3328 18.016L34.9407 17.6692L34.9521 17.6556L35.3645 17.7372C35.3645 17.7372 35.3849 17.7327 35.3872 17.7236C35.3872 17.7145 35.3826 17.7032 35.3736 17.701L34.9815 17.6239L35.1175 17.4721C35.1175 17.4721 35.1243 17.4539 35.1175 17.4471C35.1107 17.4403 35.0994 17.4403 35.0926 17.4471L34.9634 17.5922L34.8455 17.225C34.8455 17.225 34.8319 17.2092 34.8229 17.2137C34.8138 17.216 34.807 17.2273 34.8115 17.2364L34.9339 17.6239L34.9158 17.6443L34.5192 17.293C34.5192 17.293 34.5011 17.2862 34.4943 17.293C34.4875 17.2998 34.4875 17.3112 34.4943 17.318L34.6348 17.4403L34.458 17.8505C34.458 17.8505 34.458 17.8664 34.4625 17.8709C34.4625 17.8709 34.4648 17.8709 34.4671 17.8732C34.4761 17.8777 34.4875 17.8732 34.492 17.8641L34.6642 17.4653L34.8931 17.667L34.6257 17.9661C34.6257 17.9661 34.6189 17.9842 34.6257 17.9933C34.6325 18.0001 34.6438 18.0001 34.6529 17.9933L34.9203 17.6942L35.1288 17.8777L34.773 18.1111C34.773 18.1111 34.7617 18.1293 34.7685 18.1361C34.7685 18.1361 34.7685 18.1383 34.7708 18.1406C34.7775 18.1451 34.7866 18.1474 34.7934 18.1406L35.156 17.9004L35.3124 18.0386C35.3124 18.0386 35.3328 18.0454 35.3396 18.0386C35.3464 18.0318 35.3464 18.0205 35.3396 18.0137L35.3328 18.016Z" fill="#DBD7D1"/>
<path d="M34.8255 18.3028C34.676 18.058 34.4833 17.913 34.3134 17.8314C33.8714 17.6274 33.3321 17.7226 32.9921 18.1034C32.5774 18.5702 32.6159 19.2886 33.0828 19.7033C33.5496 20.1203 34.2658 20.0795 34.6828 19.6127C35.0136 19.2433 35.0544 18.7153 34.8233 18.3051L34.8255 18.3028ZM33.2731 19.4926C32.9219 19.1798 32.8924 18.6405 33.2051 18.2915C33.5179 17.9402 34.0573 17.9107 34.4085 18.2235C34.7575 18.5362 34.7893 19.0756 34.4765 19.4246C34.1638 19.7759 33.6244 19.8053 33.2754 19.4926H33.2731Z" fill="#B2B2CD"/>
<path d="M34.2275 19.9866C34.325 19.6626 34.2366 19.2977 33.9714 19.0529C33.5998 18.713 33.0241 18.7357 32.6819 19.1073C32.385 19.4314 32.3646 19.9096 32.6117 20.2541C33.1578 20.2745 33.7017 20.1702 34.2275 19.9866Z" fill="#ECB13E"/>
<path d="M32.7884 20.2566C32.5119 19.9643 32.5051 19.4997 32.7816 19.1983C33.0717 18.8833 33.5635 18.8606 33.8808 19.1507C34.1323 19.3819 34.1958 19.7422 34.0643 20.0391C34.1187 20.0209 34.1731 20.0028 34.2275 19.9847C34.325 19.6606 34.2366 19.2957 33.9714 19.051C33.5998 18.711 33.0241 18.7337 32.6819 19.1054C32.385 19.4295 32.3646 19.9076 32.6117 20.2521C32.6706 20.2521 32.7295 20.2544 32.7884 20.2544V20.2566Z" fill="#E6E7E8"/>
<path d="M32.9882 20.0826L33.0494 20.1392L33.1423 20.0372C33.2579 20.112 33.378 20.0894 33.4482 20.0123C33.5275 19.9262 33.523 19.8287 33.4618 19.695C33.4097 19.5817 33.3961 19.5228 33.4437 19.4729C33.48 19.4344 33.5479 19.4163 33.6227 19.4843C33.6862 19.5409 33.7043 19.5999 33.7156 19.6293L33.7995 19.5885C33.7859 19.5455 33.761 19.4933 33.7043 19.4389L33.7904 19.3438L33.7292 19.2871L33.6386 19.3846C33.5343 19.3166 33.421 19.3256 33.3485 19.4072C33.2715 19.4911 33.2896 19.5931 33.353 19.7222C33.3984 19.8174 33.4052 19.8854 33.3576 19.9398C33.3054 19.9965 33.2239 19.9919 33.1536 19.9285C33.0992 19.8786 33.0652 19.8129 33.0516 19.7585L32.9678 19.8016C32.9791 19.8582 33.0222 19.9285 33.0766 19.9829L32.9859 20.0803L32.9882 20.0826Z" fill="#BA7516"/>
<path d="M35.6149 19.4232C35.6149 19.4911 35.5605 19.5455 35.4925 19.5455C35.4245 19.5455 35.3701 19.4911 35.3701 19.4232C35.3701 19.3552 35.4245 19.3008 35.4925 19.3008C35.5605 19.3008 35.6149 19.3552 35.6149 19.4232Z" fill="white"/>
<path d="M36.7067 20.2239C36.7067 20.2897 36.6523 20.3463 36.5843 20.3463C36.5163 20.3463 36.4619 20.2919 36.4619 20.2239C36.4619 20.156 36.5163 20.1016 36.5843 20.1016C36.6523 20.1016 36.7067 20.156 36.7067 20.2239Z" fill="white"/>
<path d="M37.0514 21.2318C37.0514 21.2975 36.997 21.3541 36.929 21.3541C36.861 21.3541 36.8066 21.2997 36.8066 21.2318C36.8066 21.1638 36.861 21.1094 36.929 21.1094C36.997 21.1094 37.0514 21.1638 37.0514 21.2318Z" fill="white"/>
<path d="M36.7457 22.2806C36.7457 22.3486 36.6913 22.403 36.6234 22.403C36.5554 22.403 36.501 22.3486 36.501 22.2806C36.501 22.2126 36.5554 22.1582 36.6234 22.1582C36.6913 22.1582 36.7457 22.2126 36.7457 22.2806Z" fill="white"/>
<path d="M35.9703 23.0618C35.9703 23.1298 35.916 23.1842 35.848 23.1842C35.78 23.1842 35.7256 23.1298 35.7256 23.0618C35.7256 22.9938 35.78 22.9395 35.848 22.9395C35.916 22.9395 35.9703 22.9938 35.9703 23.0618Z" fill="white"/>
<path d="M35.1344 23.6475C35.1344 23.7154 35.08 23.7698 35.012 23.7698C34.944 23.7698 34.8896 23.7154 34.8896 23.6475C34.8896 23.5795 34.944 23.5273 35.012 23.5273C35.08 23.5273 35.1344 23.5817 35.1344 23.6475Z" fill="white"/>
<path d="M34.0485 23.8392C34.0485 23.9049 33.9941 23.9616 33.9261 23.9616C33.8581 23.9616 33.8037 23.9072 33.8037 23.8392C33.8037 23.7712 33.8581 23.7168 33.9261 23.7168C33.9941 23.7168 34.0485 23.7712 34.0485 23.8392Z" fill="white"/>
<path d="M32.886 23.6341C32.886 23.7021 32.8317 23.7565 32.7659 23.7565C32.7002 23.7565 32.6436 23.7021 32.6436 23.6341C32.6436 23.5661 32.6979 23.5117 32.7659 23.5117C32.8339 23.5117 32.886 23.5661 32.886 23.6341Z" fill="white"/>
<path d="M31.9547 23.0599C31.9547 23.1279 31.9003 23.1823 31.8323 23.1823C31.7644 23.1823 31.71 23.1279 31.71 23.0599C31.71 22.9919 31.7644 22.9375 31.8323 22.9375C31.9003 22.9375 31.9547 22.9919 31.9547 23.0599Z" fill="white"/>
<path d="M31.2242 22.2532C31.2242 22.3212 31.1699 22.3756 31.1019 22.3756C31.0339 22.3756 30.9795 22.3212 30.9795 22.2532C30.9795 22.1852 31.0339 22.1309 31.1019 22.1309C31.1699 22.1309 31.2242 22.1852 31.2242 22.2532Z" fill="white"/>
<path d="M30.9437 21.2454C30.9437 21.3134 30.8893 21.3678 30.8235 21.3678C30.7578 21.3678 30.7012 21.3134 30.7012 21.2454C30.7012 21.1774 30.7556 21.123 30.8235 21.123C30.8915 21.123 30.9437 21.1774 30.9437 21.2454Z" fill="white"/>
<path d="M31.2877 20.2864C31.2877 20.3544 31.2333 20.4088 31.1653 20.4088C31.0974 20.4088 31.043 20.3544 31.043 20.2864C31.043 20.2185 31.0974 20.1641 31.1653 20.1641C31.2333 20.1641 31.2877 20.2185 31.2877 20.2864Z" fill="white"/>
<path d="M30.7126 19.708C30.6446 19.7692 30.4882 19.8349 30.4338 19.7737C30.3794 19.7148 30.4474 19.5516 30.5154 19.4904C30.5834 19.4292 30.6809 19.4269 30.7352 19.4881C30.7896 19.5471 30.7806 19.6468 30.7126 19.708Z" fill="white"/>
<path d="M30.2272 20.2693C30.1592 20.3305 30.0029 20.3962 29.9485 20.335C29.8941 20.2761 29.9621 20.1129 30.0301 20.0518C30.0958 19.9906 30.1955 19.9906 30.2499 20.0518C30.3043 20.1107 30.2952 20.2104 30.2272 20.2716V20.2693Z" fill="white"/>
<path d="M30.0622 20.9861C29.9942 21.0473 29.8378 21.113 29.7834 21.0518C29.729 20.9929 29.797 20.8297 29.865 20.7685C29.9307 20.7074 30.0305 20.7074 30.0849 20.7685C30.1392 20.8275 30.1302 20.9272 30.0622 20.9884V20.9861Z" fill="white"/>
<path d="M30.0117 21.7832C29.9619 21.858 29.8236 21.96 29.7556 21.9146C29.6876 21.8693 29.7171 21.6948 29.767 21.62C29.8168 21.5452 29.912 21.5203 29.98 21.5656C30.048 21.611 30.0616 21.7084 30.0094 21.7832H30.0117Z" fill="white"/>
<path d="M30.0644 22.5508C30.0146 22.6256 29.8763 22.7275 29.8084 22.6822C29.7404 22.6369 29.7698 22.4624 29.8197 22.3876C29.8695 22.3128 29.9647 22.2879 30.0327 22.3332C30.1007 22.3785 30.1143 22.476 30.0622 22.5508H30.0644Z" fill="white"/>
<path d="M30.1202 23.3082C30.0908 23.3943 29.9843 23.5258 29.9072 23.5009C29.8302 23.4737 29.812 23.2992 29.8415 23.213C29.8709 23.1269 29.9571 23.0793 30.0341 23.1043C30.1112 23.1315 30.1497 23.2198 30.1202 23.3082Z" fill="white"/>
<path d="M29.9806 24.0758C29.9511 24.1619 29.8446 24.2956 29.7676 24.2684C29.6905 24.2412 29.6724 24.0667 29.7018 23.9806C29.7313 23.8945 29.8174 23.8469 29.8945 23.8718C29.9715 23.8968 30.01 23.9874 29.9806 24.0735V24.0758Z" fill="white"/>
<path d="M29.7399 24.8138C29.6878 24.8886 29.5473 24.9838 29.4815 24.9362C29.4158 24.8886 29.4498 24.7163 29.5019 24.6416C29.5541 24.5668 29.6515 24.5464 29.7172 24.594C29.783 24.6416 29.7943 24.739 29.7399 24.8138Z" fill="white"/>
<path d="M29.2523 25.4169C29.1821 25.4736 29.0212 25.5302 28.969 25.4668C28.9192 25.4033 28.9962 25.2469 29.0665 25.188C29.1367 25.1314 29.2364 25.1359 29.2863 25.1993C29.3384 25.2628 29.3226 25.3602 29.25 25.4169H29.2523Z" fill="white"/>
<path d="M28.8314 26.0419C28.7611 26.0986 28.6002 26.1552 28.5481 26.0918C28.4959 26.0283 28.5753 25.8719 28.6455 25.813C28.7158 25.7564 28.8155 25.7609 28.8653 25.8243C28.9175 25.8878 28.9016 25.9852 28.8314 26.0419Z" fill="white"/>
<path d="M28.5502 26.8075C28.4799 26.8642 28.319 26.9208 28.2669 26.8574C28.217 26.7939 28.2941 26.6353 28.3643 26.5786C28.4346 26.522 28.5343 26.5265 28.5842 26.59C28.6363 26.6534 28.6204 26.7509 28.5479 26.8075H28.5502Z" fill="white"/>
<path d="M28.5816 27.5588C28.5317 27.6336 28.3958 27.7356 28.3278 27.6903C28.2598 27.6449 28.287 27.4727 28.3368 27.3956C28.3867 27.3186 28.4819 27.2937 28.5499 27.339C28.6179 27.3843 28.6315 27.4818 28.5816 27.5565V27.5588Z" fill="white"/>
<path d="M44.9269 22.6594C44.5031 21.805 44.1155 20.9347 44.8747 20.3047C44.2447 20.2503 43.8119 20.2503 43.7031 20.2503C43.592 20.248 43.1614 20.239 42.5292 20.2843C43.277 20.9257 42.8759 21.7891 42.4362 22.6367C41.8176 23.6565 42.0079 24.5381 42.1847 24.9596C42.3592 25.3789 42.5337 26.1177 42.6039 26.2038C42.6357 26.2401 42.749 26.2673 42.8895 26.2899C43.1932 26.3488 43.7507 26.4168 44.4419 26.3012C44.5688 26.2831 44.6685 26.2582 44.7002 26.2265C44.7728 26.1403 44.9586 25.4061 45.1422 24.9891C45.3257 24.5721 45.5297 23.6928 44.9291 22.6639L44.9269 22.6594Z" fill="#A1A1B0"/>
<path d="M45.0855 20.2178C45.0855 20.3107 45.0085 20.3877 44.9133 20.3877L42.4385 20.3673C42.3433 20.3673 42.2686 20.2903 42.2686 20.1951C42.2686 20.1022 42.3456 20.0251 42.4408 20.0274L44.9156 20.0478C45.0085 20.0478 45.0855 20.1248 45.0855 20.22V20.2178Z" fill="#B8B8C9"/>
<path d="M42.4863 20.0589C42.4863 20.0589 42.3322 20.0589 42.3231 20.17C42.3141 20.2833 42.3707 20.3399 42.7333 20.3263C43.0959 20.3127 43.8551 20.2719 44.1226 20.1926C44.39 20.1133 43.9775 20.0702 42.484 20.0566L42.4863 20.0589Z" fill="#CDCDE0"/>
<path d="M43.0031 21.0331C43.0031 21.0331 43.0961 21.4705 42.7199 22.2093C42.4252 22.7872 42.0808 23.3492 42.0762 23.8659C42.0717 24.3328 42.2915 25.1917 42.6745 25.4841C43.0575 25.7764 43.5425 25.5294 43.853 25.2665C44.2473 24.9311 44.4014 24.4801 44.4173 23.9702C44.4264 23.6303 44.3516 23.3832 44.2451 23.0592C44.0955 22.6059 43.8167 22.2478 43.7238 21.6654C43.5561 20.6025 43.2796 20.6614 43.1844 20.6433C43.019 20.6139 42.9261 20.7226 43.0031 21.0286V21.0331Z" fill="#B8B8C9"/>
<path d="M42.6312 22.918C42.6312 22.918 42.3048 23.3508 42.2822 23.9967C42.2595 24.6426 42.6606 25.0007 42.9349 25.0029C43.2091 25.0052 43.5989 24.7015 43.5717 24.0556C43.5445 23.4097 43.3224 23.0358 43.1773 22.8908C43.0323 22.7435 42.7921 22.7593 42.6289 22.918H42.6312Z" fill="#CDCDE0"/>
<path d="M43.0978 21.1759C43.0978 21.1759 43.0843 21.4501 42.9913 21.6881C42.8984 21.926 43.1024 22.0167 43.2202 21.9419C43.3381 21.8671 43.3222 21.5272 43.2724 21.2665C43.2225 21.0059 43.1024 21.1124 43.1001 21.1759H43.0978Z" fill="#CDCDE0"/>
<path d="M42.901 20.0889C42.901 20.0889 42.5973 20.064 42.4863 20.098C42.3752 20.132 42.4681 20.2339 42.5883 20.2566C42.7084 20.2793 43.2115 20.2702 43.2636 20.1727C43.3157 20.0753 42.901 20.0889 42.901 20.0889Z" fill="#DFDFED"/>
<path d="M29.7314 15.0103C29.7314 15.0103 30.6946 17.1111 31.132 17.2879C31.3949 18.3394 32.1835 18.0766 32.1835 18.5139C32.1835 18.9513 32.7977 19.1258 32.7977 18.6001C32.7977 18.0743 32.9722 17.8114 33.149 17.5485C33.3235 17.2856 32.9745 17.0227 33.149 16.6737C33.3235 16.3247 34.0238 15.9735 34.1121 15.1848C34.2005 14.3961 34.9869 13.2585 35.2498 14.3961C35.5127 15.5338 36.0385 15.2732 35.9501 16.148C35.8617 17.0227 36.3013 16.8482 36.3013 17.4601C36.3013 18.072 36.8271 18.8607 36.9132 18.072C37.0016 17.2834 37.0016 16.846 37.1761 16.5831C37.3506 16.3202 37.2645 15.2686 37.6135 15.0058C37.9625 14.7429 38.5767 14.48 38.8396 13.9565C39.1025 13.4307 39.1886 14.3939 39.0141 14.9196C38.8396 15.4454 39.6282 15.8828 39.5398 16.5831C39.4515 17.2834 40.2401 17.9836 40.3285 17.0205C40.4169 16.0573 40.3285 15.7944 40.6798 15.4432C41.0288 15.0941 42.0803 14.5684 42.0803 13.6052C42.0803 12.642 42.869 8.52651 37.8787 8.78939C32.8884 9.05228 30.6108 10.9786 29.736 15.0058L29.7314 15.0103Z" fill="#564336"/>
<path d="M39.7118 32.3477C39.7118 32.3477 34.896 32.6105 34.1073 33.7482C33.3186 34.8859 37.6087 35.7629 39.7118 35.4116C41.8126 35.0604 42.0755 32.8734 39.7118 32.3477Z" fill="#86705B"/>
<path d="M39.7118 32.3477C39.7118 32.3477 39.1021 32.3816 38.2818 32.4746C38.2682 33.1794 38.6081 33.9046 39.2177 34.2717C39.1361 35.3595 36.3396 35.4003 35.3877 34.6162C35.0183 34.3488 35.0977 33.8457 34.8914 33.2088C34.5311 33.3629 34.2523 33.542 34.1073 33.7505C33.3186 34.8881 37.6087 35.7652 39.7118 35.4139C41.8126 35.0626 42.0755 32.8757 39.7118 32.3499V32.3477Z" fill="#725B4C"/>
<path d="M20.5378 20.0033C20.5378 20.0033 18.786 18.077 16.7736 18.6912C14.7589 19.3031 14.6727 21.0549 14.2353 22.4554C13.798 23.856 13.1838 25.6939 14.147 27.1829C15.1101 28.6718 16.4223 29.2837 16.4223 29.2837L24.3905 27.7086C24.3905 27.7086 25.0024 27.0968 24.565 24.0305C24.1276 20.9665 22.8132 22.0181 20.5378 20.0033Z" fill="#86705B"/>
<path d="M24.5649 24.0292C24.1275 20.9652 22.8131 22.0168 20.5378 20.0021C20.5378 20.0021 19.7808 19.1681 18.6885 18.7715C18.4596 19.5375 18.1242 19.9522 17.9316 20.5845C17.5304 21.9012 19.5111 22.4088 19.1893 23.5941C18.9265 24.5686 18.8222 24.487 18.1854 25.1963C17.5916 25.8581 16.429 26.9776 16.1253 27.8094C16.1004 27.8751 15.8443 28.6184 15.1758 28.3986C15.8443 29.0127 16.42 29.2824 16.42 29.2824L24.3882 27.7074C24.3882 27.7074 25 27.0955 24.5627 24.0292H24.5649Z" fill="#725B4C"/>
<path d="M26.928 18.9509C26.928 18.9509 27.5422 20.8772 27.6283 22.5406C27.7167 24.2041 27.9796 27.0052 23.8641 27.0052C19.7485 26.8307 18.8737 24.1157 20.0114 21.752C21.1491 19.3882 25.0901 17.3735 26.928 18.9509Z" fill="#86705B"/>
<path d="M27.4787 21.2578C26.8849 23.5105 27.0617 25.6816 24.2855 26.375C23.2045 26.4838 22.187 26.4612 21.1943 26.3524C21.8606 26.7195 22.7399 26.9575 23.864 27.0051C27.9795 27.0051 27.7167 24.204 27.6283 22.5405C27.6056 22.1167 27.5489 21.6771 27.4787 21.2578Z" fill="#685241"/>
<path d="M26.0535 30.9455C26.0535 30.9455 27.8053 31.0339 29.9062 31.0339C32.007 31.0339 34.722 31.8225 35.0733 34.6237C33.6727 35.9358 31.1322 35.3239 27.8937 34.7982C24.6552 34.2724 23.1663 33.3976 23.1663 33.3976C23.1663 33.3976 23.0779 30.8594 26.0558 30.9455H26.0535Z" fill="#86705B"/>
<path d="M28.6416 32.8787C28.3651 32.4187 28.9181 31.6935 29.8631 31.0317C27.7804 31.0317 26.0558 30.9456 26.0558 30.9456C23.0779 30.8572 23.1663 33.3977 23.1663 33.3977C23.1663 33.3977 24.6552 34.2725 27.8937 34.7983C31.1322 35.324 33.6727 35.9359 35.0733 34.6238C35.0733 34.6124 35.0687 34.6011 35.0687 34.5875C33.2149 36.1739 29.6886 33.7059 28.6439 32.8787H28.6416Z" fill="#725B4C"/>
<path d="M23.8638 14.6619C23.8638 14.6619 20.886 15.7995 20.1857 17.0256C19.4854 18.2516 18.2594 20.7898 18.2594 20.7898C18.2594 20.7898 17.9965 22.8046 21.5001 22.1043C25.0015 21.404 27.6281 19.7406 28.8542 19.0403C30.0802 18.34 30.6921 17.463 30.5176 16.5882C30.3431 15.7134 28.6797 14.7502 26.4021 14.5735C24.1267 14.399 23.8638 14.6619 23.8638 14.6619Z" fill="#86705B"/>
<path d="M30.5176 16.5882C30.3431 15.7134 28.6797 14.7502 26.4021 14.5735C24.1268 14.399 23.8639 14.6619 23.8639 14.6619C23.8639 14.6619 22.4157 15.2171 21.3007 15.9672C22.2095 17.0188 23.5172 17.4108 24.8542 17.5582C25.3596 17.6125 27.6486 17.3791 27.959 17.9004C28.3307 18.5258 25.3438 20.1032 23.8548 20.7173C21.5478 21.7371 19.4628 22.204 18.2549 20.8896C18.2549 21.2839 18.4656 22.7139 21.4979 22.1065C24.9993 21.4063 27.6259 19.7428 28.8519 19.0426C30.078 18.3423 30.6899 17.4652 30.5154 16.5905L30.5176 16.5882Z" fill="#685241"/>
<path d="M29.9945 3.89149C29.9945 3.89149 27.6308 3.71699 26.1419 4.50338C24.6529 5.29204 22.6405 7.39287 22.4637 8.79342C22.2892 10.194 21.589 11.6829 21.1493 12.0342C20.7119 12.3832 19.5742 14.3979 21.938 16.2358C24.3017 18.0738 29.8178 16.9361 32.0954 15.4472C34.3707 13.9582 35.948 12.8206 34.9849 9.6682C34.0217 6.51582 31.4835 4.23823 29.9945 3.88922V3.89149Z" fill="#9C8671"/>
<path d="M34.9852 9.67086C34.022 6.51848 31.4838 4.24088 29.9949 3.89188C29.9949 3.89188 29.9337 3.88735 29.8249 3.88281C32.796 5.56438 35.6809 9.09749 34.3688 12.1615C32.9002 15.6493 26.3893 16.4311 23.7377 14.9943C23.7377 14.9943 23.0374 14.6 23.7377 13.8929C25.0227 12.7915 26.6748 13.3422 28.1433 12.7915C29.0091 12.506 28.6941 12.2408 28.5105 12.2408C27.0419 11.8737 25.3898 12.7915 24.472 11.8737C23.5542 10.9558 24.1049 9.30372 24.1049 7.83518C22.6363 9.12015 23.9213 11.323 23.187 12.9751C22.4505 12.5218 22.0471 11.8079 21.8409 10.9604C21.6074 11.4771 21.3536 11.8759 21.1542 12.0346C20.7168 12.3836 19.5791 14.3983 21.9428 16.2362C24.3066 18.0742 29.8227 16.9365 32.1002 15.4476C34.3756 13.9586 35.9529 12.821 34.9897 9.66859L34.9852 9.67086Z" fill="#86705B"/>
<path d="M39.4497 1.79069C39.4497 1.79069 43.3907 2.22808 43.4768 4.50567C43.5652 6.78327 41.8134 8.35833 41.8134 8.35833C41.8134 8.35833 39.0123 12.2994 37.3489 12.2994C35.6854 12.2994 34.7223 10.8988 33.9336 9.49826C33.1449 8.0977 30.6951 5.6456 31.5699 4.50794C32.4447 3.37027 35.8599 0.832056 39.4497 1.79295V1.79069Z" fill="#86705B"/>
<path d="M43.4426 4.21875C43.0279 5.17285 42.212 5.88899 40.9905 6.00003C40.9905 6.7343 41.9084 7.46858 41.1741 8.01928C39.3384 9.12068 38.0535 11.8742 36.2178 10.2221C34.9781 9.12068 33.6365 8.22551 32.3447 7.22835C32.9113 8.05327 33.5844 8.87819 33.9334 9.49688C34.722 10.8974 35.6852 12.298 37.3486 12.298C39.0121 12.298 41.8132 8.35695 41.8132 8.35695C41.8132 8.35695 43.565 6.7819 43.4766 4.5043C43.4721 4.40458 43.4585 4.31167 43.4426 4.21875Z" fill="#685241"/>
<path d="M42.4272 6.78053C42.4272 6.78053 44.7048 6.08026 46.9801 8.44397C49.2554 10.8077 49.6067 14.0484 49.3438 15.7119C49.0809 17.3753 45.5796 16.4122 43.4765 15.5374C41.3756 14.6626 39.6238 11.4218 39.7122 9.58391C39.8006 7.74596 42.4272 6.7828 42.4272 6.7828V6.78053Z" fill="#9C8671"/>
<path d="M43.9274 14.6264C41.328 13.7086 39.4153 10.6151 40.2062 8.32617C39.9298 8.68424 39.7349 9.1035 39.7122 9.58168C39.6238 11.4196 41.3756 14.6604 43.4765 15.5352C45.5773 16.4099 49.0809 17.3731 49.3438 15.7097C49.3959 15.3833 49.4231 14.9981 49.4186 14.5697C47.5965 14.674 45.7042 15.3629 43.9297 14.6241L43.9274 14.6264Z" fill="#86705B"/>
<path d="M47.8551 15.3613C47.8551 15.3613 45.9287 15.4474 45.1401 16.7618C44.3514 18.074 43.8279 19.0394 45.3146 20.1771C46.8035 21.3147 48.1157 21.4892 49.9559 21.9289C51.7938 22.3663 52.757 21.8405 52.757 19.8281C52.757 17.8156 51.7054 14.3981 47.8528 15.3635L47.8551 15.3613Z" fill="#86705B"/>
<path d="M52.2581 17.3594C52.249 18.1231 52.1244 18.8256 51.6371 19.2154C49.7357 20.7089 47.3335 20.795 45.0967 19.9973C45.1647 20.0562 45.2372 20.1152 45.3142 20.1763C46.8032 21.314 48.1153 21.4885 49.9556 21.9282C51.7935 22.3656 52.7567 21.8398 52.7567 19.8273C52.7567 19.0976 52.6161 18.1843 52.2581 17.3594Z" fill="#685241"/>
<path d="M51.0952 20.7885C51.0952 20.7885 49.1689 19.9137 47.68 21.5771C46.191 23.2406 44.4392 24.5527 43.8273 26.2184C43.2154 27.8819 43.127 29.1079 44.1763 30.334C45.2279 31.56 47.4171 32.6116 49.7808 32.6116C52.1445 32.6116 53.8079 29.8105 53.6334 27.6213C53.4589 25.432 53.5473 22.1935 51.0952 20.793V20.7885Z" fill="#9C8671"/>
<path d="M25.7042 25.8672C25.7042 25.8672 27.5422 26.0417 28.5053 26.9187C29.4685 27.7935 29.9943 30.4224 29.2056 31.2972C28.4169 32.1719 26.579 33.1351 24.4782 31.8229C22.3773 30.5085 17.9105 26.3068 25.7042 25.8695V25.8672Z" fill="#725B4C"/>
<path d="M27.1117 31.4192C28.1633 30.4628 27.3837 29.2504 26.6041 28.4391C26.1848 28.0039 25.7112 27.6527 25.2036 27.3286C24.918 27.1473 23.667 26.1116 23.4291 26.1683C18.9328 27.2583 22.6245 30.6623 24.4761 31.8203C26.5769 33.1348 28.4171 32.1716 29.2035 31.2945C29.3939 31.0815 29.5072 30.7665 29.557 30.3994C28.5871 31.4623 26.9758 32.1444 27.1095 31.4169L27.1117 31.4192Z" fill="#685241"/>
<path d="M53.5405 26.2482C53.4952 26.4544 53.4589 26.5678 53.4589 26.5678C53.4589 26.5678 53.2844 27.0935 52.6703 26.5678C51.8816 25.8675 51.97 26.4794 51.97 26.4794L51.7071 28.4941C51.7071 28.4941 51.6187 30.1575 49.8692 29.1082C47.9428 27.6193 43.8273 26.2188 43.8273 26.2188C43.2154 27.8822 43.127 29.1082 44.1763 30.3343C45.2279 31.5603 47.4171 32.6119 49.7808 32.6119C52.1445 32.6119 53.8079 29.8108 53.6334 27.6216C53.5995 27.1978 53.5768 26.7332 53.5405 26.2505V26.2482Z" fill="#86705B"/>
<path d="M27.0162 33.0469C27.0162 33.0469 22.0259 33.0469 21.1489 34.01C20.2741 34.9732 23.2497 36.3738 25.9647 36.8111C28.6797 37.2485 30.1663 36.3738 30.4292 35.4106C30.6921 34.4474 29.6406 33.2214 27.014 33.0469H27.0162Z" fill="#86705B"/>
<path d="M28.7227 36.338C28.623 36.3675 28.5369 36.3902 28.4734 36.406C27.44 36.653 25.7358 36.5624 24.7772 36.1499C24.5823 36.0661 23.4333 35.7171 22.8146 35.3431C22.2208 35.0077 23.8888 34.806 24.9222 33.691C25.0491 33.5528 25.2531 33.3398 25.6021 33.0859C24.0565 33.1607 21.7222 33.3783 21.1489 34.0083C20.2741 34.9715 23.2497 36.372 25.9647 36.8094C28.6797 37.2468 30.1663 36.372 30.4292 35.4089C30.4406 35.3658 30.4587 35.2661 30.4632 35.223C30.0304 35.9052 29.3097 36.159 28.7205 36.3358L28.7227 36.338Z" fill="#725B4C"/>
<path d="M45.317 27.707C45.317 27.707 40.9385 28.0583 39.7125 30.1591C38.4864 32.26 37.6117 34.0118 41.2014 34.8004C44.7912 35.5891 47.8552 35.852 49.3441 35.1494C50.8331 34.4492 50.3073 32.26 49.7815 31.2968C49.2557 30.3336 48.6439 28.1444 45.3147 27.707H45.317Z" fill="#725B4C"/>
<path d="M49.7817 31.2968C49.2559 30.3336 48.644 28.1444 45.3149 27.707C45.3149 27.707 42.9217 27.8997 41.1789 28.8492C41.0974 28.8923 42.0741 29.5314 42.1693 29.5722C43.4203 30.1093 44.7279 30.0005 46.0469 29.8758C47.069 29.7807 48.7573 29.4974 48.1432 31.1314C47.8531 31.7931 46.9874 31.5438 46.3664 31.3784C44.7143 30.9659 42.9376 30.9659 41.4486 31.7501C40.8277 32.0809 40.2906 32.5772 39.7557 33.1959C39.5472 33.4339 39.2776 33.69 38.958 33.7262C39.3183 34.1727 40.0164 34.5376 41.1993 34.7982C44.7891 35.5868 47.8531 35.8497 49.342 35.1472C50.831 34.4469 50.3052 32.2577 49.7794 31.2945L49.7817 31.2968Z" fill="#685446"/>
<path d="M42.8648 31.8215C42.8648 31.8215 39.1866 33.0475 39.275 35.5857C39.5379 36.7234 42.6903 36.8118 44.3537 36.635C46.0171 36.4605 48.2947 36.4605 48.5554 35.1461C48.8183 33.8339 47.2432 30.7676 42.8648 31.8192V31.8215Z" fill="#9C8671"/>
<path d="M23.3388 26.8312C23.3388 26.8312 21.8499 24.642 19.8375 24.9932C17.8227 25.3445 15.0216 28.9343 14.4959 32.1728C14.0585 34.1875 19.9236 34.5365 21.9383 34.7133C23.953 34.8878 25.7026 32.8753 26.7541 30.8606C27.8056 28.8459 23.3388 26.8335 23.3388 26.8335V26.8312Z" fill="#9C8671"/>
<path d="M26.2102 28.7798C26.0085 33.0109 21.4102 34.833 17.5621 33.6613C16.8279 33.4777 15.2868 32.8726 15.2913 32.2517C15.8103 30.8602 21.5893 32.6981 21.9383 31.386C20.2862 31.2024 17.961 31.6987 16.8596 30.5973C16.2114 29.8766 16.0981 29.1696 16.1117 28.2109C15.3276 29.4211 14.7157 30.8262 14.4959 32.1746C14.0585 34.1893 19.9236 34.5384 21.9383 34.7151C23.953 34.8896 25.7026 32.8772 26.7541 30.8625C27.1326 30.1373 26.7949 29.4121 26.2079 28.782L26.2102 28.7798Z" fill="#86705B"/>
<path d="M34.8077 0.213597C34.8077 0.213597 29.9919 2.6657 30.0803 4.24075C30.1687 5.81581 35.508 7.04186 36.5596 6.86735C37.6111 6.69285 39.449 5.2923 40.0609 2.92858C40.6728 0.564868 37.9601 -0.48668 34.8077 0.213597Z" fill="#9C8671"/>
<path d="M39.8893 1.77641C39.1551 3.06138 38.7879 4.34636 37.6865 5.26419C35.4837 7.09987 32.9138 5.26419 30.8945 4.16279C30.6815 4.02001 30.4118 3.96109 30.1195 3.94069C30.09 4.04268 30.0764 4.14239 30.0809 4.23984C30.1693 5.8149 35.5086 7.04095 36.5602 6.86644C37.6117 6.69194 39.4497 5.29139 40.0616 2.92767C40.2043 2.37244 40.1636 1.89199 39.9777 1.48633C39.9483 1.58604 39.9188 1.68349 39.8871 1.77641H39.8893Z" fill="#725B4C"/>
<path d="M42.8916 26.7625C42.8916 26.7625 43.1205 25.6271 43.3789 25.7314C43.6372 25.8356 44.0565 26.3909 44.1018 26.579C44.1448 26.7693 43.3698 27.3019 42.8939 26.7603L42.8916 26.7625Z" fill="#93560C"/>
<path d="M45.9121 26.2439C45.9121 26.2439 46.5013 25.5323 46.7756 25.6071C47.052 25.6819 47.0656 26.5952 47.0112 26.7447C46.9569 26.8943 46.0458 26.8218 45.9121 26.2439Z" fill="#93560C"/>
<path d="M41.9491 28.7436C41.9491 28.7436 44.7139 30.2824 47.8074 28.8569L48.519 25.6094C48.519 25.6094 48.5485 25.2649 48.2584 25.5459C47.9683 25.8247 46.6085 26.5861 46.6085 26.5861L45.3349 24.3765C45.3349 24.3765 45.2125 24.0978 44.9338 24.5963C44.7593 24.9091 43.7395 26.7788 43.7395 26.7788L41.8675 25.598C41.8675 25.598 41.5117 25.4281 41.5774 25.8768C41.6409 26.3278 41.9468 28.7459 41.9468 28.7459L41.9491 28.7436Z" fill="#BA7516"/>
<path d="M45.7268 23.9023C45.7495 24.1742 45.5455 24.4144 45.2713 24.4348C44.9993 24.4552 44.7591 24.2513 44.7387 23.9793C44.7183 23.7074 44.92 23.4671 45.1942 23.4467C45.4662 23.4263 45.7064 23.628 45.7268 23.9023Z" fill="#BA7516"/>
<path d="M49.1324 25.0761C49.1528 25.348 48.9511 25.5883 48.6769 25.6087C48.4027 25.629 48.1647 25.4274 48.1443 25.1531C48.1216 24.8812 48.3256 24.641 48.5998 24.6206C48.8718 24.6002 49.112 24.8019 49.1324 25.0761Z" fill="#BA7516"/>
<path d="M41.926 25.219C41.9464 25.4932 41.7447 25.7311 41.4705 25.7515C41.1963 25.7719 40.9583 25.5702 40.9379 25.296C40.9175 25.0241 41.1192 24.7838 41.3935 24.7634C41.6677 24.7408 41.9056 24.9447 41.926 25.219Z" fill="#BA7516"/>
<path d="M47.9901 27.1942C47.9901 27.1942 47.6661 28.6582 47.5528 28.7919C47.4485 28.9143 45.3885 29.7777 43.4078 29.193C43.4078 29.193 43.0066 29.0571 43.8179 29.1205C43.9018 29.1273 45.742 29.5919 47.0859 28.3228C47.0859 28.3228 47.4757 27.9602 46.8434 27.1783C46.8434 27.1783 47.6479 26.6526 48.0536 26.2854C48.0536 26.2854 48.2236 26.1359 48.1782 26.3217L47.9901 27.1942Z" fill="#93560C"/>
<path d="M44.2762 26.8828C44.2762 26.8828 45.0762 25.2352 45.2552 25.2987C45.4343 25.3599 45.9442 26.3842 46.13 26.6924C46.13 26.6924 46.1141 26.7649 46.0076 26.6879C45.9011 26.6131 45.228 26.187 44.8201 26.493C44.4144 26.7989 44.2445 26.9802 44.2762 26.8828Z" fill="#93560C"/>
<path d="M42.1795 27.5382L42.0458 26.5411C42.0458 26.5411 42.0277 26.3031 42.1568 26.3303C42.2883 26.3575 43.2288 26.9626 43.2288 26.9626C43.2288 26.9626 43.2446 26.9988 43.188 26.9898C43.1313 26.9807 42.499 26.8153 42.4197 27.1008C42.3404 27.3886 42.2656 28.073 42.1795 27.5382Z" fill="#93560C"/>
<path d="M45.6173 23.8188C45.7193 23.9797 45.6513 24.204 45.47 24.3173C45.2887 24.4306 45.0576 24.3921 44.9578 24.2289C44.8559 24.0658 44.985 23.9298 45.1663 23.8165C45.3499 23.7032 45.5176 23.6556 45.6196 23.8165L45.6173 23.8188Z" fill="#93560C"/>
<path d="M49.0763 25.0767C49.1261 25.2558 48.9924 25.4529 48.7749 25.5141C48.5573 25.5776 48.3375 25.4801 48.2876 25.3011C48.2355 25.1221 48.41 25.0201 48.6276 24.9566C48.8451 24.8954 49.0241 24.8954 49.0763 25.0767Z" fill="#93560C"/>
<path d="M41.7285 25.4924C41.656 25.6715 41.4407 25.7531 41.248 25.676C41.0577 25.5967 40.9602 25.3882 41.035 25.2092C41.1098 25.0301 41.2775 25.0596 41.4701 25.1366C41.6605 25.216 41.8033 25.3134 41.7285 25.4924Z" fill="#93560C"/>
<path d="M48.8745 24.7405C48.9606 24.8629 48.8518 25.0329 48.666 25.1621C48.4824 25.2912 48.292 25.332 48.2059 25.2097C48.1198 25.0873 48.1878 24.8539 48.3714 24.7247C48.5549 24.5955 48.7884 24.6159 48.8745 24.7383V24.7405Z" fill="#ECB13E"/>
<path d="M45.3526 23.5153C45.4773 23.6104 45.398 23.7827 45.2643 23.9572C45.1328 24.1294 44.9968 24.2382 44.8722 24.143C44.7475 24.0478 44.7294 23.8189 44.8631 23.6467C44.9946 23.4745 45.228 23.4201 45.3526 23.5153Z" fill="#ECB13E"/>
<path d="M48.7724 24.7499C48.7996 24.8338 48.7181 24.8746 48.6002 24.9131C48.4846 24.9516 48.3758 24.9698 48.3487 24.8859C48.3237 24.8021 48.3962 24.7046 48.5118 24.6684C48.6297 24.6321 48.7452 24.6684 48.7702 24.7499H48.7724Z" fill="#FDEB8D"/>
<path d="M45.1782 23.7885C45.0875 23.8678 44.9968 23.9086 44.9311 23.8338C44.8654 23.759 44.8858 23.6344 44.9765 23.5573C45.0671 23.478 45.1917 23.4757 45.2575 23.5505C45.3232 23.6253 45.2688 23.7092 45.1782 23.7885Z" fill="#FDEB8D"/>
<path d="M41.8334 25.3711C41.7359 25.4935 41.5637 25.4074 41.396 25.2714C41.226 25.1354 41.1218 24.9972 41.2215 24.8748C41.3212 24.7524 41.5478 24.7411 41.7178 24.8793C41.8878 25.0153 41.9331 25.2487 41.8334 25.3711Z" fill="#ECB13E"/>
<path d="M41.4364 25.0891C41.3412 25.0143 41.2823 24.935 41.3458 24.8557C41.407 24.7786 41.5339 24.7741 41.6268 24.8466C41.722 24.9191 41.7469 25.0438 41.6857 25.1208C41.6245 25.1979 41.5316 25.1616 41.4364 25.0868V25.0891Z" fill="#FDEB8D"/>
<path d="M44.8768 24.8729C44.8768 24.8729 44.0473 26.1918 43.9975 26.4593C43.9476 26.729 44.2604 26.7561 44.4847 26.3482C44.7091 25.9403 45.1238 24.959 45.355 25.2536C45.5884 25.5482 45.9102 26.3686 46.087 26.2462C46.2638 26.1216 45.8672 25.3919 45.6519 25.0315C45.4388 24.6734 45.2462 24.304 44.8768 24.8706V24.8729Z" fill="#ECB13E"/>
<path d="M41.9105 25.7133C41.9105 25.7133 43.1343 26.3864 43.1932 26.5087C43.2521 26.6288 43.0618 26.7444 42.7808 26.5994C42.4997 26.4521 42.221 26.2186 42.0805 26.2889C41.9422 26.3569 41.9966 26.7897 42.0125 26.9869C42.0397 27.3269 41.8425 27.3087 41.7519 26.6946C41.659 26.0804 41.557 25.5116 41.9105 25.7133Z" fill="#ECB13E"/>
<path d="M48.2689 25.6001C48.2689 25.6001 47.2332 26.3276 46.9046 26.5021C46.576 26.6788 46.6213 26.8851 46.7097 26.9666C46.7981 27.046 47.1766 26.9009 47.8225 26.4159C48.4684 25.931 48.5137 25.4641 48.2689 25.6001Z" fill="#ECB13E"/>
<path d="M48.1858 25.8485C48.2448 25.9301 48.1518 26.1 47.9773 26.2292C47.8028 26.3584 47.6102 26.3969 47.5513 26.3153C47.4924 26.2337 47.6125 26.1 47.787 25.9708C47.9615 25.8417 48.1246 25.7669 48.1858 25.8485Z" fill="#FDEB8D"/>
<path d="M44.9153 24.8817C44.9153 24.8817 44.3057 25.8063 44.3329 25.9174C44.3601 26.0261 44.7023 25.7904 44.9539 25.3666C45.2054 24.9429 45.2915 24.3786 44.9153 24.8817Z" fill="#FDEB8D"/>
<path d="M42.9365 26.466C42.8889 26.5522 42.694 26.4796 42.4651 26.3527C42.2362 26.2258 42.0595 26.0944 42.1048 26.0083C42.1501 25.9221 42.3631 25.9947 42.592 26.1193C42.8209 26.2462 42.9818 26.3799 42.9365 26.4638V26.466Z" fill="#FDEB8D"/>
<path d="M44.3211 27.0781C44.3211 27.0781 43.3375 27.2345 43.6412 28.0775C43.9449 28.9206 44.5296 29.1858 44.1964 29.2469C43.861 29.3081 45.2435 29.4101 45.9415 29.1314C46.6417 28.8526 46.6712 26.856 45.5766 27.1506C45.5766 27.1506 45.4746 27.6855 45.0418 27.6991C44.6089 27.7127 44.3211 27.0781 44.3211 27.0781Z" fill="#93560C"/>
<path d="M44.9058 28.9448C44.9058 28.9448 44.0106 28.5528 43.7749 27.8978C43.5392 27.2406 44.4095 26.6514 44.9851 27.4627C44.9851 27.4627 45.6876 26.7511 46.1273 27.3721C46.567 27.993 45.3296 28.7431 44.9058 28.9448Z" fill="#D30B23"/>
<path d="M46.1279 27.3714C45.8786 27.0201 45.5455 27.0949 45.303 27.2286C45.3098 27.249 45.3121 27.2694 45.3143 27.292C45.6158 28.1917 44.3988 28.8671 43.8662 27.9855C43.7665 27.8201 43.7846 27.5187 43.8889 27.2739C43.7484 27.4303 43.6894 27.6592 43.7755 27.8994C44.0112 28.5566 44.9064 28.9464 44.9064 28.9464C45.3325 28.7447 46.5676 27.9946 46.1279 27.3736V27.3714Z" fill="#A5112A"/>
<path d="M44.856 28.548C44.856 28.548 44.2215 28.3191 44.0674 27.8386C43.9133 27.3605 44.5546 27.1928 44.9558 27.6347C44.9558 27.6347 45.5903 27.1406 45.8623 27.399C46.1342 27.6573 45.6674 28.3395 44.856 28.548Z" fill="#F42A39"/>
<path d="M42.3545 28.8736C42.3545 28.8736 43.0253 29.3314 44.8497 29.3586C44.8497 29.3586 46.0916 29.3586 46.6876 28.9416C46.6876 28.9416 46.7738 28.8487 46.6967 28.7807C46.6196 28.7127 46.3182 28.8464 45.9874 28.9597C45.7109 29.0549 44.1449 29.3155 42.4724 28.443C42.4724 28.443 42.3047 28.3478 42.18 28.4815C42.0327 28.6379 42.2775 28.8373 42.3568 28.8713L42.3545 28.8736Z" fill="#ECB13E"/>
<path d="M43.5921 29.0483C43.583 29.1163 43.4561 29.1594 43.3088 29.1413C43.1592 29.1231 43.0482 29.0529 43.055 28.9826C43.064 28.9124 43.191 28.8716 43.3383 28.892C43.4856 28.9101 43.5989 28.9804 43.5898 29.0506L43.5921 29.0483Z" fill="#FDEB8D"/>
<path d="M44.2715 28.7776C44.2715 28.7776 43.8182 28.3652 43.7049 27.9595C43.5916 27.5561 43.7208 27.1777 44.0448 27.0802C44.0448 27.0802 44.5955 26.8445 44.9785 27.3862C44.9785 27.3862 45.604 26.7675 46.1117 27.2139C46.1117 27.2139 46.5559 27.751 45.9644 28.3085C45.9644 28.3085 45.8193 28.4717 46.0097 28.4354C46.0867 28.4196 46.3474 28.2156 46.4675 27.8009C46.5491 27.5176 46.4652 27.0394 45.9462 26.8219C45.9462 26.8219 45.3819 26.6406 45.0148 26.9782C45.0148 26.9782 44.3485 26.5408 43.7842 26.8876C43.2199 27.2343 43.4398 28.1386 43.9451 28.6145C43.9451 28.6145 44.2012 28.8683 44.2964 28.857C44.2964 28.857 44.3281 28.8252 44.2715 28.7776Z" fill="#ECB13E"/>
<path d="M45.8576 28.5121C45.8826 28.5438 45.844 28.6186 45.7692 28.6775C45.6945 28.7364 45.6151 28.7591 45.5879 28.7274C45.563 28.6956 45.6083 28.6458 45.6831 28.5869C45.7579 28.5279 45.8327 28.4826 45.8576 28.5143V28.5121Z" fill="#ECB13E"/>
<path d="M43.5508 27.1874C43.5508 27.1874 43.442 27.4163 43.5009 27.7472C43.5598 28.0781 43.6505 27.9987 43.6437 27.6815C43.6369 27.3642 43.7525 27.1376 44.0131 27.0605C44.2737 26.9812 44.1921 26.8497 44.1581 26.8271C44.1241 26.8044 43.961 26.7455 43.6867 26.9993C43.6867 26.9993 43.578 27.1013 43.5485 27.1874H43.5508Z" fill="#FDEB8D"/>
<path d="M46.4295 27.3907C46.4567 27.4768 46.4476 27.5538 46.4091 27.5674C46.3706 27.581 46.3162 27.5221 46.289 27.436C46.2618 27.3499 46.2709 27.2728 46.3116 27.2592C46.3502 27.2479 46.4046 27.3068 46.4295 27.3907Z" fill="#FDEB8D"/>
<path d="M43.7024 28.0792C43.7251 28.12 43.7274 28.1631 43.7047 28.1744C43.6843 28.1857 43.6481 28.1608 43.6254 28.1178C43.6027 28.0747 43.6027 28.0316 43.6254 28.0203C43.6458 28.009 43.6821 28.0339 43.7047 28.077L43.7024 28.0792Z" fill="#FDEB8D"/>
<path d="M47.2791 25.2967C47.2972 25.5097 47.1363 25.6978 46.9233 25.7136C46.7102 25.7318 46.5221 25.5709 46.5063 25.3578C46.4881 25.1448 46.649 24.9567 46.8621 24.9408C47.0751 24.9227 47.2609 25.0836 47.2791 25.2967Z" fill="#BA7516"/>
<path d="M47.234 25.2992C47.2748 25.4397 47.1683 25.5938 46.9983 25.6414C46.8283 25.6913 46.6561 25.6165 46.6176 25.476C46.5768 25.3355 46.715 25.2539 46.885 25.2063C47.0549 25.1587 47.1955 25.1587 47.2362 25.2992H47.234Z" fill="#93560C"/>
<path d="M47.0751 25.0354C47.1431 25.1306 47.0569 25.2643 46.9119 25.364C46.7669 25.466 46.6173 25.4977 46.5516 25.4003C46.4836 25.3051 46.538 25.1238 46.6807 25.0218C46.8258 24.9198 47.0071 24.938 47.0751 25.0331V25.0354Z" fill="#ECB13E"/>
<path d="M46.9962 25.0437C47.0166 25.1071 46.9531 25.1411 46.8625 25.1706C46.7718 25.2 46.6857 25.2159 46.6653 25.1502C46.6449 25.0845 46.7015 25.0097 46.7922 24.9802C46.8828 24.9508 46.9735 24.9802 46.9962 25.0437Z" fill="#FDEB8D"/>
<path d="M43.6668 25.4663C43.6849 25.6793 43.524 25.8651 43.311 25.8833C43.0979 25.8991 42.9098 25.7405 42.894 25.5275C42.8758 25.3144 43.0367 25.1263 43.2498 25.1105C43.4628 25.0946 43.6509 25.2532 43.6668 25.4663Z" fill="#BA7516"/>
<path d="M43.621 25.4691C43.6618 25.6097 43.5553 25.7615 43.3853 25.8114C43.2154 25.8589 43.0431 25.7864 43.0023 25.6459C42.9615 25.5054 43.0998 25.4261 43.2697 25.3762C43.442 25.3286 43.5802 25.3286 43.621 25.4691Z" fill="#93560C"/>
<path d="M43.4647 25.2058C43.5327 25.301 43.4466 25.4324 43.3016 25.5344C43.1565 25.6364 43.0092 25.6681 42.9412 25.5729C42.8732 25.4777 42.9276 25.2964 43.0704 25.1945C43.2154 25.0925 43.3967 25.1083 43.4647 25.2058Z" fill="#ECB13E"/>
<path d="M43.3858 25.2116C43.4062 25.2774 43.3428 25.3091 43.2521 25.3386C43.1615 25.368 43.0753 25.3816 43.0549 25.3182C43.0345 25.2524 43.0912 25.1777 43.1818 25.1482C43.2725 25.1187 43.3654 25.1482 43.3835 25.2116H43.3858Z" fill="#FDEB8D"/>
<path d="M43.1344 26.2372C43.1344 26.2372 43.1956 25.9086 43.3157 25.9063C43.4358 25.9018 43.6783 26.1193 43.7168 26.2508C43.7553 26.3822 43.0188 26.5454 43.1344 26.2395V26.2372Z" fill="#BA7516"/>
<path d="M46.9546 26.2132C46.9546 26.2132 46.9524 25.8189 46.864 25.7872C46.7756 25.7555 46.4288 25.7623 46.447 25.9889C46.4651 26.2132 46.9229 26.5283 46.9546 26.2132Z" fill="#BA7516"/>
<path d="M35.2498 29.4449C35.2498 29.5242 35.209 29.5877 35.1547 29.5899L34.6674 29.6013C34.613 29.6013 34.5677 29.5401 34.5654 29.4607C34.5654 29.3814 34.6062 29.318 34.6606 29.3157L35.1479 29.3066C35.2022 29.3066 35.2476 29.3678 35.2498 29.4471V29.4449Z" fill="#CCC8C2"/>
<path d="M34.4362 31.73C34.4407 31.9839 34.2413 32.1924 33.9874 32.1969C33.7359 32.2014 33.5251 32.002 33.5206 31.7482C33.5161 31.4966 33.7155 31.2859 33.9693 31.2813C34.2231 31.2768 34.4316 31.4762 34.4362 31.73Z" fill="#FCDEE9"/>
<path d="M33.8226 31.0966C33.8271 31.3164 33.6526 31.4977 33.435 31.5023C33.2152 31.5068 33.0339 31.3346 33.0294 31.1147C33.0249 30.8949 33.1994 30.7136 33.4169 30.7091C33.6367 30.7045 33.818 30.879 33.8226 31.0966Z" fill="#FCDEE9"/>
<path d="M33.632 30.3781C33.6365 30.573 33.4801 30.7362 33.2852 30.7384C33.0903 30.743 32.9272 30.5866 32.9249 30.3917C32.9204 30.1968 33.0767 30.0336 33.2716 30.0313C33.4665 30.0268 33.6297 30.1832 33.632 30.3781Z" fill="#FCDEE9"/>
<path d="M33.8742 29.9015C33.8787 30.0964 33.7223 30.2596 33.5274 30.2619C33.3325 30.2664 33.1694 30.11 33.1671 29.9151C33.1626 29.7202 33.3189 29.557 33.5138 29.5548C33.7087 29.5503 33.8719 29.7066 33.8764 29.9015H33.8742Z" fill="#FCDEE9"/>
<path d="M34.2779 29.557C34.2824 29.7338 34.1419 29.8788 33.9651 29.8811C33.7884 29.8856 33.6433 29.7451 33.6388 29.5683C33.6342 29.3916 33.7748 29.2465 33.9515 29.2442C34.1283 29.2397 34.2733 29.3802 34.2779 29.557Z" fill="#FCDEE9"/>
<path d="M34.7971 29.4576C34.8016 29.6344 34.6611 29.7794 34.4843 29.7817C34.3076 29.7862 34.1625 29.6457 34.1603 29.4689C34.1557 29.2922 34.2962 29.1471 34.473 29.1426C34.6498 29.1403 34.7948 29.2786 34.7971 29.4554V29.4576Z" fill="#FCDEE9"/>
<path d="M35.4386 31.699C35.4431 31.9573 35.6584 32.1613 35.9167 32.1567C36.1751 32.1522 36.3791 31.9369 36.3745 31.6786C36.37 31.4202 36.1547 31.2162 35.8963 31.2208C35.638 31.2253 35.434 31.4406 35.4386 31.699Z" fill="#FCDEE9"/>
<path d="M36.046 31.0483C36.0505 31.2682 36.2318 31.4404 36.4516 31.4359C36.6715 31.4313 36.8437 31.25 36.8392 31.0302C36.8346 30.8104 36.6533 30.6381 36.4335 30.6427C36.2137 30.6472 36.0415 30.8285 36.046 31.0483Z" fill="#FCDEE9"/>
<path d="M36.1593 30.3643C36.1638 30.5592 36.3247 30.7156 36.5219 30.7111C36.7168 30.7065 36.8731 30.5456 36.8686 30.3507C36.8641 30.1558 36.7032 29.9995 36.506 30.004C36.3111 30.0085 36.1547 30.1694 36.1593 30.3643Z" fill="#FCDEE9"/>
<path d="M35.8575 29.8038C35.8621 29.9987 36.023 30.1551 36.2201 30.1505C36.415 30.146 36.5714 29.9851 36.5669 29.7902C36.5623 29.5953 36.4014 29.4389 36.2043 29.4435C36.0094 29.448 35.853 29.6089 35.8575 29.8038Z" fill="#FCDEE9"/>
<path d="M35.4678 29.4943C35.4723 29.6688 35.6173 29.8094 35.7941 29.8071C35.9709 29.8026 36.1091 29.6575 36.1069 29.4807C36.1023 29.304 35.9573 29.1657 35.7828 29.168C35.6083 29.1725 35.4678 29.3176 35.47 29.4943H35.4678Z" fill="#FCDEE9"/>
<path d="M34.9737 29.4374C34.9782 29.6142 35.1232 29.7524 35.3 29.7501C35.4768 29.7479 35.615 29.6006 35.6127 29.4261C35.6082 29.2493 35.4632 29.111 35.2864 29.1133C35.1096 29.1178 34.9714 29.2629 34.9737 29.4396V29.4374Z" fill="#FCDEE9"/>
<path d="M34.9348 31.4064C34.6402 31.4132 34.4045 31.6579 34.4113 31.9526C34.4181 32.2472 34.6628 32.4829 34.9574 32.4761C35.2521 32.4693 35.4878 32.2245 35.481 31.9299C35.4742 31.6353 35.2294 31.3996 34.9348 31.4064Z" fill="#FCDEE9"/>
<path d="M34.7379 32.0179C34.6405 32.0179 34.5589 31.9431 34.5566 31.8434C34.5566 31.746 34.6314 31.6644 34.7311 31.6621C34.8286 31.6621 34.9102 31.7369 34.9124 31.8366C34.9124 31.9341 34.8354 32.0156 34.7379 32.0179Z" fill="white"/>
<path d="M33.8453 31.8284C33.7433 31.8307 33.6572 31.7491 33.6572 31.6471C33.6572 31.5451 33.7365 31.459 33.8385 31.459C33.9405 31.459 34.0244 31.5383 34.0266 31.6403C34.0289 31.7423 33.9473 31.8261 33.8453 31.8284Z" fill="white"/>
<path d="M35.8254 31.8218C35.7212 31.8218 35.6351 31.7402 35.6328 31.636C35.6328 31.5317 35.7144 31.4456 35.8186 31.4434C35.9229 31.4434 36.009 31.5249 36.0113 31.6292C36.0113 31.7334 35.9297 31.8196 35.8254 31.8218Z" fill="white"/>
<path d="M36.3561 31.0827C36.2927 31.0827 36.2405 31.0329 36.2383 30.9694C36.2383 30.906 36.2881 30.8538 36.3516 30.8516C36.4151 30.8516 36.4672 30.9014 36.4694 30.9649C36.4694 31.0283 36.4196 31.0805 36.3561 31.0827Z" fill="white"/>
<path d="M33.3288 31.1452C33.2653 31.1452 33.2132 31.0954 33.2109 31.0319C33.2109 30.9685 33.2608 30.9163 33.3243 30.9141C33.3877 30.9141 33.4398 30.9639 33.4421 31.0274C33.4421 31.0908 33.3922 31.143 33.3288 31.1452Z" fill="white"/>
<path d="M36.1229 31.2756C36.0776 31.2122 36.0481 31.1351 36.0459 31.049C36.0413 30.8654 36.1637 30.7091 36.3314 30.6592C36.2294 30.598 36.1592 30.4892 36.1569 30.3623C36.1569 30.283 36.1796 30.2082 36.2249 30.1493C36.2226 30.1493 36.2204 30.1493 36.2181 30.1493C36.0232 30.1538 35.86 29.9997 35.8555 29.8026V29.7958C35.8351 29.8003 35.8124 29.8026 35.7898 29.8048C35.6742 29.8048 35.5722 29.7482 35.5133 29.6553C35.4566 29.7119 35.3818 29.7459 35.2957 29.7482C35.1756 29.7504 35.0714 29.687 35.0147 29.5918L34.7654 29.5963C34.7156 29.7051 34.609 29.7799 34.4821 29.7822C34.3915 29.7844 34.3099 29.7482 34.2487 29.6892C34.2011 29.8003 34.0923 29.8796 33.9632 29.8819C33.9314 29.8819 33.8997 29.8773 33.8702 29.8705C33.8702 29.8819 33.8702 29.8909 33.8702 29.9023C33.8748 30.07 33.7592 30.2128 33.6028 30.2535C33.6187 30.2921 33.6278 30.3329 33.6278 30.3782C33.63 30.5255 33.5439 30.6524 33.417 30.7091C33.6346 30.7068 33.8136 30.879 33.8181 31.0966C33.8181 31.194 33.7864 31.2824 33.732 31.3527C33.8 31.3096 33.8793 31.2847 33.9654 31.2824C34.2193 31.2779 34.4277 31.4773 34.4323 31.7311C34.4323 31.7515 34.4323 31.7719 34.43 31.7901C34.4935 31.5725 34.6929 31.4116 34.9309 31.4071C35.1598 31.4025 35.3569 31.5408 35.4385 31.7425C35.4385 31.7289 35.4362 31.7153 35.4362 31.7017C35.4317 31.4433 35.6357 31.2303 35.894 31.2235C35.9756 31.2235 36.0527 31.2416 36.1206 31.2756H36.1229Z" fill="url(#paint5_linear_2805_58755)"/>
<path d="M36.628 30.691C36.7685 30.6434 36.8705 30.5074 36.866 30.3488C36.8614 30.1539 36.7005 29.9975 36.5034 30.002C36.5034 30.002 36.4988 30.002 36.4966 30.002C36.5396 29.9408 36.5646 29.8683 36.5646 29.789C36.56 29.5941 36.3991 29.4377 36.202 29.4423C36.1657 29.4423 36.1317 29.4491 36.1 29.4604C36.0864 29.295 35.9459 29.1658 35.7759 29.168C35.6898 29.168 35.615 29.2066 35.5583 29.261C35.5017 29.1703 35.3997 29.1091 35.2818 29.1114C35.1527 29.1137 35.0439 29.1952 34.9963 29.3063L34.7561 29.3108C34.6994 29.2111 34.5929 29.1431 34.4705 29.1454C34.3414 29.1477 34.2326 29.227 34.185 29.338C34.1261 29.2791 34.0422 29.2428 33.9538 29.2451C33.7771 29.2496 33.6388 29.3947 33.6411 29.5692C33.6411 29.5714 33.6411 29.5737 33.6411 29.576C33.6025 29.5624 33.5595 29.5533 33.5142 29.5556C33.3193 29.5601 33.1629 29.721 33.1674 29.9159C33.1674 29.959 33.1788 30.002 33.1924 30.0406C33.036 30.0791 32.9204 30.2241 32.9249 30.3918C32.9295 30.5845 33.0858 30.7363 33.2762 30.7386C33.1289 30.7998 33.0269 30.9448 33.0292 31.1148C33.0337 31.3346 33.215 31.5068 33.4348 31.5023C33.5051 31.5023 33.5708 31.4796 33.6275 31.4479C33.5572 31.5295 33.5164 31.636 33.521 31.7516C33.5255 32.0054 33.7363 32.2048 33.9878 32.2003C34.1918 32.1958 34.3595 32.0598 34.4161 31.8762C34.4139 31.9012 34.4116 31.9284 34.4116 31.9556C34.4184 32.2502 34.6632 32.4859 34.9578 32.4791C35.2524 32.4723 35.4881 32.2275 35.4813 31.9329C35.4813 31.9148 35.4813 31.8966 35.4767 31.8785C35.5493 32.0485 35.7192 32.1663 35.9164 32.1618C36.1748 32.1573 36.3787 31.942 36.3742 31.6836C36.3719 31.5771 36.3334 31.4796 36.2722 31.4026C36.3266 31.4275 36.3878 31.4434 36.4512 31.4411C36.6711 31.4366 36.8433 31.2553 36.8388 31.0355C36.8365 30.8859 36.7504 30.759 36.628 30.6932V30.691ZM35.4382 31.6995C35.4382 31.7131 35.4382 31.7267 35.4405 31.7403C35.3589 31.5408 35.1617 31.4003 34.9328 31.4049C34.6949 31.4094 34.4955 31.5703 34.432 31.7878C34.4343 31.7675 34.4365 31.7493 34.4343 31.7289C34.4297 31.4774 34.219 31.2757 33.9674 31.2802C33.8813 31.2802 33.802 31.3074 33.734 31.3505C33.7906 31.2802 33.8224 31.1918 33.8201 31.0944C33.8156 30.8768 33.6365 30.7046 33.419 30.7068C33.5459 30.6502 33.632 30.5233 33.6297 30.376C33.6297 30.3306 33.6207 30.2898 33.6048 30.2513C33.7612 30.2128 33.8768 30.07 33.8722 29.9C33.8722 29.8887 33.8722 29.8774 33.8722 29.8683C33.9017 29.8774 33.9334 29.8819 33.9651 29.8797C34.0943 29.8774 34.2031 29.7981 34.2507 29.687C34.3096 29.7459 34.3935 29.7822 34.4841 29.7799C34.611 29.7799 34.7176 29.7006 34.7674 29.5941L35.0167 29.5896C35.0734 29.6848 35.1799 29.7505 35.2977 29.7459C35.3838 29.7459 35.4586 29.7097 35.5153 29.653C35.5719 29.7437 35.6762 29.8049 35.7918 29.8026C35.8144 29.8026 35.8371 29.7981 35.8575 29.7935V29.8003C35.862 29.9952 36.0229 30.1516 36.2201 30.1471C36.2201 30.1471 36.2246 30.1471 36.2269 30.1471C36.1838 30.206 36.1589 30.2808 36.1589 30.3601C36.1612 30.487 36.2314 30.5981 36.3334 30.657C36.1657 30.7068 36.0433 30.8632 36.0478 31.0468C36.0478 31.1306 36.0773 31.2077 36.1249 31.2734C36.0569 31.2371 35.9799 31.219 35.8983 31.2213C35.6399 31.2258 35.436 31.4411 35.4405 31.6995H35.4382Z" fill="url(#paint6_linear_2805_58755)"/>
<path d="M26.4886 4.89297C26.4886 4.89297 24.9634 5.45274 24.7095 6.67199C24.3855 8.22891 25.0132 10.5881 25.4597 10.9348C25.9061 11.2816 29.2307 11.8844 31.3157 10.9416C33.4007 9.99887 30.6721 6.07143 29.5299 5.07654C28.3877 4.08391 26.935 4.64595 26.4886 4.89297Z" fill="#AD9784"/>
<path d="M34.8943 0.657141C34.8943 0.657141 32.2133 2.04636 32.0637 2.84182C31.9142 3.63501 34.5453 4.2809 36.1339 4.03388C37.7226 3.78459 38.4183 2.24579 38.7651 1.4526C39.1118 0.657141 36.6801 0.0633791 34.892 0.657141H34.8943Z" fill="#AD9784"/>
<path d="M36.2268 8.18316C36.2268 8.18316 35.1753 8.02679 35.76 8.80638C36.3447 9.58598 37.2806 10.1299 37.8245 9.74235C38.3707 9.35255 38.9939 8.65228 39.2659 7.75484C39.5378 6.85966 39.1095 6.66476 38.058 7.32651C37.0064 7.98826 36.2268 8.18316 36.2268 8.18316Z" fill="#9C8671"/>
<path d="M43.1846 7.10084C43.1846 7.10084 41.4464 7.64701 41.1993 8.19318C40.9523 8.73935 41.6458 10.8243 44.0798 12.2657C46.5115 13.7047 47.3568 13.4577 47.5063 11.8192C47.6559 10.1807 46.167 6.85382 43.1868 7.10311L43.1846 7.10084Z" fill="#AD9784"/>
<path d="M48.9972 15.6523C48.9972 15.6523 47.0822 15.6523 46.5225 17.0393C46.5225 17.6671 48.7003 18.1611 49.7564 17.9299C50.8125 17.6988 50.8442 16.0149 48.9972 15.6523Z" fill="#9C8671"/>
<path d="M29.5386 13.3281C29.5386 13.3281 27.5058 13.378 26.7443 14.1417C25.9828 14.9032 29.1828 14.8533 29.8445 14.6494C30.5063 14.4454 31.5216 13.4301 29.5386 13.3281Z" fill="#AD9784"/>
<path d="M20.6214 16.765C20.6214 16.765 20.1636 17.3543 19.6537 18.3197C19.1461 19.2851 18.5365 20.3004 20.1115 20.3004C21.6866 20.3004 22.9579 19.8426 24.0752 18.8273C25.1925 17.8098 23.0599 17.7599 21.4826 16.8444C21.4826 16.8444 20.907 16.3707 20.6192 16.7628L20.6214 16.765Z" fill="#9C8671"/>
<path d="M22.2687 22.5406C22.2687 22.5406 20.4716 22.9123 20.1611 23.3452C19.8506 23.7803 22.0829 25.0177 23.3837 25.0811C24.6846 25.1423 25.3667 23.9661 25.6772 22.7877C25.9877 21.6092 23.5696 22.2914 22.2687 22.5406Z" fill="#967D65"/>
<path d="M16.567 19.0085C16.567 19.0085 15.2662 19.6906 15.0169 20.4951C14.7699 21.2996 14.6452 22.5416 14.2736 23.4073C13.9019 24.2753 14.0265 26.0724 14.5206 26.6299C15.0169 27.1874 16.814 24.8939 17.1857 23.9648C17.5574 23.0356 16.5036 21.9818 17.1245 20.4929C17.7432 19.0062 17.2492 18.7569 16.567 19.0062V19.0085Z" fill="#9C8671"/>
<path d="M20.3473 25.2678C20.3473 25.2678 17.8068 26.1969 17.2493 27.7471C16.6918 29.2972 19.4181 30.351 21.5869 30.598C23.7558 30.845 25.1812 29.3584 24.7484 28.615C24.3155 27.8717 23.3841 27.4366 22.7654 27.9329C22.1467 28.4292 21.3399 28.9255 22.0221 27.6859C22.7042 26.4462 21.5892 25.1454 20.3496 25.27L20.3473 25.2678Z" fill="#B29D8A"/>
<path d="M19.9753 32.2088C19.9753 32.2088 17.9288 31.9618 17.3101 32.3947C16.6915 32.8275 19.1073 34.006 20.6574 33.1992C21.5186 32.7528 20.5328 32.27 19.9753 32.2088Z" fill="#B29D8A"/>
<path d="M28.0319 33.4491C28.0319 33.4491 25.9877 33.2021 25.3668 33.6349C24.7481 34.0678 27.1639 35.2462 28.7141 34.4417C29.5752 33.993 28.5894 33.5125 28.0319 33.4491Z" fill="#967D65"/>
<path d="M32.123 31.59C32.123 31.59 31.1938 31.2796 30.7587 31.7759C30.3258 32.2722 32.0595 33.326 32.9275 33.6977C33.7955 34.0693 34.353 33.2014 33.7955 32.5827C33.238 31.964 32.6805 31.7759 32.123 31.59Z" fill="#967D65"/>
<path d="M43.0933 32.0857C43.0933 32.0857 40.7387 32.829 40.0565 34.0075C39.3744 35.1859 44.9517 35.7434 46.6264 35.1859C48.299 34.6284 47.1228 33.3253 46.4406 32.7066C45.7585 32.0857 44.2718 31.7775 43.0933 32.0857Z" fill="#B29D8A"/>
<path d="M49.353 20.9913C49.353 20.9913 47.9887 21.2383 46.749 23.0377C46.1281 24.2162 49.1037 24.402 50.6538 23.6587C52.2039 22.9154 51.4583 20.6219 49.353 20.9936V20.9913Z" fill="#AD9784"/>
<path d="M40.9854 2.58398C40.9854 2.58398 40.7384 3.51315 40.3033 4.1953C40.1174 4.87745 42.1004 4.7528 42.7214 4.38113C43.34 4.00947 42.1027 2.58398 40.9854 2.58398Z" fill="#9C8671"/>
<path d="M35.8274 13.4728C35.8274 13.4728 35.4263 13.756 35.5214 14.2048C35.6166 14.6535 35.7821 14.8665 35.9928 15.2201C36.2059 15.5736 36.1809 15.8569 36.1333 16.258C36.0857 16.6591 36.3917 16.6365 36.4869 16.9175C36.5821 17.2008 36.9107 16.752 36.8404 16.2807C36.7702 15.8093 36.6999 15.4535 36.888 14.9821C37.0761 14.5107 37.2891 14.2025 37.2189 13.7787C37.1486 13.3527 36.2036 13.2348 35.8251 13.4728H35.8274Z" fill="#685241"/>
<path d="M31.7689 16.1867C31.7689 16.1867 30.9418 16.4949 31.1797 16.7306C31.4154 16.9663 31.4403 17.202 31.4154 17.3675C31.3927 17.5329 31.6738 17.8162 31.9344 17.9567C32.195 18.0972 32.2403 18.24 32.2879 18.4054C32.3355 18.5708 32.5712 18.4757 32.5485 18.1697C32.5259 17.8615 32.6437 17.6258 32.6437 17.2723C32.6437 16.9187 32.5259 16.6105 32.714 16.3046C32.9021 15.9964 32.4534 15.951 31.7689 16.1867Z" fill="#685241"/>
<path d="M39.7234 13.78C39.7234 13.78 39.4175 14.1109 39.4401 14.4644C39.4628 14.818 39.252 15.244 39.4877 15.6202C39.7234 15.9964 39.7461 16.2095 39.771 16.4701C39.7937 16.7307 40.0293 16.5653 40.0293 16.069C40.0293 15.5726 40.3126 15.2418 40.4781 14.9358C40.6435 14.6299 40.8316 14.1336 40.5483 13.8979C40.265 13.6622 39.7687 13.7098 39.7211 13.78H39.7234Z" fill="#685241"/>
</g>
<defs>
<linearGradient id="paint0_linear_2805_58755" x1="37.8903" y1="25.8963" x2="37.811" y2="30.1546" gradientUnits="userSpaceOnUse">
<stop stop-color="#3F3F3F"/>
<stop offset="1"/>
</linearGradient>
<linearGradient id="paint1_linear_2805_58755" x1="39.5127" y1="26.7696" x2="40.3489" y2="25.5776" gradientUnits="userSpaceOnUse">
<stop stop-color="#3F3F3F"/>
<stop offset="1"/>
</linearGradient>
<linearGradient id="paint2_linear_2805_58755" x1="40.1425" y1="27.2112" x2="40.9788" y2="26.0169" gradientUnits="userSpaceOnUse">
<stop stop-color="#3F3F3F"/>
<stop offset="1"/>
</linearGradient>
<linearGradient id="paint3_linear_2805_58755" x1="40.1658" y1="27.2267" x2="40.9997" y2="26.0324" gradientUnits="userSpaceOnUse">
<stop stop-color="#3F3F3F"/>
<stop offset="1"/>
</linearGradient>
<linearGradient id="paint4_linear_2805_58755" x1="39.5127" y1="26.7688" x2="40.349" y2="25.5768" gradientUnits="userSpaceOnUse">
<stop stop-color="#3F3F3F"/>
<stop offset="1"/>
</linearGradient>
<linearGradient id="paint5_linear_2805_58755" x1="33.4215" y1="30.6909" x2="36.3337" y2="30.6909" gradientUnits="userSpaceOnUse">
<stop stop-color="#3F3F3F"/>
<stop offset="1"/>
</linearGradient>
<linearGradient id="paint6_linear_2805_58755" x1="32.9249" y1="30.793" x2="36.866" y2="30.793" gradientUnits="userSpaceOnUse">
<stop stop-color="#3F3F3F"/>
<stop offset="1"/>
</linearGradient>
<clipPath id="clip0_2805_58755">
<rect width="68.9715" height="43.2743" fill="white"/>
</clipPath>
</defs>
</svg>
