<svg width="87" height="123" viewBox="0 0 87 123" fill="none" xmlns="http://www.w3.org/2000/svg">
<g clip-path="url(#clip0_2830_29861)">
<path d="M60.6757 11.1424C51.6778 7.12848 41.1205 7.76296 33.138 12.7901C25.8022 17.4141 20.6057 25.1825 19.2411 33.5766L19.1176 34.324L19.8387 34.5642C26.1946 36.7157 32.8814 37.6304 39.709 37.2912L40.2129 37.2628L40.4502 36.8125C42.3553 33.237 46.0174 31.2661 50.0079 31.6757C52.6789 31.949 55.2347 33.5917 56.3671 35.7595C56.954 36.8804 57.4075 38.6495 56.2537 40.7278C54.4377 43.9939 50.528 45.4308 46.7455 46.819C45.4917 47.279 44.3016 47.7146 43.1879 48.2126C41.139 49.1328 38.1961 50.6651 36.2893 53.3035C34.0384 56.4069 33.6872 60.3395 33.6114 63.0228C33.4819 67.8905 33.8601 73.0279 34.7648 78.7233L34.8734 79.3874L35.5389 79.473C41.7285 80.2432 48.042 80.35 54.3036 79.7992L55.0879 79.7307L55.1171 78.9427C55.155 77.8013 55.0064 76.6565 54.8678 75.5529C54.7618 74.7343 54.6598 73.9554 54.6397 73.2144C54.5571 70.6892 55.2344 68.6326 56.6544 67.0924C58.1265 65.493 60.1988 64.5265 62.206 63.5905C64.5883 62.4807 67.0916 61.1786 69.2444 59.1966C76.0745 52.9209 79.2901 42.8514 77.6351 32.923C76.0283 23.2963 69.6934 15.1543 60.6771 11.1362L60.6757 11.1424Z" fill="#D1AC64"/>
<path d="M58.2924 99.5691C57.0481 95.7221 53.6779 92.7069 50.0895 92.233C49.7137 92.1805 47.954 92.0483 46.1972 92.3043C45.1352 92.4587 43.9407 92.7706 42.6377 93.2195L42.5467 93.2506C38.603 94.6089 35.6586 97.8658 34.8564 101.735C33.8568 106.594 36.3556 112.068 40.6745 114.457C41.6455 114.993 42.6879 115.383 43.7637 115.626C47.3906 116.445 51.3968 115.611 54.3253 113.255C58.1784 110.151 59.8467 104.39 58.2938 99.5629L58.2924 99.5691Z" fill="#D1AC64"/>
<path d="M53.69 54.8061C65.9872 50.126 66.519 41.8153 66.519 41.8153C66.519 41.8153 69.9121 23.5165 50.4869 21.3357C36.3546 19.7486 31.3443 30.7569 29.6659 36.8773C32.9632 37.3242 36.3161 37.4671 39.7077 37.2958L40.2116 37.2674L40.4489 36.817C42.354 33.2415 46.0161 31.2706 50.0066 31.6802C52.6776 31.9535 55.2335 33.5962 56.3658 35.764C56.9527 36.8849 57.4062 38.654 56.2524 40.7323C54.4364 43.9984 50.5267 45.4354 46.7442 46.8235C45.4904 47.2835 44.3003 47.7191 43.1866 48.2172C41.1377 49.1373 38.1948 50.6697 36.288 53.308C34.0372 56.4114 33.6859 60.344 33.6101 63.0273C33.4806 67.8951 33.8588 73.0324 34.7635 78.7279L34.8721 79.3919L35.5376 79.4775C38.6485 79.863 41.7906 80.0811 44.9368 80.1386C44.6448 77.8827 44.3964 75.0616 44.418 72.0172C44.4766 64.8013 41.3819 59.4773 53.6791 54.7972L53.69 54.8061Z" fill="#A87934"/>
<path d="M44.3675 105.596C42.5614 98.9995 44.9256 94.2485 45.9722 92.3592C44.9654 92.5261 43.8469 92.8163 42.6411 93.2355L42.5501 93.2666C38.6064 94.6248 35.662 97.8818 34.8598 101.751C33.8602 106.61 36.359 112.084 40.6779 114.473C41.6489 115.009 42.6913 115.399 43.7671 115.642C47.3141 116.443 51.2251 115.658 54.1348 113.414C51.5205 113.348 45.9081 111.222 44.3675 105.596Z" fill="#A87934"/>
<path d="M30.5193 22.8798C34.9275 17.6597 41.2578 14.5144 48.0921 14.2026C49.9263 14.1191 49.8024 11.2615 47.9559 11.3422C40.4236 11.6838 33.2952 15.1594 28.4225 20.9207C27.2333 22.3255 29.3239 24.2832 30.5145 22.8722L30.5193 22.8798Z" fill="#FFF4BD"/>
<path d="M52.7774 14.6771C53.8623 14.8509 54.9352 15.106 55.9627 15.5058C56.6815 15.7843 57.5042 15.6599 57.8983 14.9154C58.225 14.2979 58.033 13.2597 57.308 12.9798C56.0368 12.4862 54.7544 12.0999 53.4072 11.8863C52.6461 11.7662 51.8744 12.1799 51.6968 12.9668C51.5345 13.686 52.0102 14.5557 52.7774 14.6771Z" fill="#FFF4BD"/>
<path d="M43.9192 97.6165C46.5084 96.7924 49.5031 96.118 51.83 97.974C53.0837 98.974 54.8013 97.1457 53.5353 96.1429C50.4422 93.6748 46.7169 94.0938 43.1594 95.2291C41.6281 95.7169 42.3741 98.1076 43.913 97.6151L43.9192 97.6165Z" fill="#FFF4BD"/>
<path d="M54.1334 101.683C55.7071 102.039 56.2579 99.5981 54.6842 99.2429C53.1105 98.8878 52.5597 101.328 54.1334 101.683Z" fill="#FFF4BD"/>
<path d="M79.9193 32.6785C78.2439 22.7262 72.105 14.2021 63.0315 9.69309C53.9287 5.17096 42.9609 4.90525 33.9006 9.6698C25.1382 14.2884 18.9319 22.953 17.1039 32.5992C16.8994 33.6772 16.7516 34.7615 16.6591 35.8582C17.6401 36.2347 18.6328 36.5879 19.6311 36.9165C25.734 38.9011 32.1035 39.8475 38.5252 39.6752C39.6299 39.6467 40.7307 39.5786 41.8369 39.4858C42.1295 38.4471 42.6473 37.498 43.315 36.6861C45.3958 34.1645 48.9889 32.9856 52.2178 34.7092C54.6217 35.9946 55.3939 38.5269 53.4698 40.6122C51.7768 42.4461 49.251 43.3038 46.9842 44.1877C42.9311 45.7732 38.5944 47.3269 35.5413 50.5788C31.8763 54.4806 31.2151 59.9584 31.2844 65.0906C31.3405 69.4511 31.7342 73.8038 32.3626 78.119C32.5243 79.2343 32.6997 80.3463 32.895 81.4564C34.0011 81.622 35.1114 81.7692 36.2196 81.8966C41.9831 82.5512 47.7935 82.6544 53.5682 82.2003C54.6868 82.1104 55.8033 82.0006 56.9179 81.871C57.2476 80.7825 57.3708 79.6926 57.3744 78.5887C57.3743 77.5874 57.2867 76.5727 57.1725 75.5327C56.8871 72.9616 56.6224 70.2984 58.6691 68.357C60.4032 66.7133 62.8223 65.8703 64.9453 64.8506C67.336 63.704 69.492 62.1943 71.4004 60.3509C78.6868 53.3125 81.5787 42.5304 79.9207 32.6724L79.9193 32.6785ZM68.6359 58.5448C66.6223 60.3967 64.2812 61.6385 61.8263 62.7836C59.7465 63.7549 57.5791 64.771 55.9965 66.4876C54.2767 68.3542 53.6667 70.7425 53.7487 73.2418C53.8076 75.0705 54.2947 77.0345 54.2325 78.9133C48.044 79.4549 41.8255 79.3565 35.6543 78.5905C34.8359 73.4572 34.3774 68.2177 34.5153 63.0547C34.6024 59.8636 35.107 56.4824 37.0228 53.8332C38.6392 51.5944 41.0903 50.1513 43.5643 49.0364C48.0659 47.0095 54.4375 45.8568 57.0401 41.166C59.8497 36.102 55.0363 31.2946 50.1049 30.789C45.5643 30.3264 41.6261 32.7195 39.6666 36.3925C33.0345 36.7241 26.4126 35.837 20.1276 33.7144C21.4684 25.4829 26.5731 17.978 33.6213 13.5411C41.5963 8.51872 51.7453 8.14743 60.3104 11.9603C69.021 15.8448 75.1738 23.6485 76.7471 33.0803C78.2727 42.2365 75.5736 52.1642 68.6359 58.5448Z" fill="#664523"/>
<path d="M60.8288 99.3218C62.4845 105.297 60.2529 112.093 55.1876 115.731C50.2154 119.299 42.9882 119.348 38.0493 115.726C33.2255 112.196 30.8745 105.437 32.8236 99.7205C34.2385 95.5692 37.6156 92.313 41.6771 90.891C42.4915 90.6031 44.4549 90.0901 46.2691 89.8664C47.7523 89.6778 49.1362 89.7576 49.6228 89.7769C54.7553 90.0501 59.3581 94.0154 60.8288 99.3218ZM53.8735 112.708C57.584 109.721 59.0551 104.29 57.6091 99.7904C56.4981 96.3547 53.4626 93.402 49.9924 92.9484C49.5599 92.8896 47.8972 92.7857 46.3004 93.0197C44.6229 93.2677 43.0098 93.8598 42.7806 93.9309C39.242 95.1544 36.3437 98.0923 35.5582 101.888C34.6162 106.463 36.931 111.578 41.0207 113.839C45.0066 116.043 50.3296 115.558 53.8749 112.702L53.8735 112.708Z" fill="#664523"/>
</g>
<defs>
<clipPath id="clip0_2830_29861">
<rect width="63.7812" height="111.026" fill="white" transform="translate(24.4409) rotate(12.7171)"/>
</clipPath>
</defs>
</svg>
