<svg width="300" height="304" viewBox="0 0 300 304" fill="none" xmlns="http://www.w3.org/2000/svg">
<g clip-path="url(#clip0_517_47)">
<path d="M151.067 0H161.882C165.047 0.72826 168.069 0.754128 171.326 1.08869C214.095 5.48165 253.423 30.639 278.383 65.1712C290.745 82.2727 297.29 104.011 299.272 124.908C299.45 126.784 299.615 128.757 300 130.611V144.209C299.26 147.974 298.97 152.741 298.57 156.633C292.388 217.04 249.751 272.237 193.377 294.435C186.416 297.175 179.454 299.447 172.118 300.957C169.733 301.465 167.332 301.892 164.919 302.245C163.051 302.51 153.353 303.507 152.403 304H137.842C136.041 303.197 125.038 302.298 121.791 301.75C88.015 296.06 59.9183 275.815 36.9355 251.327C22.4094 235.85 12.1634 220.261 5.80615 199.845C3.8913 193.705 2.5003 187.414 1.64808 181.04C1.30895 178.41 0.69416 170.981 0.0779037 168.91L0 168.657V152.606C0.56468 150.581 0.783052 146.761 1.03999 144.477C1.44022 140.664 2.02558 136.872 2.79398 133.115C9.2053 101.002 22.8512 72.6462 45.4593 48.6413C65.169 27.7135 91.715 11.1092 119.825 4.48185C125.784 3.109 131.818 2.07926 137.895 1.39768C141.858 0.977205 147.305 0.704845 151.067 0Z" fill="#5A2B0B"/>
<path d="M131.251 13.5884L131.147 13.1868C133.458 12.8646 135.506 12.4288 137.747 11.7845C138.44 11.5852 139.628 12.6877 140.404 11.7887L139.783 11.4272C140.961 11.1695 143.075 11.3124 144.344 11.2784L154.136 11.1077C155.723 11.0854 160.423 10.5155 161.538 11.3983C160.547 11.3969 159.623 11.4653 158.637 11.5312C166.606 12.2619 173.985 12.7278 181.902 14.5154C201.375 18.912 220.605 29.0806 233.432 44.6179C237.026 48.9696 239.886 53.1884 242.886 57.8791C243.12 57.8969 243.713 57.8664 243.82 58.0529C257.903 82.5206 259.925 112.734 254.895 140.047C251.725 156.633 245.901 172.6 237.652 187.335L237.237 187.462L236.751 187.186C223.946 208.831 208.444 226.783 187.415 240.95C183.801 243.397 180.092 245.699 176.296 247.851C175.075 248.543 169.108 251.492 168.485 252.072L168.782 252.645C167.539 254.245 152.09 260.375 149.478 259.59C146.348 260.23 143.112 261.287 139.972 262.03C103.664 270.645 65.583 262.225 38.9895 235.131C19.3393 215.112 11.672 189.673 11.548 162.083C11.5339 158.937 11.8661 155.734 11.9414 152.562L11.7073 152.709L11.4776 152.402C11.4738 150.779 11.3829 146.38 11.7554 144.887C13.1498 139.299 13.6066 133.182 15.1965 127.716L15.5995 127.736C16.4006 126.108 18.0934 118.48 18.7932 116.225C32.9428 70.6261 68.9893 31.7256 115.014 17.5886C120.659 15.8547 125.676 15.1199 131.066 13.6404L131.251 13.5884Z" fill="#FEC424"/>
<path d="M242.886 57.8794C243.12 57.8971 243.713 57.8666 243.82 58.0531C257.902 82.5209 259.925 112.734 254.895 140.047C251.725 156.633 245.901 172.6 237.652 187.335L237.237 187.462L236.75 187.186C242.961 176.188 247.756 164.448 251.02 152.246C259.515 121.268 259.115 86.3549 242.886 57.8794Z" fill="#280A01"/>
<path d="M131.25 13.5884L131.147 13.1868C133.458 12.8646 135.506 12.4288 137.747 11.7845C138.44 11.5852 139.628 12.6877 140.404 11.7887L139.783 11.4272C140.961 11.1695 143.075 11.3124 144.344 11.2784L154.136 11.1077C155.723 11.0854 160.423 10.5155 161.538 11.3983C160.547 11.3969 159.623 11.4653 158.636 11.5312C150.485 11.5424 142.846 11.6813 134.8 13.1017C133.765 13.2844 132.291 13.5166 131.25 13.5884Z" fill="#3C1606"/>
<path d="M149.478 259.59C156.843 257.227 161.455 255.242 168.485 252.072L168.782 252.645C167.539 254.245 152.09 260.375 149.478 259.59Z" fill="#3C1606"/>
<path d="M11.9414 152.562L11.7073 152.709L11.4776 152.402C11.4738 150.779 11.3829 146.38 11.7554 144.887C13.1498 139.299 13.6066 133.182 15.1965 127.716L15.5995 127.736C13.7864 137.061 12.7008 143.079 11.9414 152.562Z" fill="#3C1606"/>
<path d="M88.2202 57.9305C108.657 44.2923 126.754 37.3563 152.022 38.047C166.826 38.4515 188.721 45.7615 198.825 56.8898C200.637 58.575 202.041 59.9638 203.727 61.7728C207.323 64.9183 211.812 71.8523 213.978 76.1185C218.456 85.0908 222.246 96.127 223.154 106.134C224.094 110.35 224.44 130.735 222.638 134.528C222.366 137.228 220.809 144.993 219.924 147.661C218.689 153.194 216.256 159.745 213.951 164.997C216.35 165.052 231.036 171.388 234.668 172.753C229.507 183.412 218.586 202.955 210.225 210.902C200.073 221.616 191.723 229.922 179.109 238.083C176.456 239.799 172.431 242.593 169.677 243.857C166.688 237.73 162.379 230.834 159.725 224.755C153.267 227.944 148.572 230.047 141.691 232.399C99.3797 245.119 56.3265 229.954 40.0895 186.855C30.9202 160.61 34.1807 135.737 44.6712 110.55C46.1102 107.298 47.848 104.127 49.5285 100.99C45.6615 99.4133 37.0672 94.1848 33 91.8953C35.2568 88.7245 37.3692 85.1105 39.531 81.8183C49.3385 66.8805 63.798 50.5063 79.607 41.6298C81.3952 44.5645 86.8115 56.4298 88.2202 57.9305Z" fill="#5A2B0B"/>
<path d="M35.976 91.0629C38.2327 87.8921 40.3452 84.2781 42.507 80.9859C52.3145 66.0481 66.774 49.6739 82.583 40.7974C84.3712 43.7321 89.7875 55.5974 91.1962 57.0981C88.9267 58.7349 84.3282 61.9444 82.4645 63.8524C79.141 66.6379 71.155 74.4859 68.275 77.9221C63.3882 82.4846 55.9635 94.3159 52.5045 100.157C48.6375 98.5809 40.0432 93.3524 35.976 91.0629Z" fill="#FEED9C"/>
<path d="M196.525 196.462C198.383 197.292 201.302 200.212 202.969 201.61C206.17 204.294 209.752 207.766 213.201 210.07C203.049 220.784 194.699 229.089 182.085 237.25C179.432 238.966 175.407 241.76 172.653 243.024C169.664 236.898 165.355 230.001 162.701 223.922C172.061 218.841 190.276 205.381 196.108 196.763L196.525 196.462Z" fill="#FEED9C"/>
<path d="M216.927 164.165C219.326 164.22 234.012 170.556 237.644 171.921C232.483 182.58 221.563 202.123 213.201 210.07C209.752 207.767 206.17 204.294 202.97 201.61C201.303 200.213 198.383 197.292 196.525 196.463L200.228 191.89C206.979 183.416 212.593 174.095 216.927 164.165Z" fill="#FED53B"/>
<path d="M47.6472 109.718C47.665 109.799 47.9025 110.88 47.9025 110.88C45.3105 119.668 41.1847 129.286 39.7835 138.306C38.0782 148.93 38.0497 159.755 39.6987 170.388C40.4502 175.027 42.2047 179.902 43.2605 184.506C43.3477 184.887 43.1592 185.634 43.0655 186.022C33.8962 159.778 37.1567 134.905 47.6472 109.718Z" fill="#3C1606"/>
<path d="M216.953 75.2861C221.432 84.2584 225.222 95.2946 226.13 105.301L225.923 105.73L225.68 105.738C224.963 104.068 224.588 99.7419 224.07 97.6444C222.33 90.6789 220.359 83.4681 216.859 77.1564C216.409 76.3446 216.657 76.1196 216.953 75.2861Z" fill="#280A01"/>
<path d="M82.4645 63.8525C82.1462 65.1645 80.5837 66.2378 79.594 67.2593C76.2007 70.761 72.7037 75.7275 68.275 77.9223C71.155 74.486 79.141 66.638 82.4645 63.8525Z" fill="#3C1606"/>
<path d="M222.9 146.829L222.633 146.223C223.508 142.82 223.35 139.403 224.821 136.222C225.096 135.627 224.92 134.196 225.352 133.275L225.614 133.695C225.342 136.396 223.785 144.16 222.9 146.829Z" fill="#3C1606"/>
<path d="M196.108 196.763C196.14 195.379 197.408 193.692 198.314 192.701C199.125 191.812 199.23 191.917 200.228 191.89L196.525 196.463L196.108 196.763Z" fill="#3C1606"/>
<path d="M201.801 56.0576C203.613 57.7429 205.017 59.1316 206.703 60.9406L206.371 61.0666C205.025 60.7614 202.447 57.8054 201.671 56.6554L201.801 56.0576Z" fill="#3C1606"/>
<path d="M204.151 73.7006C251.705 144.173 161.608 257.415 82.666 217.546C69.8585 210.879 59.2075 199.615 54.0062 185.83C27.6662 116.023 103.867 26.6636 177.157 52.8231C178.637 53.3514 180.406 54.2241 181.93 54.8759C182.721 54.5589 182.685 54.5024 183.522 54.9099C190.127 58.1229 195.749 62.9301 200.669 68.3309C201.553 69.3006 204.747 72.4849 204.151 73.7006Z" fill="#F79A03"/>
<path d="M181.93 54.8758C182.721 54.5588 182.685 54.5023 183.522 54.9098C190.127 58.1228 195.749 62.9301 200.669 68.3308C201.553 69.3006 204.747 72.4848 204.151 73.7006C197.665 65.1271 191.291 59.8278 181.93 54.8758Z" fill="#280A01"/>
<path d="M131.432 73.6058C131.474 73.5948 131.516 73.584 131.558 73.5733C137.708 72.997 144.999 74.079 145.649 81.3225C146.511 90.9383 142.181 97.338 136.807 104.521C130.024 113.59 122.573 120.913 112.92 126.868C105.135 131.831 101.221 134.237 92.0562 135.485L91.5787 135.532C84.5952 136.183 78.1885 134.763 77.6882 126.457C77.0477 115.825 85.1107 104.95 91.7685 97.3608C100.91 86.9413 117.091 74.5923 131.432 73.6058Z" fill="#FED53B"/>
<path d="M144.667 231.566C151.548 229.214 156.243 227.112 162.701 223.922C165.355 230.001 169.664 236.898 172.653 243.024C171.744 243.631 168.936 244.972 167.827 245.535C161.982 248.504 155.902 250.865 149.812 253.277C148.989 249.442 147.977 245.649 146.782 241.913C146.077 239.643 143.785 233.623 144.667 231.566Z" fill="#FED53B"/>
<path d="M239.872 199.868C247.611 204.82 257.157 213.084 265.155 218.67C256.867 232.796 246.27 245.238 233.96 256.002C232.811 257.005 231.715 257.94 230.468 258.822C222.567 253.277 212.784 245.371 205.079 239.428C213.307 232.153 222.621 222.956 229.423 214.36C233.022 209.814 236.383 204.61 239.872 199.868Z" fill="#D56D00"/>
<path d="M259.79 153.527C267.495 158.293 276.937 165.417 284.42 170.911C283.122 176.268 281.74 181.729 280.042 186.975C279.21 189.542 278.07 192.151 277.162 194.732C277.185 194.842 277.412 195.878 277.412 195.878C276.92 197.517 274.182 205.005 272.885 205.571L272.532 205.461C272.152 205.987 270.125 210.077 269.395 211.302C260.99 204.932 252.502 198.671 243.933 192.523C249.416 182.618 257.082 164.57 259.79 153.527Z" fill="#D56D00"/>
<path d="M277.163 194.732C277.185 194.843 277.413 195.878 277.413 195.878C276.92 197.517 274.183 205.005 272.885 205.572L272.533 205.461C274.113 201.901 275.655 198.324 277.163 194.732Z" fill="#3C1606"/>
<path d="M198.825 244.189C201.171 245.026 220.558 261.41 224.172 264.01C214.94 271.25 198.536 279.923 187.557 284.085C187.354 284.175 187.111 284.293 186.89 284.323C185.606 284.493 165.302 267.568 162.459 265.303C174.737 260.06 188.551 252.848 198.825 244.189Z" fill="#D56D00"/>
<path d="M154.064 268.288C155.089 268.553 175.264 285.523 177.664 287.443C166.727 290.913 151.957 292.868 140.689 292.135C139.591 292.053 137.277 291.948 136.418 291.433C133.233 289.525 129.714 286.223 126.858 283.775C123.277 280.723 119.679 277.693 116.062 274.683C129.676 274.538 141.166 272.32 154.064 268.288Z" fill="#D56D00"/>
<path d="M265.42 112.018C266.74 112.631 272.542 117.05 274.057 118.165C278.575 121.48 283.135 124.732 287.742 127.919C289.36 136.033 287.527 152.635 286.43 161.285C286.347 161.936 286.352 162.398 285.892 162.733L285.392 162.41C277.427 156.729 269.602 151.283 261.735 145.429C264.01 136.333 265.228 121.263 265.42 112.018Z" fill="#D56D00"/>
<path d="M248.373 51.3525C251.47 53.6213 256.127 58.024 258.892 60.7255L258.917 59.944C259.865 60.0583 260.552 61.2593 261.032 62.013L260.892 62.8523C271.582 75.5018 280.065 87.322 283.95 103.818C284.145 104.647 285.097 108.626 285.397 109.168L285.672 108.945C286.587 110.716 288.015 116.279 287.292 118.083L286.832 117.987L286.442 118.153C284.102 117.422 267.86 104.935 264.902 102.6C264.272 100.536 263.117 91.3703 262.435 88.1255C259.392 73.6573 255.47 64.0248 248.373 51.3525Z" fill="#D56D00"/>
<path d="M285.397 109.168L285.672 108.945C286.587 110.716 288.015 116.279 287.293 118.082L286.832 117.987C286.575 114.98 286.005 112.118 285.397 109.168Z" fill="#3C1606"/>
<path d="M258.892 60.7253L258.918 59.9438C259.865 60.0581 260.553 61.2591 261.033 62.0128L260.892 62.8521L258.892 60.7253Z" fill="#3C1606"/>
<path d="M74.3525 267.72C75.9533 267.6 84.9733 270.88 87.489 271.487C91.2798 272.402 103.167 273.71 105.419 274.805C107.167 275.655 123.174 289.058 123.564 290.128C121.6 290.165 116.517 288.785 114.524 288.275C102.81 285.267 91.6728 279.998 81.621 273.308C79.5385 271.923 75.9605 269.598 74.3525 267.72Z" fill="#D56D00"/>
</g>
<defs>
<clipPath id="clip0_517_47">
<rect width="300" height="304" fill="white"/>
</clipPath>
</defs>
</svg>
