<svg width="50" height="50" viewBox="0 0 50 50" fill="none" xmlns="http://www.w3.org/2000/svg">
<g clip-path="url(#clip0_517_47)">
<path d="M25.1778 0H26.9803C27.5078 0.11978 28.0115 0.124034 28.5544 0.179061C35.6825 0.901587 42.2371 5.03931 46.3971 10.719C48.4575 13.5317 49.5483 17.107 49.8788 20.544C49.9083 20.8526 49.9358 21.1772 50 21.4821V23.7186C49.8767 24.3379 49.8283 25.1218 49.7617 25.762C48.7313 35.6974 41.6252 44.7759 32.2295 48.4268C31.0693 48.8775 29.909 49.2512 28.6864 49.4996C28.2889 49.5831 27.8887 49.6534 27.4865 49.7113C27.1752 49.7549 25.5588 49.919 25.4005 50H22.9737C22.6736 49.868 20.8397 49.72 20.2986 49.6299C14.6692 48.6941 9.98638 45.3643 6.15592 41.3368C3.7349 38.7912 2.02723 36.2271 0.967692 32.8692C0.64855 31.8594 0.416717 30.8247 0.27468 29.7763C0.218158 29.3437 0.115693 28.122 0.012984 27.7813L0 27.7397V25.0997C0.0941133 24.7665 0.130509 24.1383 0.173331 23.7627C0.240037 23.1355 0.337597 22.5118 0.465663 21.894C1.53422 16.6122 3.80853 11.9484 7.57654 8.00021C10.8615 4.55814 15.2858 1.82717 19.9708 0.737146C20.964 0.511349 21.9696 0.341983 22.9825 0.229882C23.6429 0.160725 24.5508 0.115928 25.1778 0Z" fill="#5A2B0B"/>
<path d="M21.8751 2.23509L21.8578 2.16904C22.243 2.11604 22.5843 2.04436 22.9578 1.93839C23.0733 1.90562 23.2713 2.08695 23.4007 1.93909L23.2972 1.87963C23.4935 1.83725 23.8458 1.86075 24.0574 1.85516L25.6894 1.82709C25.9538 1.82341 26.7372 1.72967 26.923 1.87488C26.7579 1.87464 26.6039 1.88589 26.4394 1.89673C27.7676 2.01692 28.9975 2.09354 30.3171 2.38755C33.5625 3.11067 36.7674 4.78315 38.9054 7.33862C39.5043 8.05437 39.981 8.74824 40.481 9.51975C40.5201 9.52267 40.6188 9.51765 40.6367 9.54833C42.9838 13.5726 43.3208 18.542 42.4825 23.0342C41.9542 25.7621 40.9836 28.3883 39.6087 30.8118L39.5395 30.8327L39.4584 30.7873C37.3243 34.3474 34.7406 37.2999 31.2359 39.6302C30.6335 40.0325 30.0153 40.4112 29.3826 40.7652C29.1792 40.879 28.1847 41.364 28.0809 41.4594L28.1303 41.5536C27.9232 41.8167 25.3483 42.825 24.913 42.6959C24.3913 42.8011 23.852 42.9751 23.3287 43.0972C17.2774 44.5141 10.9305 43.1292 6.49825 38.673C3.22322 35.3804 1.94533 31.1964 1.92467 26.6585C1.92232 26.1412 1.97768 25.6142 1.99023 25.0926L1.95121 25.1167L1.91293 25.0663C1.9123 24.7993 1.89715 24.0758 1.95923 23.8303C2.19164 22.9112 2.26776 21.9052 2.53275 21.0061L2.59992 21.0093C2.73343 20.7416 3.01556 19.487 3.1322 19.116C5.49046 11.6163 11.4982 5.21819 19.169 2.89302C20.1098 2.60784 20.946 2.48698 21.8444 2.24365L21.8751 2.23509Z" fill="#FEC424"/>
<path d="M40.481 9.51953C40.5201 9.52245 40.6188 9.51743 40.6367 9.54811C42.9838 13.5724 43.3208 18.5417 42.4825 23.034C41.9542 25.7619 40.9836 28.3881 39.6087 30.8116L39.5395 30.8325L39.4584 30.7871C40.4935 28.9781 41.2926 27.0472 41.8367 25.0403C43.2525 19.9453 43.1858 14.203 40.481 9.51953Z" fill="#280A01"/>
<path d="M21.8751 2.23509L21.8578 2.16904C22.243 2.11604 22.5843 2.04436 22.9578 1.93839C23.0733 1.90562 23.2713 2.08695 23.4007 1.93909L23.2972 1.87963C23.4935 1.83725 23.8458 1.86075 24.0574 1.85516L25.6894 1.82709C25.9538 1.82341 26.7372 1.72967 26.923 1.87488C26.7579 1.87464 26.6039 1.88589 26.4394 1.89673C25.0808 1.89857 23.8076 1.92143 22.4666 2.15505C22.2942 2.18509 22.0485 2.22328 21.8751 2.23509Z" fill="#3C1606"/>
<path d="M24.913 42.6959C26.1405 42.3073 26.9092 41.9809 28.0809 41.4595L28.1303 41.5536C27.9232 41.8168 25.3482 42.825 24.913 42.6959Z" fill="#3C1606"/>
<path d="M1.99023 25.0923L1.95121 25.1165L1.91293 25.066C1.9123 24.799 1.89715 24.0755 1.95923 23.83C2.19164 22.911 2.26776 21.9049 2.53275 21.0059L2.59992 21.0091C2.29773 22.5427 2.1168 23.5327 1.99023 25.0923Z" fill="#3C1606"/>
<path d="M14.7034 9.52804C18.1095 7.28491 21.1256 6.14412 25.337 6.25773C27.8043 6.32426 31.4534 7.52656 33.1375 9.35687C33.4395 9.63405 33.6734 9.86246 33.9544 10.16C34.5538 10.6773 35.302 11.8178 35.6629 12.5195C36.4093 13.9952 37.041 15.8104 37.1924 17.4562C37.3489 18.1497 37.4066 21.5025 37.1063 22.1262C37.061 22.5704 36.8015 23.8475 36.654 24.2864C36.4482 25.1963 36.0427 26.2738 35.6585 27.1377C36.0584 27.1468 38.5059 28.1888 39.1113 28.4133C38.2511 30.1664 36.4311 33.3808 35.0375 34.6879C33.3455 36.45 31.9538 37.8161 29.8515 39.1583C29.4093 39.4406 28.7386 39.9001 28.2795 40.108C27.7813 39.1004 27.0633 37.9661 26.6208 36.9662C25.5445 37.4908 24.762 37.8366 23.6153 38.2234C16.5633 40.3155 9.38775 37.8213 6.68158 30.7326C5.15337 26.4161 5.69679 22.3251 7.44521 18.1826C7.68504 17.6477 7.97467 17.1261 8.25475 16.6102C7.61025 16.3509 6.17787 15.4909 5.5 15.1144C5.87613 14.5928 6.22821 13.9984 6.5885 13.457C8.22308 11.0001 10.633 8.30695 13.2678 6.847C13.5659 7.32969 14.4686 9.28121 14.7034 9.52804Z" fill="#5A2B0B"/>
<path d="M5.996 14.9773C6.37213 14.4558 6.72421 13.8614 7.0845 13.3199C8.71909 10.863 11.129 8.16991 13.7638 6.70996C14.0619 7.19265 14.9646 9.14417 15.1994 9.39101C14.8211 9.66021 14.0547 10.1881 13.7441 10.5019C13.1902 10.96 11.8592 12.2508 11.3792 12.816C10.5647 13.5664 9.32725 15.5123 8.75075 16.4731C8.10625 16.2138 6.67388 15.3539 5.996 14.9773Z" fill="#FEED9C"/>
<path d="M32.7542 32.313C33.0638 32.4494 33.5504 32.9298 33.8282 33.1597C34.3617 33.6011 34.9586 34.1722 35.5335 34.5511C33.8415 36.3132 32.4498 37.6793 30.3475 39.0215C29.9053 39.3038 29.2346 39.7633 28.7755 39.9712C28.2773 38.9636 27.5592 37.8293 27.1168 36.8294C28.6768 35.9937 31.7127 33.7799 32.6846 32.3624L32.7542 32.313Z" fill="#FEED9C"/>
<path d="M36.1545 27.001C36.5544 27.01 39.0019 28.052 39.6073 28.2766C38.7471 30.0297 36.9271 33.244 35.5335 34.5511C34.9586 34.1723 34.3617 33.6012 33.8283 33.1597C33.5504 32.9298 33.0638 32.4495 32.7542 32.3131L33.3713 31.561C34.4965 30.1672 35.4322 28.6342 36.1545 27.001Z" fill="#FED53B"/>
<path d="M7.94121 18.0459C7.94417 18.0592 7.98375 18.2371 7.98375 18.2371C7.55175 19.6824 6.86412 21.2643 6.63058 22.7479C6.34637 24.4952 6.34162 26.2757 6.61646 28.0245C6.74171 28.7875 7.03412 29.5894 7.21008 30.3465C7.22462 30.4092 7.19321 30.5322 7.17758 30.596C5.64937 26.2794 6.19279 22.1885 7.94121 18.0459Z" fill="#3C1606"/>
<path d="M36.1589 12.3828C36.9053 13.8585 37.537 15.6737 37.6884 17.3195L37.6538 17.3901L37.6133 17.3913C37.4939 17.1166 37.4314 16.4051 37.345 16.0602C37.055 14.9145 36.7265 13.7285 36.1431 12.6904C36.0681 12.5569 36.1095 12.5199 36.1589 12.3828Z" fill="#280A01"/>
<path d="M13.7441 10.502C13.691 10.7177 13.4306 10.8943 13.2657 11.0623C12.7001 11.6382 12.1173 12.4551 11.3792 12.8161C11.8592 12.2509 13.1902 10.9601 13.7441 10.502Z" fill="#3C1606"/>
<path d="M37.15 24.1496L37.1055 24.05C37.2514 23.4903 37.225 22.9282 37.4701 22.4051C37.516 22.3071 37.4867 22.0719 37.5586 21.9204L37.6023 21.9895C37.557 22.4336 37.2975 23.7107 37.15 24.1496Z" fill="#3C1606"/>
<path d="M32.6846 32.3625C32.6899 32.1349 32.9013 31.8574 33.0523 31.6943C33.1876 31.5482 33.205 31.5654 33.3713 31.561L32.7542 32.3131L32.6846 32.3625Z" fill="#3C1606"/>
<path d="M33.6335 9.22021C33.9355 9.49739 34.1694 9.72581 34.4504 10.0233L34.3951 10.0441C34.1708 9.99386 33.7412 9.50767 33.6119 9.31853L33.6335 9.22021Z" fill="#3C1606"/>
<path d="M34.0252 12.1219C41.9508 23.7127 26.9347 42.338 13.7777 35.7807C11.6431 34.6841 9.86792 32.8314 9.00104 30.5642C4.61104 19.0827 17.3112 4.38553 29.5261 8.68808C29.7728 8.77497 30.0677 8.91851 30.3217 9.02571C30.4536 8.97357 30.4475 8.96428 30.587 9.0313C31.6878 9.55975 32.6249 10.3504 33.4449 11.2387C33.5922 11.3982 34.1246 11.9219 34.0252 12.1219Z" fill="#F79A03"/>
<path d="M30.3217 9.02579C30.4536 8.97365 30.4475 8.96436 30.587 9.03138C31.6878 9.55983 32.6249 10.3505 33.4449 11.2388C33.5922 11.3983 34.1246 11.922 34.0252 12.122C32.9442 10.7118 31.8819 9.84026 30.3217 9.02579Z" fill="#280A01"/>
<path d="M21.9054 12.1062C21.9124 12.1044 21.9193 12.1026 21.9263 12.1009C22.9514 12.0061 24.1665 12.1841 24.2748 13.3754C24.4185 14.957 23.6968 16.0095 22.8012 17.191C21.6707 18.6825 20.4288 19.8871 18.82 20.8664C17.5225 21.6827 16.8702 22.0784 15.3427 22.2837L15.2631 22.2914C14.0992 22.3985 13.0314 22.1649 12.948 20.7988C12.8413 19.0502 14.1851 17.2615 15.2947 16.0133C16.8183 14.2996 19.5151 12.2685 21.9054 12.1062Z" fill="#FED53B"/>
<path d="M24.1113 38.0868C25.258 37.7 26.0405 37.3541 27.1168 36.8296C27.5593 37.8294 28.2773 38.9637 28.7755 39.9714C28.624 40.0712 28.156 40.2917 27.9712 40.3843C26.997 40.8726 25.9837 41.2609 24.9687 41.6577C24.8315 41.0269 24.6629 40.4031 24.4637 39.7885C24.3461 39.4152 23.9641 38.4251 24.1113 38.0868Z" fill="#FED53B"/>
<path d="M39.9786 32.873C41.2685 33.6875 42.8596 35.0467 44.1925 35.9654C42.8112 38.2888 41.045 40.3352 38.9933 42.1057C38.8019 42.2705 38.6192 42.4243 38.4113 42.5695C37.0945 41.6575 35.464 40.3571 34.1799 39.3795C35.5511 38.183 37.1035 36.6704 38.2372 35.2566C38.837 34.5088 39.3971 33.653 39.9786 32.873Z" fill="#D56D00"/>
<path d="M43.2983 25.2515C44.5825 26.0353 46.1563 27.2069 47.4033 28.1106C47.1871 28.9918 46.9567 29.89 46.6738 30.7527C46.535 31.1749 46.345 31.604 46.1938 32.0286C46.1975 32.0467 46.2354 32.217 46.2354 32.217C46.1533 32.4866 45.6971 33.7182 45.4808 33.8113L45.4221 33.7931C45.3588 33.8796 45.0208 34.5523 44.8992 34.7539C43.4983 33.7061 42.0838 32.6764 40.6555 31.6652C41.5694 30.036 42.8471 27.0677 43.2983 25.2515Z" fill="#D56D00"/>
<path d="M46.1938 32.0283C46.1975 32.0465 46.2354 32.2167 46.2354 32.2167C46.1533 32.4864 45.6971 33.7179 45.4808 33.8111L45.4221 33.7929C45.6854 33.2073 45.9425 32.6191 46.1938 32.0283Z" fill="#3C1606"/>
<path d="M33.1375 40.1626C33.5285 40.3001 36.7596 42.995 37.362 43.4226C35.8234 44.6134 33.0894 46.0398 31.2595 46.7244C31.2257 46.7392 31.1851 46.7585 31.1484 46.7635C30.9344 46.7914 27.5503 44.0077 27.0765 43.6352C29.1229 42.7729 31.4252 41.5867 33.1375 40.1626Z" fill="#D56D00"/>
<path d="M25.6773 44.1265C25.8481 44.1701 29.2106 46.9612 29.6107 47.277C27.7878 47.8477 25.3261 48.1692 23.4481 48.0488C23.2652 48.0352 22.8795 48.0179 22.7363 47.9332C22.2055 47.6195 21.619 47.0763 21.143 46.6737C20.5462 46.1717 19.9464 45.6733 19.3436 45.1783C21.6126 45.1544 23.5276 44.7897 25.6773 44.1265Z" fill="#D56D00"/>
<path d="M44.2367 18.4238C44.4567 18.5248 45.4237 19.2515 45.6762 19.4349C46.4292 19.9802 47.1892 20.515 47.9571 21.0392C48.2267 22.3737 47.9212 25.1043 47.7383 26.527C47.7246 26.6341 47.7254 26.7101 47.6487 26.7652L47.5654 26.712C46.2379 25.7777 44.9337 24.882 43.6225 23.9191C44.0017 22.423 44.2046 19.9444 44.2367 18.4238Z" fill="#D56D00"/>
<path d="M41.3955 8.44629C41.9117 8.81944 42.6879 9.54357 43.1488 9.9879L43.1529 9.85936C43.3108 9.87816 43.4254 10.0757 43.5054 10.1997L43.4821 10.3377C45.2638 12.4182 46.6775 14.3623 47.325 17.0755C47.3575 17.2118 47.5163 17.8662 47.5663 17.9554L47.6121 17.9187C47.7646 18.21 48.0025 19.125 47.8821 19.4216L47.8054 19.406L47.7404 19.4332C47.3504 19.3129 44.6433 17.2592 44.1504 16.8752C44.0454 16.5357 43.8529 15.0282 43.7392 14.4945C43.2321 12.1148 42.5783 10.5305 41.3955 8.44629Z" fill="#D56D00"/>
<path d="M47.5663 17.9551L47.6121 17.9185C47.7646 18.2097 48.0025 19.1247 47.8821 19.4213L47.8054 19.4057C47.7625 18.9111 47.6675 18.4404 47.5663 17.9551Z" fill="#3C1606"/>
<path d="M43.1487 9.98791L43.1529 9.85938C43.3108 9.87817 43.4254 10.0757 43.5054 10.1997L43.4821 10.3377L43.1487 9.98791Z" fill="#3C1606"/>
<path d="M12.3921 44.0328C12.6589 44.013 14.1622 44.5525 14.5815 44.6524C15.2133 44.8029 17.1945 45.018 17.5698 45.198C17.8611 45.3379 20.529 47.5422 20.594 47.7182C20.2667 47.7244 19.4195 47.4974 19.0873 47.4135C17.1349 46.9189 15.2788 46.0521 13.6035 44.9518C13.2564 44.724 12.6601 44.3416 12.3921 44.0328Z" fill="#D56D00"/>
</g>
<defs>
<clipPath id="clip0_517_47">
<rect width="50" height="50" fill="white"/>
</clipPath>
</defs>
</svg>
