<svg width="25" height="26" viewBox="0 0 25 26" fill="none" xmlns="http://www.w3.org/2000/svg">
<g clip-path="url(#clip0_2151_80188)">
<path d="M15.9398 1.49023C15.9398 1.49023 19.2198 2.49023 21.4298 5.04023C23.2198 6.92023 25.7398 12.2902 21.5998 19.3702C19.2998 23.2102 11.7198 28.1202 4.7998 21.4402C5.0298 21.2802 15.9398 1.49023 15.9398 1.49023Z" fill="#D87211" stroke="#542A16" stroke-miterlimit="10"/>
<path d="M19.3072 16.0862C22.2275 10.552 20.7183 4.02014 15.9364 1.49678C11.1545 -1.02658 4.91059 1.41415 1.9903 6.94829C-0.929998 12.4824 0.579159 19.0143 5.36109 21.5377C10.143 24.0611 16.3869 21.6203 19.3072 16.0862Z" fill="#FBC11D" stroke="#552A13" stroke-miterlimit="10"/>
<path d="M16.5885 14.8817C18.6763 10.9253 17.6604 6.28876 14.3194 4.52576C10.9784 2.76276 6.57747 4.54089 4.48971 8.49735C2.40194 12.4538 3.41789 17.0903 6.75889 18.8533C10.0999 20.6163 14.5008 18.8382 16.5885 14.8817Z" fill="#EC8C09" stroke="#552A13" stroke-miterlimit="10"/>
<path d="M20.48 8.5L23.82 10.74" stroke="#542A16" stroke-miterlimit="10"/>
<path d="M20.48 12.04L23.82 14.28" stroke="#542A16" stroke-miterlimit="10"/>
<path d="M19.1802 15.7998L22.5202 18.0298" stroke="#542A16" stroke-miterlimit="10"/>
<path d="M16.5098 19.8301L19.1098 21.7401" stroke="#542A16" stroke-miterlimit="10"/>
<path d="M13 21.9102L15.88 24.0602" stroke="#542A16" stroke-miterlimit="10"/>
<path d="M9.58008 22.6299L11.4601 24.7999" stroke="#542A16" stroke-miterlimit="10"/>
<path d="M13.7099 5.3296C17.9899 7.5696 15.6499 10.5296 13.3699 13.4196C11.0899 16.3096 6.59986 16.9296 5.43986 15.7996C3.74986 14.1496 3.93986 10.7996 6.21986 7.9096C8.49986 5.0196 11.6199 4.2296 13.7099 5.3296Z" fill="#F6A018"/>
<path d="M10.1397 6.56006C10.9097 7.17006 10.3297 9.34005 9.37967 10.5301C8.42967 11.7201 7.03967 12.2101 6.27967 11.6001C5.51967 10.9901 5.65967 9.53006 6.59967 8.33006C7.53967 7.13006 9.36967 5.95006 10.1397 6.55006V6.56006Z" fill="#FFD43A"/>
<path d="M6.57016 5.12996L5.62016 3.45996C5.62016 3.45996 4.39016 4.04996 3.41016 5.42996L4.96016 6.50996C4.96016 6.50996 5.87016 5.50996 6.57016 5.12996Z" fill="#FFEC9D"/>
<path d="M11.8101 19.6005L12.2501 21.4705C12.2501 21.4705 13.6001 21.2605 14.9301 20.2105C14.0601 18.5405 14.0301 18.4805 14.0301 18.4805C14.0301 18.4805 12.6001 19.4205 11.8101 19.5905V19.6005Z" fill="#FFD436"/>
</g>
<defs>
<clipPath id="clip0_2151_80188">
<rect width="24.34" height="25.24" fill="white"/>
</clipPath>
</defs>
</svg>
