<svg version="1.1" xmlns="http://www.w3.org/2000/svg" style="display: block;" viewBox="0 0 1200 1216" width="24" height="24.32" preserveAspectRatio="none">
<path transform="translate(0,0)" fill="rgb(90,43,11)" d="M 604.268 0 L 647.528 0 C 660.187 2.91304 672.277 3.01651 685.305 4.35476 C 856.381 21.9266 1013.69 122.556 1113.53 260.685 C 1162.98 329.091 1189.16 416.043 1197.09 499.631 C 1197.8 507.135 1198.46 515.03 1200 522.444 L 1200 576.836 C 1197.04 591.897 1195.88 610.963 1194.28 626.533 C 1169.55 868.16 999.006 1088.95 773.509 1177.74 C 745.664 1188.7 717.816 1197.79 688.474 1203.83 C 678.933 1205.86 669.329 1207.57 659.677 1208.98 C 652.205 1210.04 613.412 1214.03 609.613 1216 L 551.368 1216 C 544.166 1212.79 500.152 1209.19 487.166 1207 C 352.06 1184.24 239.673 1103.26 147.742 1005.31 C 89.6377 943.402 48.6535 881.043 23.2246 799.379 C 15.5652 774.82 10.0012 749.657 6.59232 724.159 C 5.23578 713.64 2.77664 683.926 0.311615 675.641 L 0 674.629 L 0 610.424 C 2.25872 602.322 3.13221 587.043 4.15995 577.91 C 5.7609 562.656 8.10232 547.488 11.1759 532.461 C 36.8212 404.008 91.4048 290.585 181.837 194.565 C 260.676 110.854 366.86 44.4367 479.3 17.9274 C 503.137 12.436 527.271 8.31702 551.58 5.59072 C 567.43 3.90882 589.218 2.81938 604.268 0 z"/>
<path transform="translate(0,0)" fill="rgb(254,196,36)" d="M 525.002 54.354 L 524.587 52.7477 C 533.833 51.4589 542.024 49.7155 550.988 47.1384 C 553.76 46.3414 558.512 50.7512 561.616 47.1553 L 559.132 45.7093 C 563.844 44.6786 572.3 45.2502 577.377 45.1142 L 616.545 44.4314 C 622.892 44.3421 641.694 42.0623 646.152 45.5938 C 642.189 45.5879 638.493 45.8616 634.546 46.1251 C 666.422 49.0482 695.941 50.9116 727.61 58.062 C 805.499 75.6483 882.418 116.323 933.729 178.472 C 948.102 195.879 959.544 212.754 971.545 231.517 C 972.482 231.588 974.851 231.466 975.281 232.212 C 1031.61 330.083 1039.7 450.937 1019.58 560.188 C 1006.9 626.532 983.606 690.401 950.608 749.34 L 948.949 749.848 L 947.002 748.744 C 895.784 835.325 833.774 907.131 749.661 963.802 C 735.205 973.588 720.368 982.796 705.183 991.406 C 700.301 994.173 676.432 1005.97 673.941 1008.29 L 675.128 1010.58 C 670.157 1016.98 608.358 1041.5 597.913 1038.36 C 585.39 1040.92 572.447 1045.15 559.888 1048.12 C 414.657 1082.58 262.332 1048.9 155.958 940.525 C 77.3572 860.449 46.6879 758.692 46.1921 648.332 C 46.1356 635.75 47.4644 622.935 47.7656 610.248 L 46.829 610.836 L 45.9103 609.608 C 45.8952 603.116 45.5317 585.519 47.0214 579.549 C 52.5993 557.198 54.4263 532.73 60.786 510.866 L 62.3981 510.944 C 65.6024 504.432 72.3734 473.92 75.1727 464.899 C 131.771 282.505 275.957 126.903 460.057 70.3549 C 482.636 63.4194 502.704 60.48 524.265 54.5622 L 525.002 54.354 z"/>
<path transform="translate(0,0)" fill="rgb(40,10,1)" d="M 971.545 231.517 C 972.482 231.588 974.851 231.466 975.281 232.212 C 1031.61 330.083 1039.7 450.937 1019.58 560.188 C 1006.9 626.532 983.606 690.401 950.608 749.34 L 948.949 749.848 L 947.002 748.744 C 971.845 704.75 991.023 657.79 1004.08 608.982 C 1038.06 485.071 1036.46 345.419 971.545 231.517 z"/>
<path transform="translate(0,0)" fill="rgb(60,22,6)" d="M 525.002 54.354 L 524.587 52.7477 C 533.833 51.4589 542.024 49.7155 550.988 47.1384 C 553.76 46.3414 558.512 50.7512 561.616 47.1553 L 559.132 45.7093 C 563.844 44.6786 572.3 45.2502 577.377 45.1142 L 616.545 44.4314 C 622.892 44.3421 641.694 42.0623 646.152 45.5938 C 642.189 45.5879 638.493 45.8616 634.546 46.1251 C 601.939 46.1699 571.383 46.7258 539.199 52.4074 C 535.061 53.138 529.164 54.0669 525.002 54.354 z"/>
<path transform="translate(0,0)" fill="rgb(60,22,6)" d="M 597.913 1038.36 C 627.373 1028.91 645.821 1020.97 673.941 1008.29 L 675.128 1010.58 C 670.157 1016.98 608.358 1041.5 597.913 1038.36 z"/>
<path transform="translate(0,0)" fill="rgb(60,22,6)" d="M 47.7656 610.248 L 46.829 610.836 L 45.9103 609.608 C 45.8952 603.116 45.5317 585.519 47.0214 579.549 C 52.5993 557.198 54.4263 532.73 60.786 510.866 L 62.3981 510.944 C 55.1454 548.243 50.8031 572.318 47.7656 610.248 z"/>
<path transform="translate(0,0)" fill="rgb(90,43,11)" d="M 364.785 228.393 C 446.533 173.84 518.918 146.096 619.992 148.859 C 679.207 150.477 766.786 179.717 807.205 224.23 C 814.453 230.971 820.066 236.526 826.81 243.762 C 841.194 256.344 859.153 284.08 867.814 301.145 C 885.727 337.034 900.889 381.179 904.521 421.205 C 908.278 438.072 909.662 519.611 902.455 534.781 C 901.368 545.583 895.141 576.641 891.601 587.315 C 886.661 609.446 876.929 635.651 867.709 656.66 C 877.305 656.88 936.046 682.222 950.575 687.683 C 929.931 730.319 886.25 808.491 852.803 840.28 C 812.196 883.136 778.795 916.358 728.34 949.001 C 717.728 955.866 701.63 967.042 690.613 972.098 C 678.656 947.592 661.422 920.006 650.803 895.69 C 624.973 908.447 606.191 916.858 578.67 926.265 C 409.423 977.145 237.21 916.486 172.262 744.089 C 135.585 639.11 148.627 539.618 190.589 438.871 C 196.345 425.862 203.296 413.177 210.018 400.63 C 194.55 394.324 160.173 373.41 143.904 364.252 C 152.931 351.569 161.381 337.113 170.028 323.944 C 209.258 264.193 267.096 198.696 330.332 163.19 C 337.485 174.929 359.15 222.39 364.785 228.393 z"/>
<path transform="translate(0,0)" fill="rgb(254,237,156)" d="M 143.904 364.252 C 152.931 351.569 161.381 337.113 170.028 323.944 C 209.258 264.193 267.096 198.696 330.332 163.19 C 337.485 174.929 359.15 222.39 364.785 228.393 C 355.707 234.94 337.313 247.778 329.858 255.41 C 316.564 266.552 284.62 297.944 273.1 311.689 C 253.553 329.939 223.854 377.264 210.018 400.63 C 194.55 394.324 160.173 373.41 143.904 364.252 z"/>
<path transform="translate(0,0)" fill="rgb(254,237,156)" d="M 786.101 785.85 C 793.531 789.167 805.21 800.85 811.878 806.441 C 824.68 817.177 839.007 831.066 852.803 840.28 C 812.196 883.136 778.795 916.358 728.34 949.001 C 717.728 955.866 701.63 967.042 690.613 972.098 C 678.656 947.592 661.422 920.006 650.803 895.69 C 688.244 875.364 761.105 821.525 784.431 787.051 L 786.101 785.85 z"/>
<path transform="translate(0,0)" fill="rgb(254,213,59)" d="M 867.709 656.66 C 877.305 656.88 936.046 682.222 950.575 687.683 C 929.931 730.319 886.25 808.491 852.803 840.28 C 839.007 831.066 824.68 817.177 811.878 806.441 C 805.21 800.85 793.531 789.167 786.101 785.85 L 800.912 767.56 C 827.916 733.662 850.372 696.379 867.709 656.66 z"/>
<path transform="translate(0,0)" fill="rgb(60,22,6)" d="M 190.589 438.871 C 190.66 439.195 191.611 443.52 191.61 443.521 C 181.242 478.671 164.739 517.142 159.134 553.224 C 152.313 595.718 152.199 639.02 158.795 681.55 C 161.801 700.106 168.819 719.609 173.042 738.022 C 173.391 739.546 172.637 742.537 172.262 744.089 C 135.585 639.11 148.627 539.618 190.589 438.871 z"/>
<path transform="translate(0,0)" fill="rgb(40,10,1)" d="M 867.814 301.145 C 885.727 337.034 900.889 381.179 904.521 421.205 L 903.691 422.922 L 902.719 422.952 C 899.854 416.271 898.354 398.968 896.279 390.578 C 889.321 362.716 881.437 333.873 867.435 308.626 C 865.635 305.379 866.627 304.479 867.814 301.145 z"/>
<path transform="translate(0,0)" fill="rgb(60,22,6)" d="M 329.858 255.41 C 328.585 260.658 322.335 264.951 318.376 269.037 C 304.803 283.044 290.815 302.91 273.1 311.689 C 284.62 297.944 316.564 266.552 329.858 255.41 z"/>
<path transform="translate(0,0)" fill="rgb(60,22,6)" d="M 891.601 587.315 L 890.533 584.893 C 894.033 571.28 893.399 557.611 899.283 544.889 C 900.385 542.506 899.681 536.785 901.407 533.101 L 902.455 534.781 C 901.368 545.583 895.141 576.641 891.601 587.315 z"/>
<path transform="translate(0,0)" fill="rgb(60,22,6)" d="M 784.431 787.051 C 784.558 781.517 789.631 774.768 793.256 770.802 C 796.502 767.248 796.921 767.666 800.912 767.56 L 786.101 785.85 L 784.431 787.051 z"/>
<path transform="translate(0,0)" fill="rgb(60,22,6)" d="M 807.205 224.23 C 814.453 230.971 820.066 236.526 826.81 243.762 L 825.483 244.266 C 820.098 243.045 809.789 231.221 806.685 226.621 L 807.205 224.23 z"/>
<path transform="translate(0,0)" fill="rgb(247,154,3)" d="M 816.604 294.803 C 1006.82 576.691 646.433 1029.66 330.664 870.186 C 279.434 843.516 236.83 798.459 216.025 743.321 C 110.665 464.091 415.47 106.655 708.627 211.293 C 714.547 213.406 721.624 216.897 727.721 219.504 C 730.886 218.236 730.74 218.01 734.089 219.64 C 760.507 232.492 782.997 251.721 802.678 273.324 C 806.212 277.203 818.99 289.94 816.604 294.803 z"/>
<path transform="translate(0,0)" fill="rgb(40,10,1)" d="M 727.721 219.504 C 730.886 218.236 730.74 218.01 734.089 219.64 C 760.507 232.492 782.997 251.721 802.678 273.324 C 806.212 277.203 818.99 289.94 816.604 294.803 C 790.661 260.509 765.165 239.312 727.721 219.504 z"/>
<path transform="translate(0,0)" fill="rgb(254,213,59)" d="M 525.73 294.423 C 525.897 294.379 526.064 294.336 526.232 294.293 C 550.833 291.988 579.997 296.316 582.595 325.29 C 586.045 363.753 568.723 389.352 547.23 418.084 C 520.096 454.358 490.291 483.653 451.679 507.471 C 420.54 527.323 404.884 536.947 368.225 541.939 L 366.315 542.127 C 338.381 544.731 312.754 539.051 310.753 505.827 C 308.191 463.301 340.443 419.799 367.074 389.443 C 403.639 347.765 468.363 298.369 525.73 294.423 z"/>
<path transform="translate(0,0)" fill="rgb(254,213,59)" d="M 578.67 926.265 C 606.191 916.858 624.973 908.447 650.803 895.69 C 661.422 920.006 678.656 947.592 690.613 972.098 C 686.975 974.525 675.743 979.888 671.308 982.141 C 647.928 994.016 623.608 1003.46 599.249 1013.11 C 595.956 997.769 591.91 982.597 587.128 967.651 C 584.307 958.573 575.139 934.493 578.67 926.265 z"/>
<path transform="translate(0,0)" fill="rgb(213,109,0)" d="M 959.486 799.473 C 990.444 819.281 1028.63 852.336 1060.62 874.679 C 1027.47 931.184 985.081 980.952 935.84 1024.01 C 931.245 1028.02 926.861 1031.76 921.872 1035.29 C 890.268 1013.11 851.137 981.485 820.317 957.711 C 853.226 928.611 890.483 891.824 917.694 857.442 C 932.088 839.255 945.531 818.442 959.486 799.473 z"/>
<path transform="translate(0,0)" fill="rgb(213,109,0)" d="M 1039.16 614.11 C 1069.98 633.172 1107.75 661.667 1137.68 683.643 C 1132.49 705.074 1126.96 726.918 1120.17 747.901 C 1116.84 758.168 1112.28 768.604 1108.65 778.929 C 1108.74 779.37 1109.65 783.51 1109.65 783.511 C 1107.68 790.069 1096.73 820.02 1091.54 822.286 L 1090.13 821.843 C 1088.61 823.947 1080.5 840.307 1077.58 845.21 C 1043.96 819.727 1010.01 794.685 975.732 770.091 C 997.666 730.471 1028.33 658.282 1039.16 614.11 z"/>
<path transform="translate(0,0)" fill="rgb(60,22,6)" d="M 1108.65 778.929 C 1108.74 779.37 1109.65 783.51 1109.65 783.511 C 1107.68 790.069 1096.73 820.02 1091.54 822.286 L 1090.13 821.843 C 1096.45 807.602 1102.62 793.297 1108.65 778.929 z"/>
<path transform="translate(0,0)" fill="rgb(213,109,0)" d="M 795.299 976.757 C 804.683 980.102 882.231 1045.64 896.688 1056.04 C 859.761 1085 794.145 1119.69 750.227 1136.34 C 749.417 1136.7 748.443 1137.17 747.562 1137.29 C 742.425 1137.97 661.208 1070.27 649.836 1061.21 C 698.949 1040.24 754.204 1011.39 795.299 976.757 z"/>
<path transform="translate(0,0)" fill="rgb(213,109,0)" d="M 616.255 1073.15 C 620.354 1074.21 701.054 1142.09 710.656 1149.77 C 666.907 1163.65 607.827 1171.47 562.754 1168.54 C 558.364 1168.21 549.107 1167.79 545.671 1165.73 C 532.933 1158.1 518.857 1144.89 507.433 1135.1 C 493.109 1122.89 478.714 1110.77 464.247 1098.73 C 518.702 1098.15 564.662 1089.28 616.255 1073.15 z"/>
<path transform="translate(0,0)" fill="rgb(213,109,0)" d="M 1061.68 448.07 C 1066.96 450.525 1090.17 468.2 1096.23 472.659 C 1114.3 485.92 1132.54 498.927 1150.97 511.676 C 1157.44 544.13 1150.11 610.538 1145.72 645.138 C 1145.39 647.743 1145.41 649.592 1143.57 650.933 L 1141.57 649.638 C 1109.71 626.916 1078.41 605.132 1046.94 581.715 C 1056.04 545.33 1060.91 485.051 1061.68 448.07 z"/>
<path transform="translate(0,0)" fill="rgb(213,109,0)" d="M 993.492 205.41 C 1005.88 214.485 1024.51 232.096 1035.57 242.902 L 1035.67 239.776 C 1039.46 240.233 1042.21 245.037 1044.13 248.052 L 1043.57 251.409 C 1086.33 302.007 1120.26 349.288 1135.8 415.273 C 1136.58 418.588 1140.39 434.502 1141.59 436.672 L 1142.69 435.78 C 1146.35 442.863 1152.06 465.117 1149.17 472.33 L 1147.33 471.949 L 1145.77 472.611 C 1136.41 469.687 1071.44 419.739 1059.61 410.401 C 1057.09 402.145 1052.47 365.481 1049.74 352.502 C 1037.57 294.629 1021.88 256.099 993.492 205.41 z"/>
<path transform="translate(0,0)" fill="rgb(60,22,6)" d="M 1141.59 436.672 L 1142.69 435.78 C 1146.35 442.863 1152.06 465.117 1149.17 472.33 L 1147.33 471.949 C 1146.3 459.92 1144.02 448.473 1141.59 436.672 z"/>
<path transform="translate(0,0)" fill="rgb(60,22,6)" d="M 1035.57 242.902 L 1035.67 239.776 C 1039.46 240.233 1042.21 245.037 1044.13 248.052 L 1043.57 251.409 L 1035.57 242.902 z"/>
<path transform="translate(0,0)" fill="rgb(213,109,0)" d="M 297.41 1070.88 C 303.813 1070.4 339.893 1083.52 349.956 1085.95 C 365.119 1089.61 412.668 1094.84 421.676 1099.22 C 428.666 1102.62 492.697 1156.23 494.255 1160.51 C 486.401 1160.66 466.069 1155.14 458.096 1153.1 C 411.238 1141.07 366.691 1119.99 326.484 1093.23 C 318.154 1087.69 303.842 1078.39 297.41 1070.88 z"/>
</svg>