<?xml version="1.0" encoding="UTF-8"?><svg id="Layer_1" xmlns="http://www.w3.org/2000/svg" width="22.77" height="23.53" viewBox="0 0 22.77 23.53"><path d="M14.94,1.3s3.1.94,5.18,3.35c1.69,1.77,4.07,6.85.16,13.53-2.17,3.63-9.33,8.13-15.86,1.82.23-.56,10.51-18.7,10.51-18.7Z" fill="#d77111"/><path d="M11.52,23.53c-2.61,0-5.13-1.11-7.35-3.26l-.18-.17.09-.23c.23-.57,9.48-16.89,10.53-18.75l.15-.26.28.09c.13.04,3.22,1,5.36,3.47.42.44,1.86,2.15,2.26,5.11.39,2.86-.3,5.83-2.06,8.84-1.26,2.11-4.26,4.6-7.85,5.08-.41.05-.82.08-1.23.08ZM4.87,19.93c2.35,2.19,5.04,3.15,7.78,2.79,3.35-.44,6.14-2.76,7.31-4.72,4.64-7.94.08-12.88-.11-13.08-1.65-1.9-3.96-2.87-4.75-3.16-2.77,4.88-9.28,16.39-10.23,18.18Z" fill="#542a15"/><ellipse cx="9.94" cy="10.77" rx="10.7" ry="9.24" transform="translate(-4.22 14.54) rotate(-62.18)" fill="#fac01d"/><path d="M8.77,21.53c-1.37,0-2.74-.31-3.99-.98C.09,18.08-1.4,11.68,1.44,6.28,4.29.89,10.42-1.49,15.11.98c4.69,2.47,6.18,8.88,3.33,14.27-2.08,3.95-5.92,6.28-9.67,6.28ZM11.11.73C7.63.73,4.05,2.93,2.1,6.63c-2.66,5.04-1.3,11,3.02,13.28,4.33,2.28,10.01.04,12.67-5h0c2.66-5.04,1.3-11-3.02-13.28-1.15-.61-2.4-.89-3.65-.89Z" fill="#552a13"/><ellipse cx="9.85" cy="10.92" rx="7.65" ry="6.46" transform="translate(-4.41 14.53) rotate(-62.18)" fill="#ec8b08"/><path d="M8.91,18.7c-.98,0-1.93-.23-2.8-.69-3.33-1.76-4.36-6.37-2.3-10.28.99-1.88,2.55-3.33,4.38-4.07,1.86-.75,3.77-.69,5.39.17,1.62.86,2.75,2.4,3.18,4.36.42,1.93.11,4.03-.89,5.92-.99,1.88-2.55,3.33-4.38,4.07-.86.35-1.74.52-2.59.52ZM10.79,3.88c-.76,0-1.54.16-2.32.47-1.67.68-3.1,2-4.01,3.73-1.87,3.55-.98,7.71,1.99,9.28,1.43.75,3.12.8,4.78.13,1.67-.68,3.1-2,4.01-3.73s1.2-3.65.82-5.42c-.38-1.74-1.38-3.11-2.81-3.87-.76-.4-1.6-.6-2.46-.6Z" fill="#552a13"/><line x1="19.23" y1="7.92" x2="22.38" y2="10.03" fill="#d77111"/><rect x="20.44" y="7.08" width=".74" height="3.79" transform="translate(1.76 21.26) rotate(-56.17)" fill="#542a15"/><line x1="19.23" y1="11.26" x2="22.38" y2="13.37" fill="#d77111"/><rect x="20.44" y="10.42" width=".74" height="3.79" transform="translate(-1.01 22.74) rotate(-56.17)" fill="#542a15"/><line x1="18" y1="14.8" x2="21.15" y2="16.92" fill="#d77111"/><rect x="19.21" y="13.96" width=".74" height="3.79" transform="translate(-4.5 23.29) rotate(-56.17)" fill="#542a15"/><line x1="15.48" y1="18.62" x2="17.94" y2="20.42" fill="#d77111"/><rect x="16.34" y="18" width=".74" height="3.04" transform="translate(-8.91 21.43) rotate(-53.71)" fill="#542a15"/><line x1="12.17" y1="20.57" x2="14.89" y2="22.61" fill="#d77111"/><rect x="13.16" y="19.89" width=".74" height="3.4" transform="translate(-11.86 19.49) rotate(-53.21)" fill="#542a15"/><line x1="8.94" y1="21.26" x2="10.71" y2="23.3" fill="#d77111"/><rect x="9.48" y="20.71" width=".74" height="2.71" transform="translate(-12.05 11.85) rotate(-40.95)" fill="#542a15"/><path d="M12.83,4.92c4.04,2.11,1.83,4.91-.32,7.64s-6.39,3.32-7.49,2.24c-1.6-1.56-1.42-4.72.74-7.45s5.1-3.47,7.07-2.44Z" fill="#f59f17"/><path d="M9.47,6.08c.72.57.18,2.62-.71,3.75s-2.2,1.58-2.93,1.01-.59-1.95.31-3.08,2.61-2.25,3.34-1.68Z" fill="#ffd33a"/><path d="M6.26,4.79l-1.1-1.87s-1.12.79-2.04,2.1c1.47,1.02,1.62,1.3,1.62,1.3,0,0,.87-1.17,1.53-1.53Z" fill="#ffeb9d"/><path d="M11.04,18.39l.41,1.77s1.27-.2,2.53-1.19c-.82-1.57-.85-1.63-.85-1.63,0,0-1.35.89-2.1,1.05Z" fill="#ffd336"/></svg>