<svg width="96" height="46" viewBox="0 0 96 46" fill="none" xmlns="http://www.w3.org/2000/svg">
<path d="M38.6085 16.3153C38.6085 16.3153 22.0646 20.6047 14.0993 26.7297C6.13402 32.8546 16.5483 31.019 23.2914 31.6324C12.8771 40.2111 25.7405 40.2111 34.9326 38.3708C44.1247 36.5305 51.4766 37.144 61.8909 38.3708C72.3052 39.5977 87.0089 39.5977 82.1108 34.0815C77.208 28.57 78.4348 28.57 86.4001 27.9565C94.3654 27.3431 75.3724 12.026 38.6132 16.3153H38.6085Z" fill="#EAC357"/>
<path d="M23.3997 21.9335C23.3997 21.9335 9.85264 29.3181 19.9954 28.1287C25.3617 27.2343 28.0496 25.4455 28.0496 25.4455C28.0496 25.4455 32.4326 28.391 36.4035 23.9518C40.2902 22.8513 45.9328 23.6474 45.9328 23.6474C45.9328 23.6474 36.7032 24.8462 36.7032 27.829C37.5976 30.5122 57.2837 33.1954 57.2837 33.1954C57.2837 33.1954 76.6747 27.829 74.5862 23.6521C72.4977 19.4751 66.8317 23.3524 66.8317 23.3524L46.2653 19.9434C46.2653 19.9434 28.8972 19.92 23.4044 21.9335H23.3997Z" fill="#DDA852"/>
<path d="M86.7841 24.5885C86.5594 26.3305 83.3798 26.2883 79.9521 25.1457C74.5857 23.357 73.2746 25.1692 76.6695 29.9174C80.0691 34.6657 83.5297 36.1829 77.2689 37.0772C71.0034 37.9716 61.1604 36.4825 52.8065 35.2885C44.4572 34.0944 36.9977 35.5882 29.8379 37.0772C22.678 38.5663 20.2945 35.2885 24.7665 32.0059C29.2432 28.7233 24.1671 29.6177 17.9064 30.2171C14.3101 30.5589 12.4885 29.8191 11.5847 29.1307C9.42132 32.329 17.6441 31.1209 23.2915 31.636C12.8772 40.2147 25.7405 40.2147 34.9326 38.3744C44.1248 36.5341 51.4766 37.1475 61.8909 38.3744C72.3052 39.6012 87.0089 39.6012 82.1108 34.085C77.208 28.5735 78.4349 28.5735 86.4001 27.96C88.6947 27.7821 88.7462 26.3867 86.7888 24.5885H86.7841Z" fill="#DDA852"/>
<path d="M21.2688 14.7174C21.2688 14.7174 17.2229 14.9422 17.3166 16.6608C17.4102 18.3793 22.5378 19.0911 22.5378 19.0911C22.5378 19.0911 15.982 21.7649 15.8509 25.1271C15.7198 28.4892 25.619 25.4549 30.0676 22.3783C30.0676 22.3783 28.5831 23.9189 29.3558 24.8461C30.1284 25.7733 35.8226 23.9189 34.8205 21.9147C34.8205 21.9147 44.1953 22.1208 44.3264 19.1285C44.4575 16.1363 39.8263 14.296 36.1878 15.8741C36.1878 15.8741 40.0464 14.5067 37.7987 12.4557C35.5463 10.4094 32.3434 11.2429 30.9901 13.1956C30.9901 13.1956 31.1586 11.5566 29.9037 11.4536C28.6487 11.3506 27.1175 12.2169 26.9629 13.912C26.9629 13.912 25.8391 11.5566 21.8728 11.8938C17.9066 12.2309 21.2781 14.7128 21.2781 14.7128L21.2688 14.7174Z" fill="#006B2C"/>
<path d="M32.5264 16.2261C31.337 14.9992 27.2911 15.9966 27.2911 15.9966C27.9092 15.8046 28.5789 15.0695 29.019 14.5122C29.1267 14.3998 29.2298 14.2828 29.3281 14.147C30.0164 13.2011 30.0914 12.0913 29.5014 11.6604C28.9113 11.2343 27.8765 11.6558 27.1881 12.597C26.9961 12.8592 26.8556 13.1402 26.762 13.4118C26.3967 12.9107 25.8208 12.4471 25.0996 12.124C23.5871 11.4544 22.0184 11.6745 21.6016 12.6204C21.3113 13.2666 21.6438 14.0908 22.3649 14.7604C22.0559 14.6995 21.7234 14.6621 21.3769 14.6621C19.7192 14.6527 18.3753 15.3879 18.3706 16.2916C18.3706 17.0034 19.1854 17.6075 20.3326 17.8463C22.5522 18.5066 25.4227 18.2162 25.4227 18.2162C21.3394 18.7875 19.1151 20.4124 18.2722 21.1757C16.6895 22.4119 15.8279 23.8261 16.2961 24.58C16.8534 25.4697 19.0636 25.0951 21.2364 23.7418C22.1261 23.1892 22.8707 22.5524 23.3998 21.939C23.5684 22.1591 23.9383 22.2808 24.6454 22.1825C27.1272 21.8406 27.3379 18.9608 27.3379 18.9608C31.7116 19.0216 33.7111 17.4576 32.5217 16.2308L32.5264 16.2261Z" fill="#139A39"/>
<path d="M32.6664 22.2478C32.9614 22.8144 32.451 23.6666 31.5285 24.1536C30.6013 24.6359 29.6086 24.5704 29.3135 24.0038C29.0185 23.4372 29.5243 22.5849 30.4514 22.0979C31.3786 21.6109 32.3714 21.6812 32.6664 22.2478Z" fill="#139A39"/>
<path d="M43.0242 17.5083C42.9446 18.5854 41.2213 19.3252 39.1844 19.166C37.1521 19.0068 35.5693 18.0047 35.6536 16.9324C35.7379 15.86 37.4564 15.1202 39.4934 15.2794C41.5304 15.4386 43.1085 16.436 43.0242 17.5083Z" fill="#139A39"/>
<path d="M37.0022 12.512C37.0865 13.2332 36.047 13.9496 34.6796 14.1088C33.3123 14.268 32.1369 13.8185 32.0526 13.0974C31.9683 12.3762 33.0079 11.6644 34.3753 11.5006C35.7426 11.3413 36.918 11.7956 37.0069 12.512H37.0022Z" fill="#139A39"/>
<path d="M25.0897 12.9941C24.9773 13.35 24.3545 13.4764 23.7036 13.2657C23.0527 13.0597 22.6172 12.6008 22.7296 12.2449C22.842 11.889 23.4601 11.7673 24.111 11.9733C24.7619 12.1793 25.1974 12.6382 25.085 12.9941H25.0897Z" fill="#84CB47"/>
<path d="M41.7179 16.2994C41.6898 16.674 41.1138 16.9316 40.4301 16.8801C39.7511 16.8239 39.222 16.4774 39.2501 16.1027C39.2782 15.7328 39.8542 15.4706 40.5378 15.5221C41.2168 15.5736 41.746 15.9201 41.7132 16.2947L41.7179 16.2994Z" fill="#84CB47"/>
<path d="M36.2626 11.9592C36.3188 12.2682 35.902 12.6007 35.3354 12.699C34.7688 12.7974 34.2678 12.6241 34.2163 12.3104C34.1648 12.0013 34.5768 11.6688 35.1434 11.5705C35.71 11.4722 36.2111 11.6454 36.2626 11.9592Z" fill="#84CB47"/>
</svg>
