<svg width="96" height="77" viewBox="0 0 96 77" fill="none" xmlns="http://www.w3.org/2000/svg">
<g clip-path="url(#clip0_587_12799)">
<path d="M79.6465 25.6181C80.2565 25.833 80.5784 25.6181 81.0481 26.0913C75.1894 40.8677 69.3081 48.6079 66.8437 57.3822C65.8205 56.4745 64.7936 55.5564 63.7402 54.6836C67.1647 49.8719 75.2064 34.1454 75.2111 34.136C76.0093 32.4837 78.7278 27.1997 79.6465 25.6172V25.6181Z" fill="url(#paint0_linear_587_12799)"/>
<path d="M62.2284 32.3711C63.1076 43.3368 62.2152 49.4464 64.9008 55.3345C65.3554 56.3308 65.8986 57.181 66.2619 58.1471C65.6416 58.0434 65.0147 57.887 64.3831 57.7107C63.5274 57.4713 62.6652 57.1923 61.8067 56.9519C61.7295 56.9303 61.6523 56.9086 61.5751 56.8878C60.0822 52.6115 60.9049 46.9137 61.1431 32.9762C61.4914 32.7519 61.8557 32.553 62.2284 32.3711Z" fill="url(#paint1_linear_587_12799)"/>
<path d="M63.4994 22.9785C64.0341 25.5828 63.378 31.2277 62.8866 32.9865C62.3783 34.8076 61.5481 36.1309 60.1342 38.0292C60.186 37.3261 60.2142 36.6361 60.2331 35.9311C59.8226 36.1526 59.416 36.3826 59.0263 36.6361C59.0931 35.9575 59.1637 35.2732 59.2522 34.5964C58.7627 34.7472 58.2817 34.9574 57.8525 35.2383C57.9711 34.2684 58.1876 33.2919 58.4323 32.3475C58.0953 32.405 57.7602 32.4804 57.4336 32.5803C58.0727 30.633 58.8079 28.7667 59.8772 27.0249C59.56 27.0701 59.2437 27.1182 58.9312 27.188C59.5139 26.3887 60.2255 25.6196 60.9842 24.9692C60.5456 24.9108 60.1032 24.8862 59.6607 24.8853C60.5908 23.7373 62.0686 23.2028 63.5004 22.9804L63.4994 22.9785Z" fill="url(#paint2_linear_587_12799)"/>
<path d="M55.4021 31.295C55.838 30.5165 56.3434 29.7728 56.8772 29.0555C57.2904 29.606 57.7291 30.1479 58.2035 30.6437C62.1702 28.95 60.6725 24.8254 63.922 22.0901C63.7271 21.9939 63.5238 21.9185 63.3148 21.8601C59.4262 20.7705 52.8775 23.9978 49.9463 31.7814C50.6617 31.3516 51.3724 30.9114 52.0774 30.4675C52.2318 30.9567 52.4022 31.4402 52.5763 31.9228C53.158 31.2347 53.7897 30.5994 54.4458 29.9792C54.7969 30.4778 55.1339 30.9887 55.5264 31.4534L55.4021 31.2941V31.295Z" fill="url(#paint3_linear_587_12799)"/>
<path d="M54.4986 27.2616C54.477 27.0693 54.4619 26.8761 54.4478 26.6819L54.413 26.0938C54.3622 26.286 54.3367 26.484 54.3273 26.6828C54.316 26.8817 54.3245 27.0806 54.3443 27.2785C54.3669 27.4765 54.4007 27.6725 54.4497 27.8639C54.4986 28.0561 54.5598 28.2447 54.6398 28.4266C54.622 28.2286 54.5937 28.0345 54.5683 27.8412C54.5438 27.648 54.5175 27.4557 54.4977 27.2625L54.4986 27.2616Z" fill="#546B22"/>
<path d="M57.5416 27.1766L57.487 25.6855C57.487 25.6855 57.487 25.6798 57.487 25.6761C57.4842 25.5092 57.4823 25.3405 57.4682 25.1699C57.4183 25.3339 57.3863 25.5008 57.3665 25.6695C57.3449 25.8382 57.3383 26.0088 57.3401 26.1785C57.3458 26.3491 57.3609 26.5197 57.3938 26.6865C57.4258 26.8543 57.4719 27.0192 57.5416 27.1757V27.1766Z" fill="#546B22"/>
<path d="M58.4723 26.3356C58.4807 26.1848 58.4817 26.0378 58.4826 25.8917C58.4826 25.7447 58.4845 25.5986 58.4807 25.4525C58.4779 25.3054 58.4713 25.1584 58.4591 25.0104C58.4469 24.8624 58.428 24.7145 58.3913 24.5684C58.364 24.7173 58.349 24.8643 58.3386 25.0114C58.3282 25.1593 58.3226 25.3073 58.3264 25.4553C58.3292 25.6033 58.3405 25.7522 58.3621 25.9002C58.3838 26.0482 58.4167 26.1952 58.4723 26.3356Z" fill="#546B22"/>
<path d="M59.2919 25.5676C59.3145 25.4309 59.3239 25.2961 59.3305 25.1613C59.3371 25.0266 59.3399 24.8927 59.338 24.7579C59.3371 24.6231 59.3305 24.4893 59.3202 24.3545C59.3098 24.2197 59.2938 24.0849 59.2637 23.9492C59.2298 24.084 59.2119 24.2188 59.1997 24.3536C59.1874 24.4884 59.1818 24.6241 59.1827 24.7598C59.1837 24.8955 59.1931 25.0303 59.2091 25.1661C59.2251 25.3008 59.2496 25.4356 59.2919 25.5676Z" fill="#546B22"/>
<path d="M56.0628 26.8328C56.0487 26.5727 56.0496 26.3116 56.0496 26.0496C56.0515 25.7875 56.0562 25.5236 56.0458 25.2578C55.9922 25.518 55.9536 25.779 55.9291 26.043C55.9037 26.3069 55.8962 26.5736 55.9075 26.8404C55.9225 27.1071 55.9564 27.3738 56.0279 27.633C56.0976 27.8913 56.1993 28.142 56.3423 28.3664C56.2576 28.1147 56.1917 27.8621 56.1465 27.6067C56.1023 27.3512 56.075 27.093 56.0637 26.8328H56.0628Z" fill="#546B22"/>
<path d="M56.0863 18.6255C56.1758 19.1288 56.2426 19.4643 56.8902 19.6462C58.1356 19.995 59.6417 19.1891 62.1616 19.8951C62.4713 19.9818 62.7734 20.0892 63.0652 20.2203C63.7138 17.0957 61.497 14.9231 58.7079 14.1427C54.4108 12.939 51.521 14.9844 48.8994 18.3597C49.5179 18.1608 50.1372 17.9657 50.7576 17.7753C50.7971 18.0411 50.8319 18.3078 50.8639 18.5755C51.6057 18.4662 52.2815 18.2239 52.948 17.9383C53.0402 18.3191 53.1203 18.7018 53.1974 19.0873C54.1303 19.1335 55.1196 18.9082 56.0863 18.6264V18.6255Z" fill="url(#paint4_linear_587_12799)"/>
<path d="M64.3448 22.4769C61.3477 23.1235 58.3854 24.314 56.0086 26.2726C55.1962 25.3234 54.221 24.5854 53.1827 23.8785C52.5935 24.1707 52.0005 24.4761 51.4366 24.8097C51.3415 24.3733 51.2446 23.936 51.1363 23.5024C50.4285 23.6881 49.7102 23.837 49.0137 24.051C51.8847 17.3334 57.5429 17.094 60.3339 17.8754C62.3756 18.4475 63.9862 19.9056 64.3448 22.4769Z" fill="url(#paint5_linear_587_12799)"/>
<path d="M63.0127 21.0248C63.8072 21.5244 64.6487 21.8788 65.5213 22.1238C67.9631 22.8081 70.6505 22.6281 73.2335 22.3387C72.9501 20.6252 71.6982 18.9484 69.8852 18.4403C67.5545 17.7871 64.7457 19.0596 63.0127 21.0248Z" fill="url(#paint6_linear_587_12799)"/>
<path d="M72.0814 25.9276C69.1209 24.5288 66.2998 22.4128 63.1973 21.4128C65.3256 20.5277 67.196 19.7133 69.9644 20.4881C72.3769 21.1639 74.4968 22.9265 75.3025 25.3366C74.7199 25.0246 74.1325 24.7211 73.5357 24.4393C73.579 24.7909 73.627 25.1415 73.675 25.4931C73.1206 25.1528 72.5567 24.822 72.0569 24.4129C72.0644 24.9181 72.071 25.4233 72.0814 25.9285V25.9276Z" fill="url(#paint7_linear_587_12799)"/>
<path d="M62.4509 30.0884C62.385 27.8593 62.2541 25.2013 62.8782 22.9674C62.9488 22.7148 63.0288 22.4669 63.1201 22.2266C68.2409 23.9712 72.8693 29.9046 71.1646 36.0057C70.9782 36.6731 70.7354 37.3206 70.4614 37.9606C70.2685 37.0218 70.0642 36.0774 69.9644 35.1292C69.3893 35.1923 68.8141 35.2479 68.2456 35.3488C68.1806 34.6956 68.1458 34.0424 68.2531 33.3902C67.6723 33.557 67.0906 33.6673 66.4872 33.7785C66.2613 33.0395 66.1305 32.245 66.0279 31.489C65.6589 31.7275 65.2983 31.9801 64.9425 32.2402C64.7025 31.2185 64.7561 30.0724 64.9444 29.0299C64.1537 29.5002 63.3649 29.7981 62.4509 30.0893V30.0884Z" fill="url(#paint8_linear_587_12799)"/>
<path d="M72.3497 32.7777C71.7511 32.854 70.9858 32.9266 70.7862 32.871C69.9635 32.641 69.4646 29.9651 68.9403 29.0725C67.5707 26.7406 65.7154 24.896 64.373 22.5717C65.2701 22.3087 66.3498 22.2201 67.7919 22.6245C72.1737 23.8517 76.0067 29.3128 74.8508 34.166C74.511 33.674 74.1731 33.1848 73.8539 32.6777C73.4868 33.1094 73.1442 33.5741 72.8345 34.0501C72.6462 33.6344 72.473 33.2169 72.3497 32.7777Z" fill="url(#paint9_linear_587_12799)"/>
<path d="M78.621 35.9504C78.5617 36.384 78.4751 36.7997 78.3612 37.2078C78.284 37.4859 78.1937 37.7601 78.0901 38.0344C80.0725 35.8486 81.8413 33.0389 82.6696 30.0764C83.6994 26.3911 83.128 24.0724 81.9062 22.127C80.8679 22.733 79.8174 23.4607 79.0625 24.3702C79.36 24.4277 79.6574 24.4965 79.9492 24.5776C79.9812 24.5861 80.0123 24.5955 80.0443 24.6049C79.4484 25.5343 78.9213 26.5117 78.2078 27.3506C78.3763 27.4863 78.5749 27.5759 78.7905 27.6362C78.8912 27.6645 78.9957 27.6861 79.102 27.7031C78.5213 28.475 77.9367 29.2442 77.3587 30.019C77.6609 30.0793 77.9612 30.1302 78.2624 30.1764C77.9113 30.7343 77.5498 31.281 77.1592 31.8202C77.6044 32.3273 78.2219 32.644 78.8507 32.9324C78.8027 33.1633 78.7462 33.3914 78.6832 33.6176C78.4055 34.612 77.9988 35.5668 77.6157 36.5367C77.9678 36.4 78.3019 36.1861 78.6229 35.9514L78.621 35.9504Z" fill="url(#paint10_linear_587_12799)"/>
<path d="M84.8489 22.4027C88.4908 23.8976 90.1334 28.763 89.0914 32.4908C88.7845 33.5899 88.328 34.2873 87.6766 35.0499C87.6436 34.161 87.494 33.3627 87.1495 32.5596C86.9875 32.6077 86.8266 32.6567 86.6656 32.7048C86.628 32.094 86.5094 31.5087 86.3136 30.9234C85.8975 30.9262 85.5022 30.9639 85.1096 31.0459C85.0776 30.24 84.8847 29.5576 84.4516 28.8743C83.9913 28.9384 83.532 29.009 83.0745 29.0892C83.1978 27.5679 82.6566 26.138 81.7002 24.8788C81.8395 24.612 81.9496 24.3293 82.0315 24.038C82.2283 23.3339 82.2527 22.5799 82.0871 21.8711C82.1859 21.8937 82.2838 21.9192 82.3808 21.9465C83.2731 22.1963 84.0723 22.6317 84.7585 23.2878C84.8037 22.9937 84.8282 22.7015 84.8479 22.4027H84.8489Z" fill="url(#paint11_linear_587_12799)"/>
<path d="M85.3335 24.9094C84.444 23.6558 83.3737 22.4333 81.9043 21.9357C83.8387 20.2476 85.3608 19.7442 88.6375 20.6613C92.5317 21.7519 95.3067 24.6945 95.2474 28.7682C94.9302 28.3846 94.6045 28.0142 94.2317 27.6805C93.8326 28.0387 93.4325 28.3969 93.0447 28.7682C92.8113 28.3413 92.5496 27.9322 92.3105 27.509C91.9321 27.6692 91.5697 27.8549 91.2214 28.0708C90.9249 27.5373 90.6321 27 90.3516 26.458C89.6381 26.8068 88.9848 27.279 88.3946 27.8097C87.8534 26.837 87.6811 25.4608 87.6058 24.3288C86.8509 24.5513 86.0856 24.6465 85.3344 24.9113L85.3335 24.9094Z" fill="url(#paint12_linear_587_12799)"/>
<path d="M82.512 20.6882C82.0875 21.3546 81.6837 22.0304 81.309 22.7242C79.6457 20.7109 77.5937 19.2631 75.15 18.5788C74.5843 18.4205 73.9969 18.3026 73.3888 18.2282C73.4623 18.0924 73.5347 17.9558 73.6072 17.8191C72.8542 17.6853 72.0945 17.5967 71.3405 17.4798C71.7105 17.0849 72.0428 16.6569 72.3365 16.2045C71.6879 16.1659 71.0412 16.1272 70.3945 16.0716C72.0672 14.2233 73.8454 13.4117 77.2294 14.359C80.1748 15.1837 82.4198 17.6466 82.512 20.6892V20.6882Z" fill="url(#paint13_linear_587_12799)"/>
<path d="M75.5306 23.4145C77.209 22.6651 79.2403 22.3126 81.1022 22.1995C80.4904 20.4388 79.8475 18.845 77.5234 18.1937C75.8083 17.713 73.8362 18.1107 72.1946 18.9486C72.6747 19.1673 73.1575 19.385 73.6141 19.6442C73.118 20.0524 72.6182 20.4577 72.123 20.8667C72.702 21.0892 73.231 21.3682 73.7139 21.7754C73.4964 22.0478 73.279 22.3202 73.0606 22.5926C73.6244 22.8103 74.1826 23.0469 74.7568 23.2259C74.9169 23.0469 75.0825 22.8781 75.2576 22.717C75.3565 22.946 75.4449 23.1798 75.5297 23.4145H75.5306Z" fill="url(#paint14_linear_587_12799)"/>
<path d="M76.911 29.0655C78.0716 26.1201 79.861 23.6355 81.787 21.1773C78.0255 20.8493 73.2013 26.6875 72.2392 30.1306C71.794 31.7254 71.7507 33.4805 72.0491 35.6889C73.2041 34.9395 73.7604 33.5229 74.1642 32.224C74.2951 32.3532 74.4268 32.4832 74.5445 32.6209C74.8824 31.9045 75.1074 31.1533 75.4228 30.4322C75.5367 30.6641 75.6468 30.8969 75.7428 31.1363C76.0694 30.6519 76.2596 30.0892 76.4196 29.5151C76.5043 29.2126 76.5806 28.9081 76.6634 28.6093C76.6634 28.6075 76.6643 28.6056 76.6653 28.6037C76.7547 28.7545 76.8394 28.9072 76.911 29.0655Z" fill="url(#paint15_linear_587_12799)"/>
<path d="M53.3801 15.7641C53.2408 15.9705 53.1043 16.1788 52.9781 16.3937C52.8511 16.6076 52.7315 16.8273 52.6289 17.0554C52.7861 16.8612 52.9339 16.6614 53.0798 16.4606C53.2257 16.2598 53.3669 16.0563 53.5081 15.8527C53.6465 15.6472 53.7848 15.4417 53.9166 15.2306C54.0494 15.0204 54.1774 14.8064 54.2922 14.584C54.1247 14.7697 53.9684 14.9638 53.8178 15.1608C53.6662 15.3578 53.5213 15.5605 53.3801 15.7641Z" fill="#546B22"/>
<path d="M55.2417 15.6318C55.1203 15.825 55.0007 16.0182 54.8868 16.2152C54.772 16.4112 54.6581 16.6082 54.5508 16.8118C54.7108 16.6469 54.8539 16.4669 54.9885 16.2821C55.124 16.0983 55.2492 15.907 55.3735 15.7166C55.4949 15.5243 55.6154 15.3311 55.7321 15.136C55.8498 14.9418 55.9665 14.7467 56.0795 14.5469C55.9147 14.7081 55.7688 14.8853 55.6314 15.0681C55.493 15.251 55.3669 15.4414 55.2426 15.6318H55.2417Z" fill="#546B22"/>
<path d="M57.8368 15.5514C57.9573 15.3987 58.0768 15.2451 58.1879 15.082C58.0298 15.2008 57.8848 15.3328 57.7464 15.4704C57.6071 15.608 57.4763 15.7541 57.3501 15.903C57.2259 16.0538 57.1054 16.2074 56.9943 16.3686C56.8823 16.5289 56.7769 16.6947 56.6865 16.8701C56.8287 16.7334 56.9604 16.5892 57.0894 16.444C57.2193 16.2989 57.3436 16.1509 57.4697 16.0029C57.593 15.853 57.7173 15.7041 57.8368 15.5514Z" fill="#546B22"/>
<path d="M58.9497 16.0653C59.0269 15.9833 59.0994 15.8966 59.169 15.807C59.2387 15.7175 59.3046 15.6232 59.3582 15.5195C59.2575 15.5799 59.1672 15.6496 59.0815 15.7241C58.9958 15.7985 58.913 15.8768 58.8358 15.9597C58.7586 16.0426 58.6861 16.1303 58.6184 16.2227C58.5515 16.315 58.4894 16.4121 58.4414 16.5196C58.5384 16.4536 58.625 16.3801 58.7087 16.3037C58.7916 16.2274 58.8725 16.1482 58.9488 16.0662L58.9497 16.0653Z" fill="#63812F"/>
<path d="M52.8086 21.2432C52.723 21.4581 52.6411 21.6748 52.5677 21.8945C52.4933 22.1131 52.4236 22.3346 52.3662 22.5608C52.4829 22.3591 52.5846 22.1499 52.6806 21.9397C52.7776 21.7295 52.8651 21.5156 52.9526 21.3025C53.0374 21.0876 53.1221 20.8727 53.2002 20.6559C53.2802 20.4392 53.3574 20.2214 53.4252 19.998C53.2991 20.1941 53.1899 20.3996 53.0891 20.6088C52.9875 20.8171 52.8962 21.0301 52.8086 21.2441V21.2432Z" fill="#63812F"/>
<path d="M54.4739 21.0663C54.391 21.2821 54.311 21.4999 54.2386 21.7195C54.1651 21.9391 54.0964 22.1597 54.0371 22.3849C54.1557 22.1842 54.2574 21.9749 54.3515 21.7628C54.4466 21.5517 54.5332 21.3368 54.6179 21.1229C54.7007 20.907 54.7826 20.6921 54.8608 20.4744C54.9398 20.2576 55.018 20.0408 55.0895 19.8184C54.9596 20.0125 54.8504 20.218 54.7497 20.4272C54.648 20.6365 54.5595 20.8505 54.4739 21.0654V21.0663Z" fill="#63812F"/>
<path d="M55.7345 21.5709C55.6583 21.7631 55.5867 21.9573 55.5293 22.1581C55.646 21.9837 55.7477 21.8037 55.8456 21.6208C55.9435 21.4389 56.0338 21.2523 56.1214 21.0657C56.207 20.8781 56.2908 20.6886 56.3661 20.4964C56.4424 20.3041 56.5139 20.1099 56.5723 19.9082C56.4565 20.0816 56.3539 20.2626 56.2569 20.4455C56.159 20.6274 56.0687 20.814 55.9802 21.0006C55.8945 21.1891 55.8108 21.3776 55.7345 21.5699V21.5709Z" fill="#63812F"/>
<path d="M57.2106 21.4619C57.1729 21.6221 57.1409 21.7833 57.1221 21.951C57.2011 21.804 57.2661 21.6522 57.3263 21.4977C57.3866 21.344 57.4393 21.1866 57.4892 21.0292C57.5362 20.8709 57.5683 20.7088 57.5984 20.5457C57.6276 20.3826 57.652 20.2186 57.6614 20.0527C57.5899 20.2045 57.5334 20.36 57.4817 20.5155C57.4544 20.5928 57.4327 20.672 57.4082 20.7502C57.3847 20.8285 57.3678 20.9086 57.3395 20.9859C57.2924 21.1423 57.2473 21.2997 57.2106 21.46V21.4619Z" fill="#63812F"/>
<path d="M61.187 29.3296C61.3291 29.1439 61.4646 28.9516 61.5804 28.748C61.4129 28.913 61.2538 29.0817 61.0947 29.2514C60.9347 29.4201 60.7794 29.5916 60.6222 29.7641C60.4678 29.9375 60.3125 30.111 60.1647 30.291C60.016 30.4701 59.8701 30.6539 59.7383 30.8481C59.9181 30.6963 60.0875 30.537 60.2541 30.373C60.4207 30.2099 60.5808 30.0403 60.738 29.8678C60.8933 29.6934 61.0448 29.5162 61.187 29.3296Z" fill="#63812F"/>
<path d="M61.5619 30.3574C61.464 30.4611 61.3708 30.5676 61.2786 30.6741L60.2272 31.8457C60.1358 31.9447 60.0445 32.0446 59.9561 32.1483C60.1302 32.0427 60.2921 31.9202 60.4465 31.7882C60.6009 31.6563 60.7449 31.513 60.8814 31.3622C61.016 31.2095 61.1431 31.0511 61.2569 30.8834C61.3718 30.7165 61.4763 30.5422 61.5629 30.3574H61.5619Z" fill="#63812F"/>
<path d="M61.6083 32.3105C61.5047 32.3944 61.4134 32.4859 61.3259 32.5801C61.2384 32.6744 61.1536 32.7705 61.0727 32.8704C60.9917 32.9703 60.9155 33.0731 60.8421 33.1796C60.7686 33.2861 60.699 33.3954 60.6406 33.5142C60.7489 33.4369 60.8439 33.3492 60.9353 33.2569C61.0266 33.1645 61.1132 33.0693 61.1932 32.9685C61.2741 32.8685 61.3504 32.763 61.42 32.6546C61.4906 32.5462 61.5556 32.4331 61.6073 32.3105H61.6083Z" fill="#63812F"/>
<path d="M66.1617 27.7242C66.1965 27.5149 66.2257 27.3038 66.2408 27.0898C66.1626 27.2897 66.1005 27.4933 66.044 27.6978C65.9857 27.9023 65.9367 28.1078 65.8878 28.3142C65.8417 28.5206 65.7965 28.7271 65.7569 28.9363C65.7174 29.1446 65.6807 29.3539 65.6553 29.5659C65.7428 29.3699 65.8125 29.1682 65.8746 28.9655C65.9377 28.7619 65.9894 28.5565 66.0384 28.3491C66.0845 28.1417 66.1278 27.9344 66.1617 27.7242Z" fill="#546B22"/>
<path d="M67.0285 29.0056C67.053 28.8623 67.0709 28.7181 67.0822 28.573C67.0935 28.4278 67.0963 28.2808 67.0803 28.1328C67.0333 28.2733 66.9965 28.4137 66.9627 28.5541C66.9297 28.6955 66.8996 28.8369 66.8751 28.9802C66.8506 29.1234 66.8328 29.2676 66.8233 29.4137C66.8139 29.5598 66.812 29.7069 66.8309 29.8539C66.876 29.7125 66.9118 29.5721 66.9438 29.4307C66.9758 29.2893 67.006 29.1479 67.0295 29.0056H67.0285Z" fill="#546B22"/>
<path d="M67.703 30.3237C67.72 30.1757 67.7313 30.0258 67.7228 29.875C67.6672 30.0164 67.6239 30.1578 67.5844 30.301C67.5449 30.4443 67.5091 30.5876 67.4799 30.7327C67.4498 30.8779 67.4263 31.0249 67.4103 31.1729C67.3943 31.3209 67.3858 31.4707 67.3961 31.6225C67.4498 31.4802 67.4912 31.3388 67.5298 31.1955C67.5684 31.0522 67.6032 30.909 67.6324 30.7638C67.6625 30.6187 67.6861 30.4726 67.703 30.3246V30.3237Z" fill="#546B22"/>
<path d="M68.9325 31.4252C68.9504 31.2961 68.9636 31.1651 68.9608 31.0312C68.9005 31.151 68.8553 31.2744 68.8148 31.3979C68.7744 31.5223 68.7395 31.6477 68.7104 31.7749C68.6812 31.9022 68.6586 32.0304 68.6426 32.1604C68.6266 32.2905 68.6172 32.4215 68.6247 32.5563C68.6802 32.4347 68.7226 32.3103 68.7612 32.1859C68.7988 32.0615 68.8337 31.9361 68.8619 31.8089C68.8911 31.6826 68.9146 31.5544 68.9325 31.4243V31.4252Z" fill="#63812F"/>
<path d="M71.6474 30.1885C71.687 30.0226 71.7105 29.8567 71.7274 29.6899C71.7453 29.523 71.7538 29.3562 71.7594 29.1894C71.7623 29.0225 71.7623 28.8548 71.751 28.687C71.7415 28.5192 71.7255 28.3524 71.6917 28.1855C71.6606 28.3524 71.6437 28.5192 71.6295 28.686C71.6154 28.8529 71.6088 29.0188 71.6032 29.1856C71.6003 29.3524 71.5985 29.5193 71.6051 29.6861C71.6107 29.8529 71.6211 30.0207 71.6465 30.1885H71.6474Z" fill="#63812F"/>
<path d="M72.9704 31.106C73.0052 30.9693 73.025 30.8336 73.0391 30.6969C73.0532 30.5612 73.0617 30.4245 73.0636 30.2888C73.0664 30.1521 73.0636 30.0164 73.0541 29.8797C73.0457 29.743 73.0315 29.6064 73.0014 29.4688C72.9666 29.6035 72.9468 29.7402 72.9327 29.8769C72.9186 30.0135 72.9101 30.1502 72.9073 30.2869C72.9045 30.4236 72.9073 30.5602 72.9167 30.6969C72.9252 30.8336 72.9393 30.9702 72.9694 31.1069L72.9704 31.106Z" fill="#63812F"/>
<path d="M69.5755 23.0974C69.4795 22.8768 69.3553 22.6695 69.2159 22.4734C69.0776 22.2764 68.9204 22.0926 68.7538 21.9192C68.5843 21.7477 68.4055 21.5865 68.2134 21.4413C68.0224 21.2962 67.819 21.1652 67.6025 21.0605L69.5746 23.0974H69.5755Z" fill="#63812F"/>
<path d="M70.7486 22.5289C70.6441 22.3507 70.5217 22.183 70.3937 22.0227C70.2629 21.8634 70.1245 21.7107 69.9767 21.5684C69.8299 21.4252 69.6764 21.2885 69.5117 21.1641C69.6303 21.3337 69.7593 21.4921 69.8873 21.6504C69.9024 21.6693 69.9184 21.6881 69.9344 21.7079L71.0103 23.0906C70.9453 22.8946 70.854 22.708 70.7486 22.5298V22.5289Z" fill="#63812F"/>
<path d="M72.6513 23.4826C72.6155 23.2894 72.5571 23.1019 72.4856 22.9199C72.415 22.7371 72.3284 22.5608 72.2343 22.3902C72.1373 22.2206 72.0319 22.0547 71.9142 21.8992C71.7975 21.7427 71.6704 21.5938 71.5273 21.459C71.581 21.5598 71.6356 21.6579 71.6921 21.7549L72.6513 23.4817V23.4826Z" fill="#63812F"/>
<path d="M75.1545 28.2547C75.1272 28.1171 75.0914 27.9804 75.0472 27.8475C75.0039 27.7146 74.9521 27.5836 74.8937 27.4564C74.8354 27.3291 74.7704 27.2038 74.6895 27.0859C74.7102 27.2273 74.7431 27.3631 74.7798 27.4978C74.8165 27.6326 74.8561 27.7646 74.8994 27.8965C74.9417 28.0285 74.9888 28.1586 75.0377 28.2886C75.0867 28.4187 75.1385 28.5478 75.2015 28.676C75.2015 28.5328 75.1818 28.3923 75.1545 28.2547Z" fill="#63812F"/>
<path d="M76.0958 28.1108C76.1203 27.9336 76.1213 27.7545 76.1118 27.5773C76.1034 27.4001 76.0827 27.2238 76.0582 27.0495C76.0318 26.8751 76.0027 26.7017 75.9678 26.5292C75.9339 26.3567 75.8972 26.1842 75.852 26.0117C75.8332 26.1899 75.837 26.368 75.8483 26.5452C75.8586 26.7224 75.8812 26.8977 75.9048 27.0721C75.9311 27.2465 75.9584 27.419 75.9914 27.5924C76.0224 27.7649 76.0554 27.9374 76.0958 28.1117V28.1108Z" fill="#63812F"/>
<path d="M77.0013 26.9C77.0342 26.7567 77.0493 26.6134 77.0578 26.4692C77.0663 26.325 77.0672 26.1818 77.0615 26.0385C77.0559 25.8952 77.0437 25.752 77.0248 25.6096C77.006 25.4673 76.9825 25.325 76.9429 25.1836C76.9175 25.3278 76.9081 25.472 76.9034 25.6153C76.8987 25.7586 76.8996 25.9018 76.9053 26.0441C76.9109 26.1865 76.9213 26.3288 76.9364 26.4711C76.9514 26.6134 76.9693 26.7558 77.0013 26.899V26.9Z" fill="#63812F"/>
<path d="M77.1916 19.8672C77.0249 19.9935 76.8696 20.1292 76.719 20.2697C76.5675 20.4092 76.4216 20.5543 76.2776 20.7013C76.1354 20.8503 75.9952 21.0001 75.8606 21.1575C75.7259 21.3131 75.5951 21.4733 75.4746 21.6439C75.6403 21.5185 75.7956 21.3828 75.9471 21.2424C76.0987 21.1029 76.2446 20.9568 76.3886 20.8097C76.5308 20.6608 76.672 20.51 76.8056 20.3535C76.9402 20.1971 77.0711 20.0378 77.1916 19.8672Z" fill="#63812F"/>
<path d="M76.5957 21.8517C76.6964 21.7678 76.7877 21.6792 76.8772 21.5897C76.9666 21.5001 77.0551 21.4115 77.1417 21.3201C77.2283 21.2296 77.3139 21.1373 77.3986 21.043C77.4834 20.9487 77.5671 20.8526 77.6443 20.7461C77.5267 20.8036 77.4184 20.8752 77.3167 20.9535C77.2151 21.0326 77.1181 21.1184 77.0296 21.2117C76.9402 21.3041 76.8583 21.4049 76.784 21.5105C76.7096 21.6161 76.6437 21.7282 76.5957 21.8498V21.8517Z" fill="#63812F"/>
<path d="M74.8994 20.1707C74.8128 20.2508 74.7309 20.3347 74.6527 20.4224C74.5746 20.51 74.5012 20.6015 74.4325 20.6967C74.3638 20.7919 74.2988 20.8899 74.2461 20.9983C74.3487 20.9314 74.4391 20.855 74.5247 20.7758C74.6104 20.6957 74.6932 20.6128 74.7704 20.5251C74.8476 20.4384 74.921 20.347 74.9897 20.2518C75.0584 20.1566 75.1234 20.0586 75.1771 19.9492C75.0754 20.0152 74.985 20.0915 74.8994 20.1717V20.1707Z" fill="#63812F"/>
<path d="M74.0723 16.7676L75.9201 15.3613C75.7309 15.4179 75.5511 15.4989 75.3788 15.5941C75.2056 15.6884 75.0418 15.7996 74.8856 15.9184C74.7302 16.04 74.5825 16.17 74.446 16.3114C74.3095 16.4528 74.1815 16.6027 74.0723 16.7667V16.7676Z" fill="#546B22"/>
<path d="M77.2037 15.7754C77.0437 15.8282 76.894 15.9073 76.7538 15.9978C76.6116 16.0874 76.4808 16.192 76.3547 16.3023C76.2313 16.4144 76.1137 16.5332 76.0054 16.6604C75.8972 16.7868 75.7955 16.9187 75.707 17.062C75.8426 16.963 75.9678 16.8546 76.092 16.7462L76.4591 16.4192C76.4836 16.3975 76.5081 16.3758 76.5326 16.3541L77.2047 15.7763L77.2037 15.7754Z" fill="#546B22"/>
<path d="M76.5156 17.488C76.6738 17.3909 76.8234 17.2863 76.9712 17.1798C77.1199 17.0752 77.2659 16.9668 77.4127 16.8603C77.5577 16.7509 77.7045 16.6435 77.8485 16.5313C77.9925 16.4201 78.1366 16.3061 78.274 16.1816C78.1017 16.2514 77.9389 16.3372 77.7807 16.4305C77.6217 16.5228 77.4701 16.6265 77.3204 16.734C77.1736 16.8443 77.0296 16.9592 76.895 17.0846C76.7594 17.209 76.6305 17.341 76.5156 17.4871V17.488Z" fill="#546B22"/>
<path d="M78.3428 17.5184C78.4096 17.5033 78.4651 17.476 78.5179 17.4449C78.5706 17.4138 78.6186 17.378 78.6628 17.3393C78.708 17.3007 78.7494 17.2583 78.788 17.2121C78.8257 17.165 78.8624 17.116 78.8916 17.0547C78.8238 17.0641 78.7664 17.0886 78.7118 17.1169C78.6572 17.1461 78.6073 17.1819 78.5621 17.2215C78.516 17.2611 78.4746 17.3045 78.4378 17.3535C78.4011 17.4025 78.3672 17.4543 78.3437 17.5184H78.3428Z" fill="#63812F"/>
<path d="M80.9221 29.0469C80.7809 29.1986 80.6501 29.356 80.5202 29.5144C80.3903 29.6718 80.2641 29.833 80.1389 29.9941C80.0156 30.1572 79.8923 30.3203 79.7746 30.489C79.657 30.6568 79.5431 30.8283 79.4414 31.0093C79.5939 30.8679 79.7342 30.718 79.8697 30.5644C80.0062 30.4107 80.1352 30.2515 80.2613 30.0893C80.3855 29.9253 80.506 29.7594 80.6171 29.586C80.7291 29.4135 80.8336 29.2354 80.9211 29.0469H80.9221Z" fill="#546B22"/>
<path d="M80.8548 30.7111C80.7786 30.7884 80.707 30.8713 80.6421 30.9571C80.5762 31.0428 80.5169 31.1333 80.4613 31.2257C80.4058 31.319 80.355 31.4152 80.3154 31.5198C80.4067 31.4538 80.4849 31.3774 80.5583 31.2983C80.6317 31.2191 80.7014 31.1362 80.7663 31.0504C80.8313 30.9646 80.8925 30.877 80.9499 30.7855C81.0073 30.6941 81.0628 30.6008 81.108 30.498C81.0139 30.5593 80.932 30.6319 80.8557 30.7101L80.8548 30.7111Z" fill="#63812F"/>
<path d="M79.9512 28.4372C79.89 28.5418 79.8335 28.6483 79.7799 28.7558C79.7262 28.8632 79.6773 28.9735 79.6312 29.0847C79.585 29.1959 79.5417 29.31 79.5088 29.4306C79.5973 29.342 79.6707 29.244 79.7385 29.1413C79.8053 29.0395 79.8665 28.933 79.9201 28.8236C79.9738 28.7143 80.0209 28.6021 80.0613 28.4871C80.1018 28.3722 80.1366 28.2543 80.1555 28.1309C80.0773 28.2289 80.0124 28.3316 79.9512 28.4362V28.4372Z" fill="#546B22"/>
<path d="M85.1581 27.7619C85.2155 27.564 85.2438 27.3576 85.2541 27.1512C85.2654 26.9447 85.256 26.7383 85.2362 26.5328C85.2136 26.3283 85.1826 26.1247 85.1374 25.9249C85.0941 25.7241 85.0404 25.5262 84.9727 25.332C84.9783 25.5385 84.9981 25.742 85.0188 25.9437C85.0197 25.9551 85.0216 25.9664 85.0225 25.9777L85.159 27.761L85.1581 27.7619Z" fill="#63812F"/>
<path d="M86.1608 28.3668C86.2163 28.1839 86.2502 27.9964 86.2719 27.8079C86.2954 27.6193 86.3039 27.4299 86.3067 27.2404C86.3067 27.051 86.301 26.8615 86.2841 26.673C86.2681 26.4845 86.2455 26.2969 86.2078 26.1094C86.1815 26.2988 86.1711 26.4873 86.1636 26.6758C86.1551 26.8644 86.1542 27.0519 86.1514 27.2395V27.8013C86.1514 27.9888 86.1523 28.1764 86.1608 28.3677V28.3668Z" fill="#63812F"/>
<path d="M86.9966 28.2751C87.006 28.0753 87.0107 27.8755 87.0041 27.6756C86.9994 27.4758 86.9872 27.276 86.9608 27.0762C86.9232 27.2741 86.9015 27.473 86.8836 27.6719C86.8648 27.8707 86.8535 28.0687 86.8413 28.2666C86.8319 28.4646 86.8206 28.6625 86.814 28.8614C86.8055 29.0602 86.798 29.2582 86.7989 29.4599C86.862 29.2686 86.9043 29.0716 86.9345 28.8727C86.9665 28.6747 86.9843 28.4749 86.9966 28.2751Z" fill="#63812F"/>
<path d="M87.6873 29.7417C87.7156 29.6191 87.7344 29.4938 87.7438 29.3684C87.7532 29.243 87.7513 29.1158 87.7391 28.9895C87.7269 28.8632 87.7043 28.7378 87.66 28.6172C87.6403 28.7444 87.629 28.867 87.6177 28.9895L87.5875 29.3562C87.5781 29.4787 87.5715 29.6012 87.5659 29.7247C87.5602 29.8482 87.5574 29.9726 87.5659 30.1008C87.6214 29.9848 87.6581 29.8642 87.6864 29.7407L87.6873 29.7417Z" fill="#63812F"/>
<path d="M89.3175 23.4246C89.2507 23.2465 89.1744 23.073 89.0869 22.9062C89.0003 22.7384 88.9061 22.5744 88.7988 22.418C88.8478 22.6018 88.9108 22.7799 88.9758 22.9552L88.9824 22.9731L89.5029 24.5444C89.5218 24.3549 89.5048 24.1617 89.47 23.9751C89.4361 23.7866 89.3806 23.6037 89.3165 23.4256L89.3175 23.4246Z" fill="#63812F"/>
<path d="M90.878 24.1859C90.8564 24.0247 90.8225 23.8654 90.7782 23.7099C90.7349 23.5544 90.6813 23.4017 90.621 23.2518C90.5608 23.1019 90.493 22.9558 90.4111 22.8145C90.4318 22.9766 90.4676 23.134 90.5062 23.2895C90.5448 23.445 90.5862 23.5987 90.6295 23.7523L90.7604 24.2113C90.8037 24.364 90.847 24.5176 90.8969 24.6741C90.911 24.511 90.9016 24.348 90.8799 24.1868L90.878 24.1859Z" fill="#63812F"/>
<path d="M91.9554 24.1334C91.9299 24.0052 91.8961 23.8799 91.8546 23.7555C91.8132 23.632 91.7652 23.5104 91.7021 23.3926C91.7031 23.5255 91.7182 23.6546 91.737 23.7828C91.7558 23.911 91.7775 24.0373 91.8029 24.1626C91.8273 24.288 91.8556 24.4134 91.8848 24.5387C91.9139 24.6641 91.945 24.7894 91.9855 24.9157C92.009 24.7847 92.0118 24.6528 92.0052 24.5218C91.9977 24.3907 91.9817 24.2607 91.9563 24.1325L91.9554 24.1334Z" fill="#63812F"/>
<path d="M92.9195 25.1352C92.9139 25.0268 92.9016 24.9184 92.8819 24.8128C92.8621 24.7063 92.8339 24.6017 92.7981 24.498C92.7623 24.3953 92.72 24.2944 92.6607 24.1992C92.6578 24.3114 92.6673 24.4188 92.6804 24.5253C92.6936 24.6319 92.7087 24.7374 92.7284 24.842C92.7482 24.9467 92.7717 25.0503 92.799 25.155C92.8263 25.2586 92.8583 25.3623 92.9045 25.4651C92.9223 25.3548 92.9242 25.2455 92.9186 25.1371L92.9195 25.1352Z" fill="#63812F"/>
<path d="M7.37842 63.6605C9.45025 61.34 11.6369 59.7301 14.1314 58.912C15.9001 58.3323 17.8251 58.1513 19.9741 58.3983C20.7855 56.2785 21.5866 54.1464 22.3453 51.9757C20.9521 53.333 19.6014 54.7459 18.2986 56.2662C18.4257 54.0767 18.5847 51.9013 18.7466 49.7268C17.5945 51.4375 16.48 53.1954 15.3862 55.0004C14.8637 51.4064 14.4119 47.8172 13.9648 44.2298C13.4226 47.2856 13.2908 50.4167 13.4019 53.7986C11.4618 49.0708 9.58768 44.3759 7.25887 39.9082C7.97615 44.4259 9.0869 48.9972 10.2268 53.5375C8.40257 50.4073 6.43523 47.574 4.32763 44.6643C5.1974 46.8869 6.06152 49.1075 6.87294 51.3678C5.71042 50.1764 4.5253 49.0585 3.30442 48.0368C4.51683 50.5534 5.72924 53.0691 6.92753 55.5961C5.68218 54.4452 4.41423 53.4084 3.10957 52.464C4.3681 54.579 5.68312 56.6489 7.00472 58.7018C6.0587 58.2475 5.12304 57.8356 4.18549 57.5179C4.85853 58.55 5.54851 59.5595 6.25355 60.552C5.11551 60.3927 4.03017 60.4295 2.98438 60.7104C4.45 61.6765 5.90715 62.6963 7.3756 63.6596L7.37842 63.6605Z" fill="url(#paint16_linear_587_12799)"/>
<path d="M18.9825 66.7732C12.6983 65.6431 6.32656 64.8428 0 63.9106C3.9488 59.3289 8.07175 57.6078 11.6506 58.6493C14.5941 59.5061 17.1705 62.232 18.9816 66.7741L18.9825 66.7732Z" fill="url(#paint17_linear_587_12799)"/>
<path d="M9.04199 63.0159C10.3994 63.5768 13.7147 62.6436 14.7181 63.7427C16.6751 65.886 16.2148 69.9484 18.9512 70.9711C26.3301 73.7299 38.1756 68.9795 38.1869 68.9832C39.276 68.7448 40.0206 71.7534 41.297 71.6017C43.415 71.35 45.7306 71.1681 48.0387 70.8938C53.3354 70.2642 58.5936 69.1473 61.3413 65.5787C60.496 64.5542 59.6535 63.5249 58.8176 62.4891C63.3698 61.5173 68.3983 60.3815 72.3951 57.9705C56.1697 50.9456 51.8755 43.1432 44.0597 21.4258C41.2819 22.3768 38.3855 23.2515 35.4703 23.5984C32.9071 23.9028 30.3288 23.8001 27.8033 22.981C25.6157 30.6392 18.8891 53.4462 9.04199 63.0169V63.0159Z" fill="url(#paint18_linear_587_12799)"/>
<path d="M47.2114 42.604C50.6472 57.9224 50.0928 48.5459 49.9243 45.8747C49.9685 45.3563 50.1173 44.8247 50.6077 44.5099C52.656 43.7464 54.4577 49.0219 56.3619 52.0399C58.9515 55.6659 59.7074 51.9409 59.088 49.7495C52.736 43.7831 49.1421 35.5462 44.0599 21.4258C41.7085 22.2307 39.2724 22.9801 36.8109 23.4014C36.7723 23.4165 36.7356 23.4325 36.697 23.4466C35.878 23.6719 35.045 23.7718 34.211 23.8708C33.8881 23.9094 33.5539 23.8463 33.2151 23.752C31.4266 23.7793 29.64 23.5644 27.8788 23.0036C27.8439 23.0262 27.8101 23.0498 27.7762 23.0734C26.8151 26.4364 25.0059 32.6082 22.4643 39.2985C18.5852 54.6687 22.8399 47.0255 22.887 46.9068C23.4518 45.4279 23.6881 43.8595 24.2519 42.3806C24.6378 41.1798 25.0831 39.5869 26.1581 39.2278C21.0703 51.5196 27.6397 41.0856 27.6491 41.0771C28.661 52.5479 29.4771 43.3816 30.8138 41.1299C31.1865 41.8396 31.211 42.6983 31.3946 43.4796C31.5377 44.0904 31.9095 45.0669 32.542 45.0537C33.4711 45.0339 33.7554 43.1055 34.2289 42.4193C35.1241 41.1242 36.1736 43.1856 36.472 44.1639C40.9715 58.9234 37.3823 47.3479 40.7032 42.9923C40.8962 42.8406 41.3132 42.7916 41.5523 43.0197C42.8485 44.1489 42.374 46.3874 42.8824 47.9954C43.1807 48.7297 43.7907 48.5289 44.1625 48.1C44.9655 46.8493 44.5315 44.9755 44.5598 43.4325C44.7951 35.7271 47.0957 41.6464 47.2086 42.604H47.2114Z" fill="url(#paint19_linear_587_12799)"/>
<path d="M23.8668 31.9882C24.297 30.269 24.6076 28.4348 25.0378 26.7155C25.6459 24.7183 26.2248 22.4674 27.8024 21.5098C29.1711 20.5767 30.6763 21.6814 32.0911 22.0263C32.7462 22.2054 33.4164 22.5108 34.0415 22.4363C34.8755 22.3374 35.7085 22.2384 36.5275 22.0122C38.0458 21.4467 39.325 20.653 40.8283 19.9603C42.1226 19.2929 44.0137 19.1968 44.8487 20.8943C44.9757 21.1224 46.8894 26.543 46.8941 26.5553C49.5213 33.5585 52.222 40.2958 57.2589 45.3442C57.6317 45.8135 58.0195 46.4092 58.2878 46.8899C58.4224 47.1303 58.5711 47.4979 58.7057 47.7382C59.6649 49.7317 59.0276 54.5736 56.1924 50.6036C54.2881 47.5855 52.4865 42.311 50.4382 43.0735C49.9468 43.3884 49.799 43.92 49.7548 44.4384C49.9242 47.1096 50.4777 56.4861 47.0419 41.1677C46.928 40.2091 44.6284 34.2908 44.3931 41.9962C44.3648 43.5401 44.7978 45.413 43.9958 46.6637C43.624 47.0926 43.014 47.2943 42.7156 46.5591C42.2083 44.9511 42.6818 42.7125 41.3856 41.5834C41.1474 41.3553 40.7304 41.4043 40.5365 41.556C37.2165 45.9116 40.8048 57.4871 36.3053 42.7276C36.0069 41.7493 34.9574 39.6888 34.0622 40.983C33.5877 41.6691 33.3044 43.5976 32.3753 43.6174C31.7428 43.6315 31.37 42.6541 31.2279 42.0433C31.0453 41.262 31.0208 40.4033 30.6471 39.6935C29.3104 41.9453 28.4943 51.1126 27.4824 39.6408C27.473 39.6492 20.9036 50.0833 25.9914 37.7915C24.9154 38.1506 24.4711 39.7435 24.0852 40.9443C23.5204 42.4232 23.2841 43.9916 22.7194 45.4705C22.6666 45.6015 17.4414 54.9874 23.8678 31.9863L23.8668 31.9882Z" fill="url(#paint20_linear_587_12799)"/>
<path d="M32.0115 13.9724C31.0401 15.0591 30.0348 15.5709 29.1048 15.6822C27.0875 15.9216 25.4233 14.2759 25.2153 12.5199C25.091 11.4708 25.4864 10.3822 26.6376 9.63474C25.9937 8.77136 25.6577 7.86934 25.5532 6.99088C25.219 4.17547 27.272 1.60607 29.2375 1.37232C30.3172 1.24413 31.0401 1.73049 31.5286 2.56088C32.6817 0.97833 33.9921 0.157366 35.1433 0.020696C36.6616 -0.160274 37.9041 0.850143 38.1442 2.87286C38.2289 3.58449 38.1894 4.42148 37.9936 5.37534C38.6403 5.0888 39.2267 4.92386 39.7566 4.86165C42.0214 4.59208 43.2216 6.18594 43.4438 8.05596C43.7111 10.3068 42.5599 12.9601 40.1379 13.2475C39.2465 13.3541 38.1818 13.1392 36.9534 12.4652C36.1072 14.1807 35.9434 16.0498 36.0159 18.0169C35.2788 18.2299 34.5352 18.4127 33.7878 18.5343C33.4442 16.916 32.9011 15.3127 32.0125 13.9733L32.0115 13.9724Z" fill="#6A6464" fill-opacity="0.5"/>
<path d="M52.207 51.8496L58.8179 62.4891C60.0773 62.2205 61.3726 61.9387 62.6725 61.6211L52.207 51.8496Z" fill="url(#paint21_linear_587_12799)"/>
<path d="M14.7188 63.7428C14.7188 63.7428 20.3902 57.472 21.5546 51.4727C21.1978 54.6689 21.3315 59.3213 15.7372 65.3414L14.7188 63.7438V63.7428Z" fill="url(#paint22_linear_587_12799)"/>
<path d="M36.6581 69.5329C37.6182 69.2086 38.1849 68.9824 38.1868 68.9834C38.4814 68.9193 38.7506 69.0936 39.0123 69.3774L39.0509 69.3274C38.12 66.8098 37.2172 64.0698 36.499 60.6465C36.7626 64.2433 36.7955 67.0992 36.6581 69.5319V69.5329Z" fill="url(#paint23_linear_587_12799)"/>
<path d="M39.1729 21.3127C43.2789 20.0167 44.6682 24.5522 46.1941 25.868C45.2735 25.5334 45.3582 16.7111 39.1729 21.3127Z" fill="#FD9F70"/>
<path d="M54.7109 47.1113C56.1549 49.0775 57.0501 50.1379 58.1994 49.7514C58.1994 49.7514 57.4577 53.1248 54.7109 47.1113Z" fill="#FD9F70"/>
<path d="M3.98828 76.1904C4.06547 69.6312 11.2684 66.4473 18.3367 66.4473C25.405 66.4473 31.7608 69.372 31.8916 75.0528C26.5186 76.3761 21.2115 76.9991 15.6276 76.9991C11.9047 76.9991 8.05852 76.722 3.98922 76.1895L3.98828 76.1904Z" fill="url(#paint24_linear_587_12799)"/>
<path d="M19.4079 66.4727C19.3816 66.6338 19.3834 66.7997 19.422 66.9713C19.5162 67.0929 19.2338 67.173 19.1396 67.2946C19.0455 68.5472 19.6103 69.7593 18.9514 70.9715C18.1983 72.2646 15.8451 73.2751 13.0211 73.6785C10.1322 74.1073 7.16992 74.3675 4.16901 74.5428C4.05794 75.0659 3.99487 75.6154 3.98828 76.1904C8.05852 76.7229 11.9038 77 15.6267 77C21.2105 77 26.5186 76.3761 31.8907 75.0537C31.7664 69.6726 25.7947 66.7648 19.4079 66.4727Z" fill="url(#paint25_linear_587_12799)"/>
</g>
<defs>
<linearGradient id="paint0_linear_587_12799" x1="67.8568" y1="39.9521" x2="76.502" y2="42.3676" gradientUnits="userSpaceOnUse">
<stop stop-color="#CB7839"/>
<stop offset="1" stop-color="#B96D33"/>
</linearGradient>
<linearGradient id="paint1_linear_587_12799" x1="58.1747" y1="43.6061" x2="69.4456" y2="46.7552" gradientUnits="userSpaceOnUse">
<stop stop-color="#784722"/>
<stop offset="0.33" stop-color="#8A5126"/>
<stop offset="1" stop-color="#B96D33"/>
</linearGradient>
<linearGradient id="paint2_linear_587_12799" x1="58.2807" y1="29.5163" x2="63.4533" y2="30.9616" gradientUnits="userSpaceOnUse">
<stop stop-color="#9ECA3B"/>
<stop offset="1" stop-color="#769C40"/>
</linearGradient>
<linearGradient id="paint3_linear_587_12799" x1="51.7167" y1="25.4463" x2="62.1698" y2="28.3669" gradientUnits="userSpaceOnUse">
<stop stop-color="#7C9E2E"/>
<stop offset="1" stop-color="#55702E"/>
</linearGradient>
<linearGradient id="paint4_linear_587_12799" x1="49.8017" y1="15.1325" x2="63.4245" y2="18.9387" gradientUnits="userSpaceOnUse">
<stop stop-color="#7C9E2E"/>
<stop offset="1" stop-color="#55702E"/>
</linearGradient>
<linearGradient id="paint5_linear_587_12799" x1="50.1904" y1="19.8406" x2="64.0045" y2="23.7003" gradientUnits="userSpaceOnUse">
<stop stop-color="#9ECA3B"/>
<stop offset="1" stop-color="#769C40"/>
</linearGradient>
<linearGradient id="paint6_linear_587_12799" x1="63.5461" y1="19.1194" x2="73.3673" y2="21.8634" gradientUnits="userSpaceOnUse">
<stop stop-color="#9ECA3B"/>
<stop offset="1" stop-color="#769C40"/>
</linearGradient>
<linearGradient id="paint7_linear_587_12799" x1="63.3008" y1="21.0469" x2="75.5464" y2="24.4684" gradientUnits="userSpaceOnUse">
<stop stop-color="#9ECA3B"/>
<stop offset="1" stop-color="#769C40"/>
</linearGradient>
<linearGradient id="paint8_linear_587_12799" x1="61.3156" y1="28.5628" x2="72.3807" y2="31.6544" gradientUnits="userSpaceOnUse">
<stop stop-color="#7C9E2E"/>
<stop offset="1" stop-color="#55702E"/>
</linearGradient>
<linearGradient id="paint9_linear_587_12799" x1="63.311" y1="26.3776" x2="76.0344" y2="29.9326" gradientUnits="userSpaceOnUse">
<stop stop-color="#9ECA3B"/>
<stop offset="1" stop-color="#769C40"/>
</linearGradient>
<linearGradient id="paint10_linear_587_12799" x1="77.5348" y1="29.3926" x2="82.4762" y2="30.7732" gradientUnits="userSpaceOnUse">
<stop stop-color="#7C9E2E"/>
<stop offset="1" stop-color="#55702E"/>
</linearGradient>
<linearGradient id="paint11_linear_587_12799" x1="80.6155" y1="27.1476" x2="89.8645" y2="29.7318" gradientUnits="userSpaceOnUse">
<stop stop-color="#9ECA3B"/>
<stop offset="1" stop-color="#769C40"/>
</linearGradient>
<linearGradient id="paint12_linear_587_12799" x1="81.7895" y1="22.3524" x2="95.9373" y2="26.3053" gradientUnits="userSpaceOnUse">
<stop stop-color="#9ECA3B"/>
<stop offset="1" stop-color="#769C40"/>
</linearGradient>
<linearGradient id="paint13_linear_587_12799" x1="70.3992" y1="16.0583" x2="82.836" y2="19.5332" gradientUnits="userSpaceOnUse">
<stop stop-color="#7C9E2E"/>
<stop offset="1" stop-color="#55702E"/>
</linearGradient>
<linearGradient id="paint14_linear_587_12799" x1="72.0262" y1="19.5595" x2="81.1311" y2="22.1034" gradientUnits="userSpaceOnUse">
<stop stop-color="#9ECA3B"/>
<stop offset="1" stop-color="#769C40"/>
</linearGradient>
<linearGradient id="paint15_linear_587_12799" x1="73.0194" y1="27.3441" x2="79.5547" y2="29.1701" gradientUnits="userSpaceOnUse">
<stop stop-color="#9ECA3B"/>
<stop offset="1" stop-color="#769C40"/>
</linearGradient>
<linearGradient id="paint16_linear_587_12799" x1="0.830348" y1="54.0965" x2="20.9002" y2="47.5375" gradientUnits="userSpaceOnUse">
<stop stop-color="#688527"/>
<stop offset="1" stop-color="#425724"/>
</linearGradient>
<linearGradient id="paint17_linear_587_12799" x1="0" y1="62.5637" x2="18.9825" y2="62.5637" gradientUnits="userSpaceOnUse">
<stop stop-color="#784722"/>
<stop offset="0.33" stop-color="#8A5126"/>
<stop offset="1" stop-color="#B96D33"/>
</linearGradient>
<linearGradient id="paint18_linear_587_12799" x1="39.3958" y1="63.2774" x2="43.8126" y2="55.6315" gradientUnits="userSpaceOnUse">
<stop stop-color="#521E10"/>
<stop offset="0.88" stop-color="#3F1309"/>
<stop offset="1" stop-color="#3D1209"/>
</linearGradient>
<linearGradient id="paint19_linear_587_12799" x1="20.8349" y1="37.4916" x2="59.2913" y2="37.4916" gradientUnits="userSpaceOnUse">
<stop stop-color="#501C0B"/>
<stop offset="1" stop-color="#270000"/>
</linearGradient>
<linearGradient id="paint20_linear_587_12799" x1="39.0571" y1="41.9182" x2="43.7663" y2="36.9076" gradientUnits="userSpaceOnUse">
<stop stop-color="#FA4720"/>
<stop offset="1" stop-color="#FE7503"/>
</linearGradient>
<linearGradient id="paint21_linear_587_12799" x1="52.207" y1="57.1694" x2="62.6725" y2="57.1694" gradientUnits="userSpaceOnUse">
<stop stop-color="#501C0B"/>
<stop offset="1" stop-color="#270000"/>
</linearGradient>
<linearGradient id="paint22_linear_587_12799" x1="14.7188" y1="58.407" x2="21.5546" y2="58.407" gradientUnits="userSpaceOnUse">
<stop stop-color="#501C0B"/>
<stop offset="1" stop-color="#270000"/>
</linearGradient>
<linearGradient id="paint23_linear_587_12799" x1="36.499" y1="65.0906" x2="39.0519" y2="65.0906" gradientUnits="userSpaceOnUse">
<stop stop-color="#501C0B"/>
<stop offset="1" stop-color="#270000"/>
</linearGradient>
<linearGradient id="paint24_linear_587_12799" x1="68.2347" y1="40.6977" x2="24.9947" y2="68.7667" gradientUnits="userSpaceOnUse">
<stop stop-color="white"/>
<stop offset="0.43" stop-color="#FCFDFD"/>
<stop offset="0.61" stop-color="#F5F5F6"/>
<stop offset="0.75" stop-color="#E9E9EA"/>
<stop offset="0.86" stop-color="#D7D8D9"/>
<stop offset="0.96" stop-color="#C0C2C3"/>
<stop offset="1" stop-color="#B5B7B8"/>
</linearGradient>
<linearGradient id="paint25_linear_587_12799" x1="68.8842" y1="41.6995" x2="25.6451" y2="69.7676" gradientUnits="userSpaceOnUse">
<stop stop-color="white"/>
<stop offset="0.4" stop-color="#FCFCFD"/>
<stop offset="0.57" stop-color="#F5F5F6"/>
<stop offset="0.7" stop-color="#E9E9E9"/>
<stop offset="0.81" stop-color="#D7D8D8"/>
<stop offset="0.9" stop-color="#C0C1C2"/>
<stop offset="0.98" stop-color="#A4A6A7"/>
<stop offset="1" stop-color="#9EA0A1"/>
</linearGradient>
<clipPath id="clip0_587_12799">
<rect width="95.2486" height="77" fill="white"/>
</clipPath>
</defs>
</svg>
