<svg width="64" height="82" viewBox="0 0 64 82" fill="none" xmlns="http://www.w3.org/2000/svg">
<mask id="mask0_590_25330" style="mask-type:luminance" maskUnits="userSpaceOnUse" x="0" y="0" width="64" height="79">
<path d="M63.4416 0H0V78.35H63.4416V0Z" fill="white"/>
</mask>
<g mask="url(#mask0_590_25330)">
<path d="M11.8388 68.2887C11.8388 68.2887 1.73392 68.1569 0.237144 70.2669C-1.48712 72.6999 6.60009 73.1681 11.275 73.4318C15.9533 73.6956 3.93952 76.7023 24.3735 78.1826C38.9687 79.2376 51.6913 75.0176 43.8316 73.6989C43.8316 73.6989 40.4622 72.7758 45.3284 72.6439C50.1945 72.512 58.4268 68.292 45.1404 68.292H11.8388V68.2887Z" fill="#A87934"/>
<path d="M23.0982 1.74387L19.2178 51.5101C19.2178 51.5101 19.6167 52.1793 23.0817 51.7375L23.807 1.86586C23.807 1.86586 23.54 0.662498 23.0982 1.74387Z" fill="#CFCFCF"/>
<path d="M23.0978 1.74326L22.8209 5.30058C23.5132 6.31272 23.1572 10.1832 22.8209 13.9219C22.656 15.7516 22.2901 16.688 21.8978 17.1462L19.8207 43.8014C22.5538 44.2596 22.5341 46.4422 21.9736 46.6664C21.6274 46.8048 20.49 46.4883 19.6328 46.2081L19.2207 51.5061C19.2207 51.5061 19.6196 52.1754 23.0846 51.7336L23.8099 1.86195C23.8099 1.86195 23.5429 0.658594 23.1011 1.73996L23.0978 1.74326Z" fill="#B2B2B2"/>
<path d="M33.1801 55.0352C33.1801 55.0352 37.4198 55.3253 38.6397 55.5594C38.6397 55.5594 39.6848 53.5253 39.9188 53.0044C40.1496 52.4834 40.3837 52.6549 44.9136 53.5286C43.519 59.8025 43.2882 59.397 43.2882 59.397C43.2882 59.397 36.3747 59.9212 34.9208 58.1771C33.4702 56.4331 33.1768 55.0385 33.1768 55.0385L33.1801 55.0352Z" fill="#683A1B"/>
<path d="M34.4559 56.6035L39.8002 57.1277L44.2147 58.4069C44.2147 58.4069 44.6202 59.6861 41.02 59.5674C37.4198 59.452 34.3966 59.0432 34.4559 56.6035Z" fill="#422211"/>
<path d="M47.4722 55.4441L40.6147 54.9199L39.8037 57.1288L44.8578 58.6981L47.4722 55.4441Z" fill="#301709"/>
<path d="M54.7048 17.3615L45.9121 49.4565C45.9121 49.4565 46.0901 49.9444 48.4111 50.0928L55.1499 17.5297C55.1499 17.5297 55.1268 16.7087 54.7016 17.3615H54.7048Z" fill="#B2B2B2"/>
<path d="M62.7534 25.3068C62.7138 25.3035 62.6743 25.2903 62.6347 25.2738C62.5721 25.2442 56.2355 22.277 46.1735 19.8703C45.9724 19.8208 45.8471 19.6197 45.8965 19.4186C45.946 19.2175 46.1438 19.0922 46.3482 19.1417C56.496 21.5681 62.8952 24.5683 62.9578 24.598C63.1457 24.687 63.2249 24.9112 63.1358 25.0991C63.0666 25.2474 62.9084 25.3299 62.7534 25.3101V25.3068Z" fill="#CFCFCF"/>
<path d="M43.0608 31.6822C43.0608 31.6822 49.0083 34.5505 57.6362 35.7571C58.1307 31.1778 60.188 26.6017 61.6947 23.9774C61.2628 23.7763 61.0188 23.7236 61.0188 23.7236C61.0188 23.7236 60.4979 24.772 60.1946 24.9896C59.8913 25.2072 57.2505 24.9566 58.7473 22.8598L58.2231 22.5993C58.2231 22.5993 57.8208 24.139 56.9043 24.0104C55.9878 23.8818 54.9954 23.2884 55.9449 21.8114L55.4339 21.6531C55.4339 21.6531 55.1405 23.3576 54.3163 23.2884C53.4921 23.2191 52.6711 22.9257 52.8591 22.1411C53.047 21.3564 53.2184 20.974 53.2184 20.974L52.8096 20.8025C52.8096 20.8025 52.5953 22.4642 51.7546 22.5466C50.9139 22.629 49.9413 22.1147 50.06 21.4982C50.1787 20.8817 50.5381 20.1662 50.5381 20.1662L50.0534 20.0113C50.0534 20.0113 49.727 21.7619 48.9028 21.7191C48.0753 21.6762 47.3995 21.4224 47.5742 20.763C47.7489 20.1036 47.9929 19.5267 47.9929 19.5267L47.5313 19.375C47.5313 19.375 42.8663 25.4182 43.0575 31.6888L43.0608 31.6822Z" fill="#42454C"/>
<path d="M59.4497 24.0768C59.4497 24.0768 59.4333 24.0768 59.4234 24.0735C59.3442 24.0505 59.2981 23.968 59.3212 23.8856L59.5091 23.2493L54.7517 18.5941L49.0745 19.9063L48.8272 20.5492C48.7976 20.6283 48.7085 20.6646 48.6327 20.6349C48.5569 20.6052 48.5173 20.5195 48.547 20.4404L48.8239 19.725C48.8404 19.6788 48.88 19.6426 48.9294 19.6327L54.7649 18.2842C54.8143 18.2711 54.8671 18.2842 54.9034 18.3238L59.7827 23.101C59.8223 23.1405 59.8388 23.1966 59.8223 23.2493L59.6113 23.9713C59.5915 24.0439 59.5223 24.0867 59.4497 24.0801V24.0768Z" fill="#422211"/>
<path d="M43.137 50.6953L41.4688 55.1428C41.4688 55.1428 45.2569 57.3121 49.9351 56.8604C49.9351 56.8604 50.2714 54.0317 50.4659 52.291C47.6306 52.0272 43.137 50.6953 43.137 50.6953Z" fill="#AD662B"/>
<path d="M43.1364 50.6953L42.9023 51.3151C43.1726 51.5921 43.7957 52.0602 43.7957 52.2086C43.7133 52.8679 43.3836 55.8384 41.5077 55.0307L41.4648 55.1428C41.4648 55.1428 45.2529 57.3121 49.9312 56.8604C49.9312 56.8604 50.2675 54.0317 50.462 52.291C47.6267 52.0272 43.1331 50.6953 43.1331 50.6953H43.1364Z" fill="#894B21"/>
<path d="M23.7878 4.04761C23.7878 4.04761 26.7319 8.85114 23.6328 11.482C27.8165 12.5667 32.1915 13.4964 35.04 14.6569C36.8269 15.3855 39.6292 16.4175 40.5589 16.5724C39.4742 15.6427 37.1104 14.5778 37.1104 14.5778H37.8852C37.8852 14.5778 35.3301 11.9832 34.4564 11.1688L38.4654 12.2139L37.7665 11.5744C37.7665 11.5744 41.3106 12.9096 42.5898 13.4338C43.869 13.958 35.9664 8.95994 34.6872 7.91483H35.6169C35.6169 7.91483 29.7881 4.41026 23.7845 4.04102L23.7878 4.04761Z" fill="#A90000"/>
<path d="M29.643 9.83348C33.4773 9.59941 27.899 7.15973 26.0395 5.88384C24.9713 5.14864 24.7472 4.52883 24.7504 4.1365C24.4307 4.10023 24.1109 4.07056 23.7878 4.05078C23.7878 4.05078 26.7319 8.85431 23.6328 11.4852C27.8165 12.5699 32.1915 13.4996 35.04 14.6601C35.5872 14.8843 36.2301 15.1348 36.8829 15.3821C34.1366 13.8425 29.6265 11.8742 27.3187 11.2281C24.4142 10.4137 25.8087 10.0676 29.643 9.83348Z" fill="#780404"/>
<path d="M23.0853 11.8899C22.4326 11.8899 22.0402 11.6559 22.0172 11.6427C21.8523 11.5438 21.7996 11.3295 21.8985 11.1646C21.9974 10.9998 22.2117 10.947 22.3732 11.0459C22.3963 11.0591 22.8315 11.2998 23.5535 11.1415C23.7414 11.102 23.9261 11.2207 23.9689 11.4086C24.0085 11.5965 23.8898 11.7811 23.7019 11.824C23.4744 11.8735 23.2667 11.8932 23.0821 11.8932L23.0853 11.8899Z" fill="#A90000"/>
<path d="M23.2827 4.60148C22.6925 4.60148 22.376 4.29158 22.3563 4.27509C22.2211 4.13992 22.2211 3.91903 22.3563 3.78386C22.4914 3.64869 22.7057 3.64869 22.8442 3.77727C22.8673 3.79705 23.1904 4.0608 23.8563 3.76737C24.0344 3.68825 24.2388 3.77067 24.3146 3.9487C24.3904 4.12344 24.3146 4.33114 24.1366 4.40697C23.8069 4.55203 23.5201 4.60148 23.2794 4.60148H23.2827Z" fill="#A90000"/>
<path d="M37.5813 24.1355C37.5088 24.1355 37.4363 24.1224 37.3637 24.0993C37.245 24.0597 25.3302 20.0474 6.87431 17.7891C6.50506 17.7429 6.24131 17.4066 6.28747 17.0374C6.33363 16.6681 6.66661 16.4044 7.03916 16.4506C25.6467 18.7254 37.6802 22.7805 37.7989 22.8234C38.1517 22.9421 38.3396 23.3278 38.2209 23.6806C38.1253 23.9608 37.8615 24.1388 37.5813 24.1388V24.1355Z" fill="#CFCFCF"/>
<path d="M3.71926 39.5171C3.71926 39.5171 14.9154 43.4305 30.5656 43.8327C30.5195 35.5576 33.2625 26.9692 35.4219 21.9778C34.6109 21.7074 34.1625 21.6646 34.1625 21.6646C34.1625 21.6646 33.4438 23.6427 32.9493 24.0911C32.4547 24.5394 27.6875 24.6317 29.9359 20.5832L28.9469 20.2238C28.9469 20.2238 28.5414 23.0558 26.8797 23.013C25.2148 22.9701 23.3257 22.1129 24.7203 19.2809L23.7774 19.0996C23.7774 19.0996 23.5961 22.202 22.1125 22.2481C20.6289 22.2943 19.0991 21.9316 19.2805 20.4942C19.4618 19.0534 19.686 18.3347 19.686 18.3347L18.9211 18.1105C18.9211 18.1105 18.8749 21.1239 17.3914 21.4371C15.9078 21.7503 14.0648 21.0316 14.1538 19.9073C14.2429 18.7831 14.7374 17.4347 14.7374 17.4347L13.8373 17.2567C13.8373 17.2567 13.6132 20.448 12.1296 20.5403C10.646 20.6293 9.38657 20.3161 9.5679 19.0996C9.74593 17.8864 10.0624 16.805 10.0624 16.805L9.20854 16.627C9.20854 16.627 2.1005 28.3638 3.71926 39.5171Z" fill="#42454C"/>
<path d="M32.3195 22.7577C32.3195 22.7577 32.2899 22.7577 32.2734 22.7544C32.125 22.728 32.0294 22.5895 32.0558 22.4412L32.2602 21.2675L22.8246 13.9221L12.9537 17.42L12.6438 18.6135C12.6076 18.7586 12.4559 18.841 12.3141 18.808C12.1691 18.7717 12.0834 18.6234 12.1229 18.4783L12.4691 17.1431C12.4922 17.0574 12.5548 16.9881 12.6405 16.9585L22.785 13.3649C22.8707 13.3352 22.9696 13.3484 23.0421 13.4077L32.725 20.9444C32.8042 21.007 32.8404 21.1059 32.8239 21.2048L32.5932 22.5368C32.5701 22.6686 32.458 22.7609 32.3261 22.7609L32.3195 22.7577Z" fill="#422211"/>
<path d="M44.8111 53.7711C44.5605 54.6612 44.0825 56.3987 43.2879 59.3922C37.9437 59.0427 34.9205 58.1724 34.9205 58.1724C34.4952 56.9459 33.3808 52.693 32.9786 51.1369C20.2923 48.3125 13.9491 46.9004 13.9491 46.9004C13.9491 46.9004 14.2986 48.9346 14.0645 51.3742C13.8337 53.8139 13.0755 69.2663 21.2682 71.7653C21.2682 71.7653 32.5401 72.1148 44.0429 69.9653C45.4935 69.8499 49.5619 64.5617 52.0609 55.3832C49.4728 54.8063 47.0628 54.2689 44.8111 53.7711Z" fill="#331C1C"/>
<path d="M44.8111 53.7723C44.5605 54.6624 44.0825 56.3999 43.2879 59.3934C37.9437 59.044 34.9205 58.1736 34.9205 58.1736C34.4952 56.9472 33.3808 52.6942 32.9786 51.1381C30.9115 50.6798 29.0685 50.2677 27.4267 49.9018C32.0786 51.6623 31.6368 56.0966 32.6621 59.6803C33.127 60.8408 36.6118 61.6551 38.2404 61.6551C41.9593 62.1199 46.0243 62.5848 46.954 58.1703C51.0191 57.7054 46.72 67.0026 43.0044 68.1631C37.4261 70.0225 29.062 69.0928 23.4837 67.4675C15.4855 65.0904 16.3328 54.8734 16.491 47.472C14.7964 47.0961 13.9491 46.9082 13.9491 46.9082C13.9491 46.9082 14.2986 48.9424 14.0645 51.3821C13.8337 53.8217 13.0755 69.2741 21.2682 71.7732C21.2682 71.7732 32.5401 72.1226 44.0429 69.9731C45.4935 69.8577 49.5619 64.5695 52.0609 55.391C49.4728 54.8141 47.0628 54.2767 44.8111 53.7789V53.7723Z" fill="#231414"/>
<path d="M10.8107 47.3105L4.59277 50.4492C4.59277 50.4492 4.8829 69.3897 16.2109 71.1897C12.7261 65.1466 10.7513 53.8186 10.8074 47.3138L10.8107 47.3105Z" fill="#331C1C"/>
<path d="M16.2142 71.1864C12.7294 65.1433 10.7546 53.8153 10.8107 47.3105L4.59277 50.4492C4.59277 50.4492 4.60596 51.3129 4.73784 52.6877C6.0368 52.2723 8.02811 51.8998 9.07321 52.246C8.60836 60.3793 10.0029 61.6585 10.237 65.4928C10.237 65.7895 9.88754 66.8873 9.28751 66.7555C10.9425 69.0006 13.1844 70.7084 16.2142 71.1897V71.1864Z" fill="#231414"/>
<path d="M3.55078 50.6199C3.55078 50.6199 3.61012 52.1298 4.13103 52.5387C4.65193 52.8288 11.3347 48.9945 11.3347 48.9945L11.1599 46.4395C11.1599 46.4395 4.18708 50.0429 3.55078 50.6232V50.6199Z" fill="#AD662B"/>
<path d="M11.16 46.4355C11.16 46.4355 10.5039 46.7751 9.57422 47.2631C8.98738 49.8907 5.25862 51.6083 3.75195 51.8721C3.83767 52.1523 3.95966 52.4029 4.13109 52.538C4.652 52.8282 11.3347 48.9939 11.3347 48.9939L11.16 46.4388V46.4355Z" fill="#894B21"/>
<path d="M11.1601 46.4355C11.1601 46.4355 10.5106 46.7718 9.59076 47.2532C9.80506 48.3873 9.49845 49.3566 8.95117 50.3225C10.2666 49.6038 11.3348 48.9906 11.3348 48.9906L11.1601 46.4355Z" fill="#5E331B"/>
<path d="M13.5439 46.4951L13.778 48.5293C13.778 48.5293 25.1654 51.2591 31.4393 52.3635C32.135 52.6537 32.6592 56.9528 33.5295 59.1617C33.9944 60.0914 42.6487 61.0211 43.8718 60.8464C45.0917 60.6716 45.3224 59.3925 46.0214 55.3274C46.1368 54.3977 46.1368 55.1527 52.236 56.1417C52.7008 55.8516 52.9316 54.6318 52.7008 54.3417C52.1766 54.2823 46.9511 53.1218 45.1477 52.7163C44.3334 52.657 44.2674 53.2273 43.6377 55.6208C43.0575 57.8297 43.1135 58.6408 42.5333 58.7595C41.7354 58.9177 35.9099 58.1792 35.5044 57.655C35.0989 57.1308 33.879 51.8459 33.2988 50.5107C32.7746 50.0458 14.1275 46.0962 14.1275 46.0962C14.1275 46.0962 13.6626 46.0369 13.5472 46.5017L13.5439 46.4951Z" fill="#AD662B"/>
<path d="M52.7008 54.3385C52.3481 54.2989 52.6711 56.5012 46.872 54.289C44.2938 53.6099 45.5235 58.4728 43.8125 59.6102C42.6816 60.197 36.9385 59.7783 34.5516 58.6046C33.4735 58.0771 33.0845 52.7395 32.1218 52.067C30.3217 51.1043 16.4485 49.8449 16.066 46.5018C14.8693 46.2447 14.1242 46.0864 14.1242 46.0864C14.1242 46.0864 13.6593 46.0271 13.5439 46.492L13.778 48.5261C13.778 48.5261 25.1654 51.2559 31.4393 52.3604C32.135 52.6505 32.6592 56.9496 33.5295 59.1585C33.9944 60.0882 42.6487 61.0179 43.8718 60.8432C45.0917 60.6685 45.3224 59.3893 46.0214 55.3243C46.1368 54.3945 46.1368 55.1495 52.236 56.1386C52.7008 55.8485 52.9316 54.6286 52.7008 54.3385Z" fill="#894B21"/>
<path d="M10.867 42.875L9.49219 44.4344L12.5187 44.985L13.8045 43.3333L10.867 42.875Z" fill="#AD662B"/>
<path d="M16.3694 71.76C16.3694 71.76 12.1528 69.561 10.867 62.3144C9.5845 55.0712 11.0516 50.393 9.49219 44.4355L12.5187 44.9861C12.5187 44.9861 13.6199 46.5455 13.3429 55.0712C13.0693 63.6002 15.2749 69.1917 19.5839 71.9413C17.5497 72.1721 16.3694 71.7567 16.3694 71.7567V71.76Z" fill="#915223"/>
<path d="M24.9112 1.39457C24.9112 2.16604 24.2881 2.78915 23.5166 2.78915C22.7452 2.78915 22.1221 2.16604 22.1221 1.39457C22.1221 0.623108 22.7452 0 23.5166 0C24.2881 0 24.9112 0.623108 24.9112 1.39457Z" fill="#BA7516"/>
<path d="M24.318 0.253297C24.7465 1.48632 23.7278 2.72595 22.3662 2.17867C22.6168 2.54462 23.0388 2.78529 23.5168 2.78529C24.2883 2.78529 24.9114 2.16218 24.9114 1.39072C24.9114 0.919264 24.6773 0.503859 24.3213 0.25L24.318 0.253297Z" fill="#93560C"/>
<path d="M23.9025 0.86067C23.9025 1.22992 23.5926 1.52993 23.2135 1.52993C22.8343 1.52993 22.5244 1.22992 22.5244 0.86067C22.5244 0.491421 22.8343 0.191406 23.2135 0.191406C23.5926 0.191406 23.9025 0.491421 23.9025 0.86067Z" fill="#ECB13E"/>
<path d="M7.21688 17.0391C7.21688 17.8106 6.59377 18.4337 5.82231 18.4337C5.05084 18.4337 4.42773 17.8106 4.42773 17.0391C4.42773 16.2676 5.05084 15.6445 5.82231 15.6445C6.59377 15.6445 7.21688 16.2676 7.21688 17.0391Z" fill="#BA7516"/>
<path d="M6.62362 15.8978C7.05221 17.1309 6.03348 18.3705 4.67188 17.8232C4.92243 18.1892 5.34444 18.4298 5.82248 18.4298C6.59395 18.4298 7.21705 17.8067 7.21705 17.0352C7.21705 16.5638 6.98298 16.1484 6.62362 15.8945V15.8978Z" fill="#93560C"/>
<path d="M6.20817 16.5052C6.20817 16.8745 5.89826 17.1745 5.51912 17.1745C5.13998 17.1745 4.83008 16.8745 4.83008 16.5052C4.83008 16.136 5.13998 15.8359 5.51912 15.8359C5.89826 15.8359 6.20817 16.136 6.20817 16.5052Z" fill="#ECB13E"/>
<path d="M39.0518 23.3125C39.0518 24.084 38.4287 24.7071 37.6573 24.7071C36.8858 24.7071 36.2627 24.084 36.2627 23.3125C36.2627 22.5411 36.8858 21.918 37.6573 21.918C38.4287 21.918 39.0518 22.5411 39.0518 23.3125Z" fill="#BA7516"/>
<path d="M38.4615 22.1713C38.8901 23.4043 37.8714 24.6439 36.5098 24.0966C36.7603 24.4626 37.1823 24.7033 37.6604 24.7033C38.4318 24.7033 39.0549 24.0802 39.0549 23.3087C39.0549 22.8372 38.8209 22.4218 38.4615 22.168V22.1713Z" fill="#93560C"/>
<path d="M38.0431 22.7786C38.0431 23.1479 37.7332 23.4479 37.3541 23.4479C36.9749 23.4479 36.665 23.1479 36.665 22.7786C36.665 22.4094 36.9749 22.1094 37.3541 22.1094C37.7332 22.1094 38.0431 22.4094 38.0431 22.7786Z" fill="#ECB13E"/>
<path d="M46.5847 19.5144C46.5847 19.8869 46.2847 20.1869 45.9122 20.1869C45.5396 20.1869 45.2363 19.8869 45.2363 19.5144C45.2363 19.1418 45.5396 18.8418 45.9122 18.8418C46.2847 18.8418 46.5847 19.1451 46.5847 19.5144Z" fill="#BA7516"/>
<path d="M46.2984 18.9629C46.5061 19.5596 46.0115 20.1597 45.3555 19.8959C45.4775 20.0739 45.6786 20.1893 45.9126 20.1893C46.2852 20.1893 46.5852 19.8893 46.5852 19.5168C46.5852 19.2893 46.4731 19.0882 46.2984 18.9662V18.9629Z" fill="#93560C"/>
<path d="M46.0966 19.2567C46.0966 19.4347 45.9483 19.5798 45.7636 19.5798C45.579 19.5798 45.4307 19.4347 45.4307 19.2567C45.4307 19.0787 45.579 18.9336 45.7636 18.9336C45.9483 18.9336 46.0966 19.0787 46.0966 19.2567Z" fill="#ECB13E"/>
<path d="M55.9781 17.2625C55.9781 17.8395 55.51 18.3043 54.9363 18.3043C54.3627 18.3043 53.8945 17.8362 53.8945 17.2625C53.8945 16.6889 54.3627 16.2207 54.9363 16.2207C55.51 16.2207 55.9781 16.6889 55.9781 17.2625Z" fill="#BA7516"/>
<path d="M55.5328 16.4082C55.8526 17.3313 55.091 18.2577 54.0723 17.8489C54.2602 18.1226 54.5767 18.3039 54.9327 18.3039C55.5097 18.3039 55.9746 17.8357 55.9746 17.2621C55.9746 16.9093 55.7998 16.5994 55.5328 16.4082Z" fill="#93560C"/>
<path d="M55.2227 16.8644C55.2227 17.1413 54.9919 17.3655 54.7051 17.3655C54.4183 17.3655 54.1875 17.1413 54.1875 16.8644C54.1875 16.5875 54.4183 16.3633 54.7051 16.3633C54.9919 16.3633 55.2227 16.5875 55.2227 16.8644Z" fill="#ECB13E"/>
<path d="M63.4418 24.8522C63.4418 25.2248 63.1418 25.5248 62.7692 25.5248C62.3967 25.5248 62.0967 25.2215 62.0967 24.8522C62.0967 24.483 62.4 24.1797 62.7692 24.1797C63.1385 24.1797 63.4418 24.4797 63.4418 24.8522Z" fill="#BA7516"/>
<path d="M63.1587 24.3008C63.3664 24.8975 62.8719 25.4975 62.2158 25.2305C62.3378 25.4085 62.5422 25.5239 62.773 25.5239C63.1455 25.5239 63.4455 25.2206 63.4455 24.8514C63.4455 24.6239 63.3335 24.4228 63.1587 24.3008Z" fill="#93560C"/>
<path d="M62.9541 24.5946C62.9541 24.7726 62.8057 24.9177 62.6211 24.9177C62.4364 24.9177 62.2881 24.7726 62.2881 24.5946C62.2881 24.4165 62.4364 24.2715 62.6211 24.2715C62.8057 24.2715 62.9541 24.4165 62.9541 24.5946Z" fill="#ECB13E"/>
<path d="M34.1657 21.6646C34.1657 21.6646 33.447 23.6427 32.9524 24.0911C32.4579 24.5394 27.6906 24.6317 29.9391 20.5832L28.9501 20.2238C28.9501 20.2238 28.5445 23.0558 26.8829 23.013C25.218 22.9701 23.3289 22.1129 24.7235 19.2809L23.7806 19.0996C23.7806 19.0996 23.5992 22.202 22.1157 22.2481C20.6321 22.2943 19.1023 21.9316 19.2836 20.4942C19.465 19.0534 19.6892 18.3347 19.6892 18.3347L18.9243 18.1105C18.9243 18.1105 18.8781 21.1239 17.3945 21.4371C15.9109 21.7503 14.068 21.0316 14.157 19.9073C14.246 18.7831 14.7406 17.4347 14.7406 17.4347L13.8405 17.2567C13.8405 17.2567 13.6163 20.448 12.1327 20.5403C10.6492 20.6293 9.38975 20.3161 9.57108 19.0996C9.74911 17.8864 10.0656 16.805 10.0656 16.805L9.21172 16.627C9.21172 16.627 8.50949 17.7875 7.59625 19.726C8.0776 19.8282 8.45014 20.0788 8.61828 20.5206C9.31392 22.38 12.5679 20.4052 13.3823 21.681C15.5912 24.2361 18.2616 21.3316 18.4957 22.4954C18.7265 23.6559 22.0959 24.8197 23.9553 23.5405C25.4653 25.8648 30.1138 25.5153 29.5336 29.0001C28.9533 32.4849 27.5588 37.2488 20.121 38.0632C12.6833 38.8775 16.5176 39.2237 21.9805 38.9929C27.4434 38.7621 23.0256 41.782 15.8219 41.0831C10.5799 40.5754 5.83243 39.3918 3.63672 38.7852C3.66309 39.0259 3.69277 39.2698 3.72903 39.5105C3.72903 39.5105 14.9252 43.4239 30.5754 43.8261C30.5292 35.551 33.2722 26.9626 35.4317 21.9712C34.6207 21.7008 34.1723 21.658 34.1723 21.658L34.1657 21.6646Z" fill="#26282D"/>
<path d="M61.019 23.7236C61.019 23.7236 60.4981 24.772 60.1947 24.9896C59.8914 25.2072 57.2506 24.9566 58.7474 22.8598L58.2232 22.5993C58.2232 22.5993 57.821 24.139 56.9045 24.0104C55.9879 23.8818 54.9956 23.2884 55.9451 21.8114L55.4341 21.6531C55.4341 21.6531 55.1406 23.3576 54.3164 23.2884C53.4922 23.2191 52.6713 22.9257 52.8592 22.1411C53.0471 21.3564 53.2186 20.974 53.2186 20.974L52.8098 20.8025C52.8098 20.8025 52.5955 22.4642 51.7548 22.5466C50.9141 22.629 49.9415 22.1147 50.0602 21.4982C50.1789 20.8817 50.5382 20.1662 50.5382 20.1662L50.0536 20.0113C50.0536 20.0113 49.7272 21.7619 48.903 21.7191C48.0755 21.6762 47.3996 21.4224 47.5743 20.763C47.7491 20.1036 47.993 19.5267 47.993 19.5267L47.5315 19.375C47.5315 19.375 47.0633 19.9849 46.427 21.0135C48.992 24.1785 49.0711 20.6476 49.6678 22.2103C50.2679 23.7862 51.6954 22.0619 52.6713 23.1862C53.6472 24.3137 54.7747 23.1862 55.6747 24.0104C56.5748 24.8346 59.1299 24.8346 57.9265 28.4414C56.7231 32.0449 52.4471 33.0966 49.3678 32.7965C47.2875 32.5954 44.5907 31.5668 43.0609 30.9239C43.0543 31.1778 43.051 31.4316 43.0609 31.6855C43.0609 31.6855 49.0085 34.5538 57.6364 35.7604C58.1309 31.1811 60.1881 26.605 61.6948 23.9807C61.2629 23.7796 61.019 23.7269 61.019 23.7269V23.7236Z" fill="#26282D"/>
<path d="M3.93359 50.5122C3.93359 50.5122 4.08195 51.4057 4.3424 51.4782C4.60286 51.554 6.19854 50.7562 6.9799 49.3056C7.27661 48.7121 3.93359 50.5122 3.93359 50.5122Z" fill="#DF9561"/>
<path d="M44.5678 53.2016C44.5678 53.2016 43.8128 55.7171 43.6447 56.8479C43.4765 57.9788 43.6447 58.2722 44.3139 56.4292C44.9832 54.5863 45.0689 53.7885 46.2426 53.706C47.4163 53.6236 46.7866 53.2873 45.9492 53.0763C45.1118 52.8653 44.7755 52.951 44.5678 53.2016Z" fill="#DF9561"/>
<path d="M36.187 58.1046C36.187 58.1046 37.9046 58.4804 39.0783 58.6486C40.252 58.8167 39.2893 59.3178 37.9475 59.153C36.6057 58.9849 34.4693 58.0222 36.187 58.1046Z" fill="#DF9561"/>
<path d="M21.7692 48.0048C21.7692 48.0048 24.6605 48.6345 25.877 48.9675C27.0936 49.3038 26.8826 49.9731 24.5781 49.4291C22.2736 48.8851 19.9262 47.8796 21.7692 48.0048Z" fill="#DF9561"/>
<path d="M31.4922 50.1851C31.4922 50.1851 33.1274 50.3533 33.3351 51.1083C33.5428 51.8632 33.167 52.0709 32.0362 51.4017C30.9053 50.7324 29.8569 49.8917 31.4922 50.1851Z" fill="#DF9561"/>
<path d="M5.47363 54.5662C5.47363 54.5662 5.8231 58.2851 6.75282 61.0742C7.68253 63.8634 7.91661 61.4237 7.79792 58.2851C7.68253 55.1465 7.21767 54.1014 5.47363 54.5662Z" fill="#472828"/>
<path d="M18.051 56.0862C21.3643 56.5378 24.6612 57.1115 27.9811 57.5038C28.0834 57.4906 28.2086 57.4775 28.3636 57.4709C30.9187 57.3555 31.1527 54.9158 28.479 54.2169C25.8052 53.5212 18.717 52.3574 18.717 52.3574C16.2641 52.5948 16.5081 54.718 18.0477 56.0829L18.051 56.0862Z" fill="#472828"/>
<path d="M29.5868 58.8329C28.4329 58.1999 25.6141 58.345 24.2294 58.1735C22.459 57.9559 20.7315 57.9395 18.9511 57.9395C16.7422 57.9395 17.3258 60.1484 19.1852 60.6132C21.0447 61.0781 32.6298 62.4067 31.7331 60.6132C31.3836 59.9176 30.4671 59.3175 29.5868 58.8362V58.8329Z" fill="#472828"/>
<path d="M33.902 62.1191C33.902 62.1191 28.7523 62.1191 24.8785 62.1191C20.942 62.1191 21.9739 64.328 28.0171 64.6742C34.0603 65.0237 41.4947 65.3699 43.4695 64.4434C45.4443 63.5137 44.2838 62.8181 41.8442 62.6994C39.4045 62.584 33.9053 62.1191 33.9053 62.1191H33.902Z" fill="#472828"/>
<path d="M28.7091 65.8388C28.7091 65.8388 36.9578 66.419 40.4459 65.8388C43.9307 65.2585 43.3505 67.4674 37.7722 67.8136C32.1939 68.1631 28.7091 67.5795 27.5486 67.2334C26.3881 66.8839 26.0386 65.8388 28.7091 65.8388Z" fill="#472828"/>
<path d="M47.8314 61.4794C47.8479 61.7366 47.8182 62.1388 46.516 62.1487C45.9687 62.1487 44.8807 62.0498 44.8609 61.7926C44.8444 61.5355 45.1741 61.2684 46.4929 61.2585C47.0402 61.2552 47.8116 61.2256 47.8281 61.4827L47.8314 61.4794Z" fill="#472828"/>
<path d="M48.2274 59.524C48.2373 59.6723 48.2175 59.9064 47.4691 59.9097C47.1526 59.9097 46.5229 59.8504 46.5131 59.7053C46.5032 59.557 46.6944 59.402 47.456 59.3954C47.7725 59.3954 48.2175 59.3756 48.2274 59.524Z" fill="#472828"/>
<path d="M6.91439 23.8559C6.37041 24.9208 5.99127 26.4802 5.85939 26.8857C5.0154 29.5166 3.98018 32.4673 4.30987 35.2763C4.77473 39.2259 12.0938 39.3446 18.9512 35.3917C25.8087 31.4387 24.879 29.9321 19.9964 27.2583C15.117 24.5845 13.607 24.7032 12.5586 23.8889C11.5135 23.0746 9.07384 23.6548 8.49359 23.0746C7.88697 22.4712 7.34958 23.0053 6.91439 23.8526V23.8559Z" fill="#585A5E"/>
<path d="M24.2094 34.7813C23.4347 34.1483 22.8478 34.6758 22.2577 34.0231C22.0203 33.7725 21.45 33.2879 20.8104 32.767C20.8104 32.7406 20.8104 32.7175 20.8104 32.6911C20.7609 31.6823 20.8236 31.0592 21.0082 30.5185C21.8917 30.2416 22.716 29.9679 23.0621 29.8064C23.8534 29.4206 24.2028 30.1262 25.1556 29.8229C26.1084 29.5195 26.2799 28.2206 25.1161 28.2799C25.1161 28.2799 24.3776 28.3953 24.5688 27.6634C24.76 26.9315 24.5886 26.6183 23.7644 26.5128C22.9401 26.4073 22.9336 27.3766 22.8281 28.0722C22.7951 28.2865 22.2841 28.5668 21.5917 28.8536C21.7731 27.5085 21.4566 25.3556 18.8586 24.6765L18.3476 24.5611H18.3377H18.3278L17.8102 24.4786C15.0771 24.1424 14.0023 26.1337 13.7056 27.4524C13.099 26.8788 12.6572 26.371 12.71 26.1436C12.8649 25.4578 13.2177 24.5512 12.4133 24.3468C11.6088 24.1424 11.3352 24.3698 11.2429 25.1215C11.1506 25.8699 10.5077 25.4908 10.5077 25.4908C9.44938 25.0061 9.12958 26.2754 9.90434 26.9117C10.6791 27.5447 11.2659 27.0172 11.8561 27.67C12.1363 27.9667 12.8781 28.5865 13.6529 29.2129C13.6133 29.7536 13.4419 30.3372 13.0496 31.1944C12.1858 31.4647 11.3879 31.7317 11.0484 31.89C10.2571 32.2757 9.90764 31.5702 8.95485 31.8735C8.00205 32.1768 7.83062 33.4758 8.99111 33.4164C8.99111 33.4164 9.72961 33.3011 9.53839 34.033C9.34717 34.7649 9.51861 35.0781 10.3395 35.1836C11.1637 35.2891 11.1703 34.3198 11.2758 33.6241C11.3154 33.3769 11.9913 33.0406 12.8451 32.7109C13.066 33.5285 13.9166 33.7659 14.21 33.7593C14.6353 33.7494 14.9584 33.4989 14.909 33.6703C14.8562 33.845 14.4639 34.5605 14.5298 34.6857C14.5991 34.811 14.8134 34.8506 14.8134 34.8506C14.8134 34.8506 14.7606 35.1176 14.787 35.3814C15.1167 35.4803 15.2683 35.4737 15.2683 35.4737C15.2683 35.4737 15.3244 35.2825 15.42 34.9693L15.6673 35.0154L15.6409 35.5429C15.8585 35.6583 16.1025 35.6319 16.1025 35.6319L16.2047 35.0978L16.3134 35.1176H16.3299L16.4354 35.1407L16.3332 35.6748C16.3332 35.6748 16.5508 35.7902 16.7948 35.7638L16.9629 35.2627L17.2102 35.3088C17.1838 35.6352 17.164 35.833 17.164 35.833C17.164 35.833 17.2992 35.8957 17.6421 35.9254C17.7608 35.6913 17.8102 35.4242 17.8102 35.4242C17.8102 35.4242 18.0245 35.4638 18.1333 35.3748C18.2421 35.2858 18.1399 34.4747 18.1564 34.2934C18.1729 34.1121 18.3806 34.4648 18.7729 34.633C19.0334 34.7451 19.8609 34.8308 20.3719 34.2275C20.9917 34.811 21.4434 35.3253 21.3906 35.5594C21.2324 36.2452 20.8829 37.1518 21.6873 37.3562C22.4918 37.5606 22.7654 37.3331 22.8577 36.5814C22.95 35.833 23.5929 36.2122 23.5929 36.2122C24.6512 36.6968 24.971 35.4275 24.1963 34.7912L24.2094 34.7813ZM15.0376 31.3856C14.3683 31.8109 13.7782 31.3295 14.032 30.3833C14.2859 29.4371 15.1727 29.8097 16.109 30.1163C16.109 30.1163 16.5047 30.2646 16.4025 30.5976C16.2805 30.9965 15.7068 30.9603 15.0343 31.3856H15.0376ZM17.2465 33.001C16.6893 33.2384 16.1684 32.8296 16.1684 32.8296C16.0596 32.5856 16.8014 31.1185 17.0816 31.1878C17.3586 31.257 17.3388 32.7076 17.2498 33.001H17.2465ZM18.8421 32.1142C18.3773 31.4713 17.8267 31.2933 17.863 30.8779C17.8926 30.535 18.3146 30.5416 18.3146 30.5416C19.2971 30.6009 20.2598 30.5811 20.1477 31.5537C20.0356 32.5263 19.3103 32.7571 18.8421 32.1142Z" fill="#DDDBCC"/>
<path d="M45.6753 23.5427C45.6753 23.5427 43.5851 27.611 43.9313 29.4672C44.2807 31.3266 48.2304 31.442 49.8557 31.2112C51.4811 30.9804 49.8557 30.5156 47.3007 30.1661C44.7456 29.8166 44.6764 29.632 47.9073 29.6683C51.1349 29.7013 54.4582 28.7682 54.656 27.0275C54.8538 25.2868 51.5998 24.7065 49.2755 23.8922C46.9512 23.0779 46.2556 22.613 45.6753 23.5427Z" fill="#585A5E"/>
<path d="M54.8574 30.4759C54.5178 30.1034 54.1849 30.3243 53.9376 29.955C53.8387 29.8133 53.5881 29.5297 53.3079 29.2231C53.3079 29.2099 53.3112 29.1967 53.3145 29.1836C53.3606 28.6758 53.4398 28.3692 53.5716 28.1121C54.0332 28.0362 54.4651 27.9604 54.6497 27.9044C55.0717 27.7692 55.197 28.1483 55.6948 28.0659C56.1926 27.9835 56.3707 27.3472 55.7871 27.2945C55.7871 27.2945 55.4113 27.2977 55.5596 26.9483C55.708 26.5988 55.6454 26.4274 55.2431 26.3153C54.8409 26.2032 54.7651 26.6878 54.6629 27.0274C54.6299 27.1329 54.3563 27.2351 53.9903 27.3274C54.1783 26.668 54.1783 25.5702 52.9287 25.0427L52.6815 24.9471H52.6782H52.6749L52.421 24.868C51.0825 24.502 50.4001 25.4185 50.1561 26.0548C49.8956 25.7251 49.711 25.4383 49.7539 25.3295C49.8824 24.9998 50.1231 24.5712 49.7374 24.4097C49.3483 24.2481 49.1967 24.3438 49.0945 24.7097C48.9956 25.079 48.6989 24.8416 48.6989 24.8416C48.2043 24.5251 47.9538 25.135 48.2934 25.5076C48.6329 25.8801 48.9659 25.6592 49.2132 26.0285C49.3319 26.1966 49.6583 26.5593 49.9978 26.9285C49.9385 27.1955 49.8099 27.4725 49.5528 27.8747C49.1011 27.9472 48.6857 28.0231 48.5011 28.0758C48.0791 28.211 47.9538 27.8318 47.4559 27.9143C46.9581 27.9967 46.7801 28.633 47.3636 28.6857C47.3636 28.6857 47.7395 28.6824 47.5911 29.0319C47.4428 29.3814 47.5054 29.5528 47.9076 29.6649C48.3098 29.777 48.3857 29.2924 48.4879 28.9528C48.5241 28.8308 48.8868 28.7154 49.3385 28.6099C49.3912 29.0352 49.7967 29.2132 49.9451 29.233C50.1594 29.2594 50.3374 29.1572 50.3011 29.2396C50.2616 29.322 50.0143 29.6517 50.0374 29.7176C50.0638 29.7836 50.166 29.8198 50.166 29.8198C50.166 29.8198 50.1198 29.9484 50.1132 30.0836C50.2715 30.1561 50.3473 30.1627 50.3473 30.1627C50.3473 30.1627 50.3869 30.0704 50.4594 29.9221L50.5814 29.9649L50.5286 30.2254C50.6275 30.2979 50.7528 30.3045 50.7528 30.3045L50.8418 30.044L50.8946 30.0605H50.9045L50.9572 30.0803L50.8682 30.3408C50.8682 30.3408 50.9671 30.4133 51.0924 30.4199L51.2144 30.1825L51.3364 30.2254C51.3001 30.3869 51.277 30.4858 51.277 30.4858C51.277 30.4858 51.3397 30.5287 51.5111 30.5649C51.5869 30.4561 51.6331 30.3276 51.6331 30.3276C51.6331 30.3276 51.7353 30.3638 51.7979 30.3276C51.8606 30.2913 51.8672 29.8792 51.8869 29.7902C51.9067 29.7012 51.9858 29.8924 52.1705 30.0045C52.2925 30.0803 52.698 30.1825 52.998 29.9188C53.265 30.255 53.4529 30.5452 53.4101 30.6573C53.2815 30.9869 53.0408 31.4155 53.4266 31.5771C53.8123 31.7386 53.9673 31.643 54.0662 31.2771C54.1651 30.9111 54.4618 31.1452 54.4618 31.1452C54.9563 31.465 55.2069 30.8518 54.8673 30.4792L54.8574 30.4759ZM50.5253 28.1154C50.1594 28.2802 49.8989 27.9967 50.0967 27.5417C50.2913 27.0867 50.7067 27.3373 51.1517 27.5582C51.1517 27.5582 51.3364 27.6604 51.2638 27.8187C51.1748 28.0099 50.8913 27.9505 50.5253 28.1121V28.1154ZM51.5111 29.0814C51.2144 29.1572 50.9836 28.9165 50.9836 28.9165C50.9473 28.7879 51.4254 28.1088 51.5573 28.1648C51.6891 28.2209 51.5737 28.9429 51.5078 29.0814H51.5111ZM52.3716 28.755C52.1837 28.4022 51.9232 28.2703 51.9727 28.0659C52.0122 27.8945 52.2232 27.9307 52.2232 27.9307C52.7112 28.0329 53.1925 28.0923 53.0639 28.5703C52.9353 29.0484 52.5595 29.111 52.3716 28.755Z" fill="#DDDBCC"/>
<path d="M16.3695 71.759C16.3695 71.759 17.5498 72.1744 19.584 71.9437C15.275 69.1941 13.0693 63.5993 13.343 55.0736C13.3529 54.8098 13.3595 54.5494 13.3661 54.2988C13.0759 55.0011 12.8353 55.6571 12.8781 56.1517C13.1056 58.7595 12.7891 62.1586 13.6562 65.6236C13.8837 66.5368 12.2847 66.906 11.3682 64.618C13.4287 70.3381 16.3695 71.7623 16.3695 71.7623V71.759Z" fill="#7F461F"/>
<path d="M21.5589 71.7661L19.5841 71.9409C19.5841 71.9409 14.8828 69.6166 13.7618 62.9734C12.7695 57.0852 12.809 54.3093 13.1124 51.2992C13.4816 47.6397 12.5156 44.9857 12.5156 44.9857L13.7981 43.334C13.7981 43.334 15.3575 45.2594 14.8993 50.8541C14.441 56.4456 14.4674 67.3517 21.5556 71.7694L21.5589 71.7661Z" fill="#77411D"/>
<path d="M14.9021 50.8541C15.3603 45.2627 13.8009 43.334 13.8009 43.334L13.7581 43.39C15.0043 45.2165 14.6317 50.6695 14.4801 52.0773C14.2954 53.7719 14.2526 56.927 14.5724 59.993C14.8922 63.0591 15.4889 65.8944 14.8922 65.1625C14.5526 64.7471 13.8734 62.314 13.3525 60.2964C13.4646 61.114 13.5998 62.0008 13.7646 62.9734C14.8856 69.6166 19.5869 71.9409 19.5869 71.9409L21.5617 71.7661C14.4735 67.3516 14.4471 56.4456 14.9054 50.8508L14.9021 50.8541Z" fill="#5E331B"/>
<path d="M9.49255 44.4351L12.5191 44.9857L13.8016 43.334L12.6938 45.1209C12.6938 45.1209 13.4719 47.2243 13.2872 50.4288C13.1026 53.6301 12.8751 54.5005 12.8751 56.1489C12.8751 56.1489 12.8751 53.3565 12.9675 50.9333C13.0598 48.5068 12.8323 45.7638 12.374 45.1209L9.48926 44.4318L9.49255 44.4351Z" fill="#5E331B"/>
<path d="M41.1554 49.0898C41.1554 49.0898 40.8752 51.0449 45.6655 52.1164C50.4559 53.1878 51.5339 52.9571 52.5065 51.6086L41.1587 49.0898H41.1554Z" fill="#63381A"/>
<path d="M42.1972 47.6328C42.1576 47.9822 41.8411 48.2361 41.4917 48.1965C41.1422 48.157 40.8883 47.8405 40.9279 47.4877L41.1982 45.1206C41.2378 44.7711 41.5543 44.5172 41.9038 44.5568C42.2532 44.5964 42.5071 44.9129 42.4675 45.2656L42.1972 47.6328Z" fill="#7A4725"/>
<path d="M44.6932 48.4629C44.6404 48.8123 44.314 49.053 43.9646 49.0003C43.6151 48.9475 43.3744 48.6244 43.4272 48.2749L43.7799 45.9177C43.8327 45.5682 44.1591 45.3275 44.5085 45.3803C44.858 45.433 45.0987 45.7594 45.0459 46.1056L44.6932 48.4596V48.4629Z" fill="#7A4725"/>
<path d="M47.6169 49.4396C47.5477 49.7858 47.2081 50.01 46.8652 49.9407C46.5191 49.8715 46.2949 49.5319 46.3641 49.1857L46.8356 46.8516C46.9048 46.5054 47.2444 46.2812 47.5905 46.3504C47.9367 46.4197 48.1609 46.7593 48.0884 47.1054L47.6169 49.4396Z" fill="#7A4725"/>
<path d="M50.6339 49.8279C50.5713 50.1741 50.2383 50.4049 49.8888 50.3422C49.5427 50.2796 49.3119 49.9466 49.3745 49.5972L49.8064 47.2531C49.869 46.9069 50.202 46.6761 50.5515 46.7388C50.8977 46.8014 51.1284 47.1377 51.0658 47.4839L50.6339 49.8279Z" fill="#7A4725"/>
<path d="M53.3834 50.0957C53.3109 50.4419 52.9746 50.6628 52.6284 50.5903C52.2823 50.5177 52.0614 50.1815 52.1339 49.8353L52.6185 47.5044C52.6911 47.1582 53.0273 46.9373 53.3735 47.0099C53.7197 47.0824 53.9406 47.4187 53.868 47.7649L53.3834 50.0957Z" fill="#7A4725"/>
<path d="M53.2418 51.8092C53.2418 51.8092 53.2319 51.8092 53.2253 51.8092C43.282 50.5037 40.3247 49.1091 40.206 49.0497C39.7444 48.8256 39.5532 48.2684 39.7774 47.8068C40.0016 47.3453 40.5522 47.154 41.0137 47.3749C41.0665 47.4013 43.9776 48.7201 53.4693 49.9663C53.977 50.0322 54.3364 50.5004 54.2704 51.0081C54.2045 51.5125 53.7462 51.8686 53.2451 51.8125L53.2418 51.8092Z" fill="#C1743A"/>
<path d="M53.9508 48.1471C53.9508 48.1471 53.9409 48.1471 53.9343 48.1471C43.991 46.8416 41.0337 45.447 40.915 45.3876C40.4534 45.1635 40.2622 44.6063 40.4864 44.1447C40.7106 43.6832 41.2645 43.4919 41.7227 43.7128C41.7755 43.7359 44.6866 45.058 54.175 46.3042C54.6827 46.3701 55.0421 46.8383 54.9761 47.346C54.9102 47.8504 54.4519 48.2065 53.9508 48.1504V48.1471Z" fill="#C1743A"/>
<path d="M41.4453 43.7494C41.4453 43.7494 42.8926 44.4747 47.017 45.3583C49.9051 45.9781 47.9236 46.1429 46.4796 46.1001C43.1696 46.0044 40.6211 45.1506 40.6211 44.6132C40.6211 44.0758 41.1717 43.7857 41.4453 43.7461V43.7494Z" fill="#DF9561"/>
<path d="M40.7042 47.6699C40.7042 47.6699 44.067 48.7282 46.9353 49.1964C48.709 49.4865 48.5046 49.9382 45.1616 49.7733C41.8186 49.6085 40.335 48.9062 40.1701 48.5766C40.0053 48.2469 40.0482 47.6699 40.7075 47.6699H40.7042Z" fill="#DF9561"/>
<path d="M42.3131 50.0625C42.3131 50.0625 43.9648 50.6395 45.5309 50.8867C47.1002 51.134 44.5418 51.5065 43.5494 51.2164C42.5604 50.9263 41.568 50.0625 42.3131 50.0625Z" fill="#894B21"/>
<path d="M46.6175 37.4395C46.6175 37.4395 46.3604 38.5934 49.1627 39.4538C51.9683 40.3143 52.6211 40.2286 53.264 39.4703L46.6175 37.4428V37.4395Z" fill="#63381A"/>
<path d="M47.3103 36.6187C47.2708 36.8264 47.0696 36.9616 46.8619 36.9221C46.6542 36.8825 46.5191 36.6814 46.5586 36.4737L46.829 35.0758C46.8685 34.8681 47.0696 34.7329 47.2773 34.7725C47.485 34.8121 47.6202 35.0132 47.5807 35.2209L47.3103 36.6187Z" fill="#7A4725"/>
<path d="M48.7574 37.2287C48.7112 37.4331 48.5068 37.5617 48.2991 37.5155C48.0947 37.4693 47.9662 37.2616 48.0123 37.0572L48.3321 35.6693C48.3783 35.4649 48.586 35.3363 48.7904 35.3824C48.9948 35.4286 49.1234 35.6363 49.0772 35.8407L48.7574 37.2287Z" fill="#7A4725"/>
<path d="M50.4555 37.9475C50.3961 38.1519 50.1851 38.2673 49.984 38.2113C49.7796 38.1519 49.6642 37.9409 49.7236 37.7398L50.1126 36.3716C50.1719 36.1672 50.3829 36.0518 50.584 36.1079C50.7885 36.1672 50.9038 36.3782 50.8478 36.5793L50.4588 37.9475H50.4555Z" fill="#7A4725"/>
<path d="M52.2326 38.3195C52.1798 38.5239 51.9688 38.6459 51.7644 38.5898C51.56 38.5371 51.4381 38.3261 51.4941 38.1217L51.8601 36.7469C51.9161 36.5425 52.1238 36.4205 52.3282 36.4765C52.5326 36.5293 52.6546 36.7403 52.5985 36.9447L52.2326 38.3195Z" fill="#7A4725"/>
<path d="M53.8579 38.6069C53.7986 38.808 53.5876 38.9267 53.3832 38.8674C53.1821 38.808 53.0634 38.597 53.1227 38.3959L53.5217 37.0277C53.581 36.8266 53.792 36.7079 53.9931 36.7673C54.1942 36.8266 54.3129 37.0376 54.2536 37.242L53.8579 38.6102V38.6069Z" fill="#7A4725"/>
<path d="M53.696 39.6213C53.696 39.6213 53.6894 39.6213 53.6862 39.6213C47.821 38.3817 46.1264 37.4124 46.0572 37.3696C45.7935 37.2146 45.7044 36.875 45.8594 36.608C46.0144 36.3442 46.3539 36.2552 46.6177 36.4102C46.6473 36.4267 48.3222 37.3498 53.9169 38.5334C54.2169 38.596 54.4082 38.8927 54.3455 39.1927C54.2829 39.4894 53.9928 39.6807 53.696 39.6246V39.6213Z" fill="#C1743A"/>
<path d="M54.2859 37.4719C54.2859 37.4719 54.2793 37.4719 54.276 37.4719C48.4109 36.2323 46.7163 35.263 46.6471 35.2202C46.3833 35.0652 46.2943 34.7256 46.4492 34.4586C46.6042 34.1948 46.9438 34.1058 47.2075 34.2575C47.2372 34.274 48.912 35.1971 54.5068 36.3807C54.8068 36.4433 54.998 36.74 54.9354 37.04C54.8727 37.3367 54.5826 37.528 54.2859 37.4719Z" fill="#C1743A"/>
<path d="M47.0393 34.2715C47.0393 34.2715 47.8701 34.7726 50.2834 35.488C51.9747 35.9924 50.7879 35.999 49.9274 35.9067C47.9591 35.6957 46.4789 35.0693 46.5052 34.7495C46.5316 34.4297 46.8712 34.2814 47.036 34.2715H47.0393Z" fill="#DF9561"/>
<path d="M46.4165 36.5725C46.4165 36.5725 48.3715 37.3605 50.0595 37.7726C51.1046 38.0264 50.9595 38.2869 48.9748 38.033C46.9901 37.7792 46.1395 37.2912 46.0538 37.0868C45.9714 36.8824 46.0241 36.5396 46.4165 36.5725Z" fill="#DF9561"/>
<path d="M47.2639 38.0723C47.2639 38.0723 48.22 38.4943 49.1431 38.7152C50.0662 38.936 48.5233 39.0382 47.9463 38.8207C47.3694 38.6031 46.8188 38.0393 47.2639 38.0756V38.0723Z" fill="#894B21"/>
<path d="M26.6394 63.9472C26.6394 65.3384 25.5119 66.4627 24.1239 66.4627C22.7359 66.4627 21.6084 65.3351 21.6084 63.9472C21.6084 62.5592 22.7359 61.4316 24.1239 61.4316C25.5119 61.4316 26.6394 62.5592 26.6394 63.9472Z" fill="#160D0D"/>
<path d="M35.1977 65.2219C35.1977 66.0989 34.4856 66.811 33.6086 66.811C32.7317 66.811 32.0195 66.0989 32.0195 65.2219C32.0195 64.3449 32.7317 63.6328 33.6086 63.6328C34.4856 63.6328 35.1977 64.3449 35.1977 65.2219Z" fill="#160D0D"/>
<path d="M43.4266 65.7831C43.4266 66.3502 42.9684 66.8085 42.4013 66.8085C41.8342 66.8085 41.376 66.3502 41.376 65.7831C41.376 65.2161 41.8342 64.7578 42.4013 64.7578C42.9684 64.7578 43.4266 65.2161 43.4266 65.7831Z" fill="#160D0D"/>
<path d="M24.0872 62.3809C24.9675 62.3809 25.6863 63.0963 25.6863 63.9799C25.6863 64.8634 24.9675 65.5789 24.0872 65.5789C23.2069 65.5789 22.4883 64.8634 22.4883 63.9799C22.4883 63.0963 23.2069 62.3809 24.0872 62.3809ZM24.0872 60.9863C22.4355 60.9863 21.0938 62.3249 21.0938 63.9799C21.0938 65.6349 22.4322 66.9701 24.0872 66.9701C25.7422 66.9701 27.0809 65.6316 27.0809 63.9799C27.0809 62.3282 25.7422 60.9863 24.0872 60.9863Z" fill="#BA7516"/>
<path d="M25.1098 65.3379C25.1098 65.3017 25.0966 65.2654 25.0801 65.2258C24.8065 65.4434 24.4636 65.572 24.0878 65.572C23.3394 65.572 22.7097 65.0544 22.5382 64.3555C22.1426 64.7082 21.6613 64.7972 21.1865 64.695C21.5096 66.0006 22.6833 66.9666 24.0878 66.9666C25.1527 66.9666 26.0857 66.4094 26.6132 65.572C26.1351 65.6577 25.6208 65.5918 25.1098 65.3346V65.3379Z" fill="#93560C"/>
<path d="M22.3962 61.6198C22.3962 61.6198 21.4071 62.2989 21.3906 63.1495C21.4302 63.5946 22.0698 63.7495 22.4951 62.8989C22.8215 62.2495 23.0292 62.1835 23.4841 61.8736C24.4699 61.1945 23.2501 60.9637 22.3995 61.6231L22.3962 61.6198Z" fill="#ECB13E"/>
<path d="M33.701 64.1818C34.2714 64.1818 34.733 64.6434 34.733 65.2137C34.733 65.7841 34.2714 66.2457 33.701 66.2457C33.1307 66.2457 32.6691 65.7841 32.6691 65.2137C32.6691 64.6434 33.1307 64.1818 33.701 64.1818ZM33.701 63.1367C32.5537 63.1367 31.624 64.0664 31.624 65.2137C31.624 66.3611 32.5537 67.2908 33.701 67.2908C34.8484 67.2908 35.7781 66.3611 35.7781 65.2137C35.7781 64.0664 34.8484 63.1367 33.701 63.1367Z" fill="#BA7516"/>
<path d="M33.701 66.2463C33.4109 66.2463 33.1505 66.1243 32.9626 65.9331C32.7054 66.0979 32.5933 65.9199 32.2537 65.8078C32.1021 65.6561 31.7757 65.5407 31.624 65.2539C31.6438 66.3847 32.5636 67.2947 33.6978 67.2947C34.545 67.2947 35.2737 66.7869 35.5967 66.0583C35.2835 65.9792 35.0132 65.6495 34.7132 65.3693C34.6407 65.8671 34.2154 66.2496 33.6978 66.2496L33.701 66.2463Z" fill="#93560C"/>
<path d="M32.8336 63.4242C32.8336 63.4242 32.138 63.8297 32.0193 64.3539C31.96 64.7034 32.3094 64.7595 32.6589 64.3539C33.0084 63.9484 33.4732 63.7144 34.2843 63.8297C35.0986 63.9451 34.1095 62.9594 32.8304 63.4242H32.8336Z" fill="#ECB13E"/>
<path d="M42.3583 65.0081C42.7671 65.0081 43.1001 65.3411 43.1001 65.7499C43.1001 66.1587 42.7671 66.4917 42.3583 66.4917C41.9495 66.4917 41.6165 66.1587 41.6165 65.7499C41.6165 65.3411 41.9495 65.0081 42.3583 65.0081ZM42.3583 64.3125C41.5638 64.3125 40.9209 64.9554 40.9209 65.7499C40.9209 66.5445 41.5638 67.1874 42.3583 67.1874C43.1529 67.1874 43.7958 66.5445 43.7958 65.7499C43.7958 64.9554 43.1529 64.3125 42.3583 64.3125Z" fill="#BA7516"/>
<path d="M43.0902 65.6934C43.0902 65.7131 43.0968 65.7296 43.0968 65.7494C43.0968 66.1582 42.7638 66.4912 42.355 66.4912C42.0122 66.4912 41.7253 66.2571 41.6429 65.9406C41.3825 65.9604 41.1352 65.9307 40.9209 65.7923C40.944 66.567 41.577 67.1901 42.3583 67.1901C43.0968 67.1901 43.7035 66.633 43.7859 65.9175C43.5848 65.7461 43.3474 65.6901 43.0935 65.6967L43.0902 65.6934Z" fill="#93560C"/>
<path d="M41.8208 64.5066C41.8208 64.5066 41.2207 64.7374 41.1218 65.1825C41.0823 65.4331 41.3724 65.532 41.5669 65.2221C41.7614 64.9122 42.2625 64.777 42.5362 64.7968C42.8065 64.8165 42.6318 64.2923 41.8208 64.5066Z" fill="#ECB13E"/>
<path d="M46.961 68.3443C46.7434 68.3443 46.5159 68.3938 46.2884 68.4861C45.573 68.7828 44.8081 68.9477 44.1389 68.9477C43.6905 68.9477 43.3113 68.8685 43.1201 68.74C42.9553 68.6246 42.7377 68.6378 42.586 68.7696C42.3454 68.9773 41.3926 69.3664 40.4398 69.3664C40.0211 69.3664 39.454 69.2872 39.1276 68.9147C39.0386 68.8125 38.9067 68.7565 38.7749 68.763C38.6397 68.7696 38.5177 68.8389 38.4386 68.9477C38.0726 69.4554 37.2352 69.8082 36.4044 69.8082C35.8011 69.8082 34.69 69.6235 34.0142 68.3806C33.9186 68.2026 33.7208 68.1103 33.5295 68.1564C33.3383 68.1993 33.1966 68.3674 33.1801 68.5718C33.1174 69.3103 32.191 69.8675 31.0239 69.8675C29.8568 69.8675 28.7623 69.2774 28.248 68.2883C28.1589 68.1136 27.971 68.0147 27.7831 68.0509C27.5952 68.0839 27.4468 68.2355 27.4139 68.4301C27.249 69.4059 26.2797 70.1411 25.1555 70.1411C24.0313 70.1411 23.0191 69.3697 22.5015 68.0278C22.429 67.8366 22.2444 67.7212 22.0466 67.7377C21.8487 67.7542 21.6872 67.9059 21.6476 68.107C21.4597 69.0466 20.563 69.6994 19.4717 69.6994C18.1002 69.6994 16.9661 68.7004 16.4419 67.0256C16.376 66.8212 16.1814 66.686 15.977 66.7058C15.7693 66.7256 15.6012 66.8904 15.5715 67.1047C15.4759 67.8267 15.1561 69.0367 14.1077 69.0367C13.2505 69.0367 11.9944 68.1399 11.3548 66.4816C11.2691 66.264 11.0449 66.1453 10.824 66.2047C10.6064 66.264 10.4647 66.4849 10.4976 66.719C10.8174 69.0499 9.60749 69.3664 9.47561 69.3927C9.31077 69.4224 9.1723 69.5444 9.12285 69.7092C9.0701 69.8741 9.11296 70.0554 9.23164 70.1807C11.8131 72.8578 16.7947 74.2161 24.0379 74.2161C29.2238 74.2161 35.4549 73.527 42.563 72.1654C46.0774 71.4929 48.1182 70.3785 48.0127 69.1883C47.9698 68.6938 47.5379 68.3509 46.9676 68.3509L46.961 68.3443Z" fill="#D1AC64"/>
</g>
</svg>
