<svg width="100" height="100" viewBox="0 0 100 100" fill="none" xmlns="http://www.w3.org/2000/svg">
<path d="M98.8087 50.9351C98.8087 46.8381 98.4763 43.8484 97.7568 40.748H50.9736V59.2396H78.4343C77.8809 63.8351 74.8912 70.7557 68.2473 75.4061L68.1542 76.0251L82.9461 87.4843L83.971 87.5866C93.3828 78.8942 98.8087 66.1049 98.8087 50.9351Z" fill="#4285F4"/>
<path d="M50.9733 99.6569C64.4268 99.6569 75.721 95.2275 83.9706 87.5874L68.247 75.4069C64.0394 78.3412 58.392 80.3897 50.9733 80.3897C37.7966 80.3897 26.613 71.6977 22.6264 59.6836L22.042 59.7332L6.66111 71.6366L6.45996 72.1958C14.6539 88.4729 31.4848 99.6569 50.9733 99.6569Z" fill="#34A853"/>
<path d="M22.6268 59.6836C21.5749 56.5833 20.9661 53.2611 20.9661 49.8287C20.9661 46.3959 21.5749 43.0741 22.5715 39.9737L22.5436 39.3134L6.96994 27.2188L6.46039 27.4611C3.08329 34.2157 1.14551 41.8008 1.14551 49.8287C1.14551 57.8565 3.08329 65.4413 6.46039 72.1958L22.6268 59.6836Z" fill="#FBBC05"/>
<path d="M50.9733 19.2668C60.3298 19.2668 66.6413 23.3084 70.2401 26.6859L84.3027 12.9553C75.6661 4.92748 64.4268 0 50.9733 0C31.4848 0 14.6539 11.1836 6.45996 27.4607L22.571 39.9733C26.613 27.9592 37.7966 19.2668 50.9733 19.2668Z" fill="#EB4335"/>
</svg>
